<svg data-v-0dd9719b="" version="1.0" xmlns="http://www.w3.org/2000/svg" xmlns:xlink="http://www.w3.org/1999/xlink" width="100%" height="100%" viewBox="0 0 340.000000 250.000000" preserveAspectRatio="xMidYMid meet" color-interpolation-filters="sRGB" style="margin: auto;"> <rect data-v-0dd9719b="" x="0" y="0" width="100%" height="100%" fill="#FAFAF8" fill-opacity="1" class="background"></rect> <!----> <g data-v-0dd9719b="" fill="#E8A62D" class="icon-text-wrapper icon-svg-group iconsvg" transform="translate(90.21029663085938,89.52231216430664)"><g class="iconsvg-imagesvg" transform="translate(0,0)"><g><rect fill="#E8A62D" fill-opacity="0" stroke-width="2" x="0" y="0" width="67.2" height="66.87631861788942" class="image-rect"></rect> <svg filter="url(#colors7490898326)" x="0" y="0" width="67.2" height="66.87631861788942" filtersec="colorsf1223684696" class="image-svg-svg primary" style="overflow: visible;"><svg xmlns="http://www.w3.org/2000/svg" xmlns:xlink="http://www.w3.org/1999/xlink" version="1.1" x="0px" y="0px" viewBox="0 0 64 63.69200134277344" enable-background="new 0 0 64 64" xml:space="preserve"><g><path d="M63,18h-3.454c0.415-1.058,0.717-2.243,0.619-3.381c1.522-0.671,2.512-1.622,2.938-2.84   c0.585-1.675-0.064-3.351-0.657-4.403C62.804,6.3,63,5.166,63,4c0-2.206-1.794-4-4-4c-2.283,0-4.308,1.104-5.587,2.8   c-1.53,0.179-2.686,0.799-3.395,1.899c-1.332,2.066-0.645,5.039-0.205,6.431c-0.358,0.311-0.67,0.669-0.943,1.057   C47.854,10.848,46.261,10,44.5,10c-0.035,0-0.068,0.006-0.103,0.006C43.47,8.182,41.593,7,39.5,7c-1.431,0-2.73,0.551-3.709,1.447   c-0.768-0.837-1.506-1.576-2.084-2.154c-1.404-1.404-3.102-1.04-4.641-0.618c-0.495-0.517-0.962-0.985-1.359-1.382   c-1.495-1.495-3.326-0.986-4.944-0.536c-1.214,0.337-2.361,0.655-3.446,0.295c-1.616-0.54-3.149-0.369-4.317,0.473   C13.729,5.44,13,7.071,13,9c0,2.126,1.21,3.114,2.094,3.836C15.752,13.373,16,13.612,16,14c0,2.209,4.499,4.532,7,5.652v13.434   l-0.755,0.755c-0.875,0.874-2.222,1.122-3.353,0.614L1.41,26.588c-0.308-0.138-0.667-0.112-0.953,0.072   C0.172,26.845,0,27.161,0,27.5V36v0.5V52c0,0.424,0.268,0.802,0.667,0.943l17.017,6.005l13.608,4.536   c0.417,0.14,0.846,0.208,1.271,0.208c0.776,0,1.544-0.229,2.213-0.674l1.373-0.916l1.086,0.362   c0.311,0.104,0.629,0.153,0.944,0.153c0.983,0,1.934-0.484,2.501-1.335l0.557-0.835c0.246,0.064,0.494,0.104,0.741,0.104   c1.111,0,2.176-0.622,2.692-1.657l0.694-1.386l2.413,0.804c1.558,0.516,3.284-0.199,4.018-1.665   c0.257-0.513,0.356-1.083,0.329-1.648H63c0.553,0,1-0.447,1-1V19C64,18.447,63.553,18,63,18z M62,50.697l-2-3V23   c0-0.553-0.447-1-1-1s-1,0.447-1,1v24.764l-1,2V20h5V50.697z M59.124,49.988L61.132,53h-3.513L59.124,49.988z M49.059,18   c0.048-0.516,0.137-1.115,0.278-1.749l2.093,0.697C51.535,16.983,51.642,17,51.746,17c0.419,0,0.809-0.265,0.948-0.684   c0.175-0.524-0.108-1.091-0.632-1.265l-2.111-0.704c0.304-0.682,0.689-1.302,1.2-1.735c0.714-0.604,1.59-0.809,2.685-0.627   c2.251,0.375,3.641,1.052,4.129,2.01c0.445,0.874,0.25,2.159-0.598,4.004H49.059z M61.215,11.118   c-0.223,0.638-0.801,1.169-1.7,1.595c-0.105-0.16-0.224-0.313-0.353-0.46l0.718-0.718c0.528-0.528,0.99-1.104,1.39-1.714   C61.353,10.249,61.362,10.697,61.215,11.118z M59,2c1.103,0,2,0.897,2,2c0,2.312-0.9,4.486-2.535,6.121l-0.92,0.92   c-0.349-0.177-0.733-0.338-1.154-0.48c0.64-2.242,1.483-4.021,2.316-4.854c0.391-0.391,0.391-1.023,0-1.414s-1.023-0.391-1.414,0   c-1.4,1.399-2.32,3.939-2.84,5.778c-0.098-0.018-0.188-0.04-0.289-0.057c-0.056-0.009-0.109-0.012-0.164-0.02V7   C54,4.243,56.243,2,59,2z M51.7,5.782c0.136-0.212,0.321-0.38,0.529-0.528C52.085,5.814,52,6.396,52,7v3.038   c-0.133,0.028-0.264,0.062-0.392,0.1C51.254,8.85,50.964,6.923,51.7,5.782z M47.795,14.352c-0.032,0.093-0.067,0.185-0.097,0.278   c-0.002,0.006-0.008,0.011-0.01,0.017c-0.003,0.009-0.001,0.018-0.003,0.028c-0.398,1.259-0.566,2.497-0.635,3.325h-2.119   c-0.256-2.036-1.275-3.835-2.766-5.1c0.634-0.571,1.457-0.9,2.336-0.9C45.999,12,47.31,12.958,47.795,14.352z M37,13   c2.967,0,5.431,2.167,5.91,5H31.09C31.569,15.167,34.033,13,37,13z M39.5,9c1.145,0,2.188,0.557,2.834,1.45   c-0.713,0.305-1.354,0.761-1.885,1.343C39.403,11.29,38.236,11,37,11c-0.23,0-0.456,0.015-0.68,0.034C36.874,9.829,38.091,9,39.5,9   z M32.293,7.707c0.627,0.627,1.448,1.454,2.274,2.374c-0.223,0.456-0.371,0.951-0.461,1.469c-0.199,0.078-0.393,0.164-0.584,0.257   c-0.612-1.516-1.737-3.064-2.916-4.44C31.393,7.224,31.876,7.291,32.293,7.707z M18,14c0-1.373-0.91-2.116-1.641-2.713   C15.6,10.667,15,10.177,15,9c0-1.278,0.426-2.317,1.168-2.853c0.645-0.463,1.513-0.533,2.516-0.199   c1.667,0.558,3.233,0.119,4.615-0.265c1.653-0.461,2.386-0.584,2.994,0.023c1.567,1.567,4.703,4.707,5.513,7.221   c-0.814,0.698-1.484,1.556-1.966,2.526c-0.841-0.797-2.213-2.051-3.774-3.314L24.97,7.758c-0.134-0.536-0.677-0.864-1.212-0.728   c-0.536,0.134-0.862,0.677-0.728,1.212l0.497,1.989c-1.505-1.035-3.018-1.884-4.286-2.201c-0.536-0.136-1.078,0.19-1.212,0.728   c-0.135,0.535,0.191,1.078,0.728,1.212c1.713,0.428,4.219,2.212,6.425,4.03H23c-0.553,0-1,0.447-1,1s0.447,1,1,1h4.489   c0.662,0.602,1.227,1.138,1.648,1.554c-0.027,0.147-0.049,0.296-0.068,0.446h-4.86C21.054,16.623,18.119,14.734,18,14z    M18.072,36.279c1.617,0.726,3.503,0.521,4.928-0.479V38c0,0.553,0.447,1,1,1s1-0.447,1-1V20h30v33h-3.674   c-0.327-0.377-0.728-0.688-1.194-0.888l-17.86-7.656C32.106,44.386,32,44.225,32,44.045c0-0.193,0.124-0.365,0.308-0.427   l3.103-1.034c1.562-0.521,2.473-2.179,2.072-3.775c-0.419-1.681-2.069-2.704-3.763-2.326l-6.937,1.541   c-0.186,0.042-0.355,0.135-0.49,0.27l-4.048,4.048c-0.875,0.874-2.222,1.121-3.353,0.614L2,35.353v-6.306L18.072,36.279z    M50.005,55.754c-0.291,0.584-0.978,0.866-1.597,0.662l-10.092-3.364c-0.528-0.177-1.09,0.108-1.265,0.632   c-0.175,0.524,0.108,1.091,0.632,1.265l5.763,1.922l-0.566,1.132c-0.221,0.441-0.739,0.655-1.21,0.501l-4.354-1.451   c-0.528-0.175-1.09,0.108-1.265,0.632c-0.175,0.524,0.108,1.091,0.632,1.265l2.577,0.859l-0.245,0.367   c-0.251,0.374-0.724,0.534-1.148,0.395l-4.551-1.517c-0.527-0.177-1.091,0.108-1.265,0.632c-0.175,0.524,0.108,1.091,0.632,1.265   l1.061,0.354l-0.078,0.052c-0.519,0.346-1.155,0.43-1.742,0.234l-13.592-4.531L2,51.293V37.547l16.072,7.232   c1.88,0.845,4.128,0.437,5.587-1.024l3.842-3.842l6.653-1.479c0.616-0.132,1.232,0.237,1.389,0.859   c0.147,0.589-0.188,1.201-0.766,1.394l-3.103,1.034C30.673,42.056,30,42.989,30,44.045c0,0.981,0.583,1.865,1.484,2.25l17.86,7.655   c0.338,0.145,0.594,0.414,0.72,0.759S50.17,55.425,50.005,55.754z"></path></g></svg></svg> <defs><filter id="colors7490898326"><feColorMatrix type="matrix" values="0 0 0 0 0.90625  0 0 0 0 0.6484375  0 0 0 0 0.17578125  0 0 0 1 0" class="icon-fecolormatrix"></feColorMatrix></filter> <filter id="colorsf1223684696"><feColorMatrix type="matrix" values="0 0 0 0 0.99609375  0 0 0 0 0.99609375  0 0 0 0 0.99609375  0 0 0 1 0" class="icon-fecolormatrix"></feColorMatrix></filter> <filter id="colorsb3784100712"><feColorMatrix type="matrix" values="0 0 0 0 0  0 0 0 0 0  0 0 0 0 0  0 0 0 1 0" class="icon-fecolormatrix"></feColorMatrix></filter></defs></g></g> <g transform="translate(72.19999694824219,3.9209442138671875)"><g data-gra="path-name" fill-rule="" class="tp-name iconsvg-namesvg"><g transform="scale(0.7399999999999998)"><g><path d="M5.23 0L1.21 0 1.21-1.21Q2.68-1.88 4.64-2.22L4.64-2.22 4.64-27.03Q3.68-27.24 2.8-27.51 1.92-27.78 1.21-28.08L1.21-28.08 1.21-29.29 5.48-29.29Q6.19-29.29 7.15-29.33 8.12-29.37 9.14-29.44 10.17-29.5 11.11-29.56 12.05-29.62 12.68-29.62L12.68-29.62Q19.79-29.62 23.62-25.82 27.45-22.01 27.45-15.02L27.45-15.02Q27.45-11.72 26.51-8.89 25.56-6.07 23.64-4.02 21.72-1.97 18.77-0.79 15.82 0.38 11.8 0.38L11.8 0.38Q11.17 0.38 10.38 0.31 9.58 0.25 8.7 0.19 7.82 0.13 6.92 0.06 6.03 0 5.23 0L5.23 0ZM12.09-27.45L12.09-27.45Q11-27.45 10-27.43 9-27.41 8.41-27.28L8.41-27.28 8.41-1.92Q8.62-1.88 9.16-1.86 9.71-1.84 10.33-1.82 10.96-1.8 11.53-1.8 12.09-1.8 12.34-1.8L12.34-1.8Q15.23-1.8 17.24-2.89 19.25-3.97 20.52-5.79 21.8-7.62 22.38-10 22.97-12.38 22.97-15.02L22.97-15.02Q22.97-17.07 22.41-19.27 21.84-21.46 20.56-23.28 19.29-25.1 17.2-26.28 15.1-27.45 12.09-27.45ZM31.84-14.64L31.84-14.64Q31.84-17.91 32.74-20.69 33.64-23.47 35.33-25.5 37.03-27.53 39.5-28.66 41.97-29.79 45.1-29.79L45.1-29.79Q48.24-29.79 50.71-28.66 53.18-27.53 54.87-25.5 56.57-23.47 57.47-20.69 58.37-17.91 58.37-14.64L58.37-14.64Q58.37-11.38 57.47-8.6 56.57-5.82 54.87-3.79 53.18-1.76 50.71-0.63 48.24 0.5 45.1 0.5L45.1 0.5Q41.97 0.5 39.5-0.63 37.03-1.76 35.33-3.79 33.64-5.82 32.74-8.6 31.84-11.38 31.84-14.64ZM36.32-14.64L36.32-14.64Q36.32-11.97 36.88-9.6 37.45-7.24 38.58-5.48 39.71-3.72 41.42-2.7 43.14-1.67 45.48-1.67L45.48-1.67Q47.62-1.67 49.21-2.7 50.79-3.72 51.82-5.48 52.85-7.24 53.37-9.6 53.89-11.97 53.89-14.64L53.89-14.64Q53.89-17.32 53.35-19.69 52.8-22.05 51.67-23.81 50.54-25.56 48.83-26.59 47.11-27.62 44.77-27.62L44.77-27.62Q42.47-27.62 40.86-26.59 39.25-25.56 38.24-23.81 37.24-22.05 36.78-19.69 36.32-17.32 36.32-14.64ZM80.96-28.08L80.96-29.29 90-29.29 90-28.08Q88.24-26.9 86.57-26.4L86.57-26.4 86.57 0.5 84.18 0.5 69-22.55 67.36-25.82 67.24-25.82 67.62-22.55 67.62-2.68Q69.33-2.22 70.84-1.21L70.84-1.21 70.84 0 61.8 0 61.8-1.21Q62.55-1.67 63.41-2.03 64.27-2.38 65.23-2.68L65.23-2.68 65.23-26.65Q64.39-26.99 63.58-27.36 62.76-27.74 62.05-28.12L62.05-28.12 62.05-29.29 69.12-29.29 82.3-9.41 84.23-5.82 84.39-5.82 84.18-9.41 84.18-26.4Q83.31-26.78 82.49-27.2 81.67-27.62 80.96-28.08L80.96-28.08ZM116.69-11.59L116.69-2.01Q115.9-1.55 114.83-1.11 113.77-0.67 112.57-0.31 111.38 0.04 110.19 0.27 109 0.5 107.95 0.5L107.95 0.5Q104.6 0.5 101.92-0.4 99.25-1.3 97.36-3.16 95.48-5.02 94.46-7.87 93.43-10.71 93.43-14.64L93.43-14.64Q93.43-18.74 94.62-21.63 95.82-24.52 97.8-26.34 99.79-28.16 102.32-28.97 104.85-29.79 107.49-29.79L107.49-29.79Q110.25-29.79 112.15-29.44 114.06-29.08 115.48-28.37L115.48-28.37Q115.48-27.74 115.44-26.82 115.4-25.9 115.31-24.9 115.23-23.89 115.1-22.91 114.98-21.92 114.85-21.17L114.85-21.17 113.77-21.17 111.59-27.2Q111.13-27.45 110.04-27.53 108.95-27.62 107.91-27.62L107.91-27.62Q105.82-27.62 103.93-26.84 102.05-26.07 100.65-24.46 99.25-22.85 98.41-20.4 97.57-17.95 97.57-14.64L97.57-14.64Q97.57-11.67 98.39-9.29 99.21-6.9 100.65-5.21 102.09-3.51 104.04-2.59 105.98-1.67 108.24-1.67L108.24-1.67Q109.08-1.67 109.87-1.84 110.67-2.01 111.34-2.24 112.01-2.47 112.45-2.72 112.89-2.97 113.05-3.14L113.05-3.14 113.05-11.59Q111.97-11.67 110.98-11.97 110-12.26 109.04-12.59L109.04-12.59 109.04-13.81 119.29-13.81 119.29-12.59Q118.87-12.3 118.28-12.05 117.7-11.8 116.69-11.59L116.69-11.59Z" transform="translate(-1.2100000381469727, 29.790000915527344)"></path></g> <!----> <!----> <!----> <!----> <!----> <!----> <g data-gra="path-name-1" fill="#9B1D27" transform="translate(0,33.290000915527344)"><g transform="scale(1.04267)"><path d="M45.44 6.08L45.74 6.92Q43.33 9.09 40.8 10.62 38.27 12.16 35.39 12.1L35.39 12.1Q32.92 12.1 30.21 11.19 27.5 10.29 24.43 9.03 21.36 7.76 17.9 6.38 14.44 4.99 10.41 3.97L10.41 3.97 12.22 2.77Q13.54 2.59 14.8 2.59L14.8 2.59Q17.81 2.59 20.73 3.31 23.65 4.03 26.6 4.87 29.55 5.72 32.56 6.44 35.57 7.16 38.7 7.16L38.7 7.16Q40.32 7.16 42.01 6.92 43.69 6.68 45.44 6.08L45.44 6.08ZM3.19-21.06L3.19-21.06Q3.19-25.76 4.48-29.76 5.78-33.76 8.21-36.68 10.65-39.6 14.2-41.22 17.75-42.85 22.27-42.85L22.27-42.85Q26.78-42.85 30.33-41.22 33.88-39.6 36.32-36.68 38.76-33.76 40.05-29.76 41.34-25.76 41.34-21.06L41.34-21.06Q41.34-16.37 40.05-12.37 38.76-8.37 36.32-5.45 33.88-2.53 30.33-0.9 26.78 0.72 22.27 0.72L22.27 0.72Q17.75 0.72 14.2-0.9 10.65-2.53 8.21-5.45 5.78-8.37 4.48-12.37 3.19-16.37 3.19-21.06ZM9.63-21.06L9.63-21.06Q9.63-17.21 10.44-13.81 11.25-10.41 12.88-7.88 14.5-5.36 16.97-3.88 19.44-2.41 22.81-2.41L22.81-2.41Q25.88-2.41 28.16-3.88 30.45-5.36 31.93-7.88 33.4-10.41 34.15-13.81 34.9-17.21 34.9-21.06L34.9-21.06Q34.9-24.91 34.12-28.31 33.34-31.72 31.72-34.24 30.09-36.77 27.62-38.24 25.16-39.72 21.79-39.72L21.79-39.72Q18.48-39.72 16.16-38.24 13.84-36.77 12.4-34.24 10.95-31.72 10.29-28.31 9.63-24.91 9.63-21.06ZM45.14-40.38L45.14-42.13 60.42-42.13 60.42-40.38Q59.28-39.9 58.13-39.54 56.99-39.18 55.85-38.88L55.85-38.88 55.85-14.26Q55.85-11.07 56.54-8.94 57.23-6.8 58.56-5.51 59.88-4.21 61.84-3.64 63.79-3.07 66.26-3.07L66.26-3.07Q71.01-3.07 73.66-5.69 76.31-8.3 76.31-14.32L76.31-14.32 76.31-38.34Q74.92-38.82 73.72-39.33 72.52-39.84 71.55-40.38L71.55-40.38 71.55-42.13 84.37-42.13 84.37-40.38Q83.23-39.72 82.06-39.18 80.88-38.64 79.68-38.34L79.68-38.34 79.68-14.2Q79.68-10.35 78.66-7.58 77.63-4.81 75.8-3.01 73.96-1.2 71.34-0.33 68.73 0.54 65.54 0.54L65.54 0.54Q58.01 0.54 54.04-2.86 50.07-6.26 50.07-13.3L50.07-13.3 50.07-38.88Q47.6-39.24 45.14-40.38L45.14-40.38ZM86.72-42.13L115.25-42.13Q115.19-39.72 115.04-37.28 114.88-34.84 114.58-32.38L114.58-32.38 113.02-32.38 110.55-39 97.43-39 97.43-23.05 107.24-23.05 109.59-27.5 111.09-27.5Q111.45-21.54 111.09-15.35L111.09-15.35 109.59-15.35 107.24-19.92 97.43-19.92 97.43-3.13 111.27-3.13 114.22-10.35 115.73-10.35Q116.15-7.82 116.33-5.24 116.51-2.65 116.39 0L116.39 0 86.72 0 86.72-1.75Q88.83-2.71 91.65-3.19L91.65-3.19 91.65-38.88Q90.45-39.12 89.19-39.51 87.92-39.9 86.72-40.38L86.72-40.38 86.72-42.13Z" transform="translate(-3.190000057220459, 42.849998474121094)"></path></g></g></g></g> <!----></g></g><defs v-gra="od"></defs></svg>