<svg data-v-0dd9719b="" version="1.0" xmlns="http://www.w3.org/2000/svg" xmlns:xlink="http://www.w3.org/1999/xlink" width="100%" height="100%" viewBox="0 0 340.000000 340.000000" preserveAspectRatio="xMidYMid meet" color-interpolation-filters="sRGB" style="margin: auto; margin-top: 20%;"><defs id="SvgjsDefs24439"></defs><g id="SvgjsG24440" featurekey="rootContainer" transform="matrix(3.184914277091761,0,0,3.184914277091761,0.06859947960793127,0.3184914087256077)" fill="#000000"><g xmlns="http://www.w3.org/2000/svg"><path fill-rule="evenodd" d="M39.1 98.3zm22.2.1zm-38.6.3zm46.8-.3zm13.2-.1zM54.6.6zM1.1 36.9zm1.8 60.2zm9.1 1.3zM.8 47.9zm1 16.4zm63.1 34.2zM98.1 2.2H98v-.8h-.1a.9.9 0 0 1-.1-.4V.9h-.1v.5-.3h-1.5c-.2 0-.3-.1-.2-.1s.3-.1.2-.2l-.6-.3h-6.7c-.1 0-.1.1 0 .1h.5v.1H77.6l-.5.2h-3.4c.1 0 0 .1-.2.1h-4.2l-.5-.3h-5.5c.1.1-.1.1-.3.2s-.5.2-.5.3h-2c-.4 0-.6-.1-.4-.2h.2c-.1-.1 0-.1.1-.2H59c-.5.1-1 .1-.8.2h-3.5l-.8-.2c-.1 0-.1-.1.1-.1h-3.4L49.4.6h.5c-.3.1-.9.2-.9.4h-9.5c-.4 0-.5-.1-.1-.2h-.9c-.3 0-.4.1-.3.1l.3.2h-4.4l.4.2h.3c-.2 0-.2-.1-.1-.1H33l.4.2H35l-.6.2h-2.5c-.3 0-.3-.1-.1-.2L30 1.3h1.1c.1 0 0-.1 0-.1h.9l.2-.2.3-.2.9-.2h4.4c-.2-.1-.4-.1-.3-.2h-.2L36.1.1h-7.3c-.2.1.2.1 0 .2h-.2V.2l.2-.2H25l.9.2h.6c.3 0 .1.1.1.1H22l-.3-.2h-1.4c-.1 0 0 .1.1.1s.1 0 0 .1h-5.6c-.1 0-.1-.1 0-.1h1.3c-.1 0 0-.1.1-.1s.2-.1 0-.1h-.6c.1 0 .1-.1 0-.1h-1.8c.1.1.2.1.1.2s.1.1.2.2.1.2-.2.3h-.2c-.2-.2 0-.3 0-.5h.2l-.9.3H7.8L7 .8H4.2l.3-.3h-.8L2.5.8h-.2L1.6.5h-.5l-.2.7a1.7 1.7 0 0 0 0 .3 1.8 1.8 0 0 0 .1.8c.1.1.1-.3.1-.5v-.3c0-.1 0-.1.1 0s.1.2.1.1.1.1.1.2a6.1 6.1 0 0 0 0 1c0 .2 0 .4-.1.3s-.1.1-.1.2a4.1 4.1 0 0 1 0 .4 5.5 5.5 0 0 0 .1 1v.4a2 2 0 0 1 0 .6 1.9 1.9 0 0 1-.1.3c-.1 0-.1.4-.2.3-.1 0-.2.4-.1 1a6.6 6.6 0 0 1 0 1.2c.1.3 0 .9.1 1.2s.2.3.3-.5a1.9 1.9 0 0 1 0 .3 2.2 2.2 0 0 0 .1.7c0 .2.1 0 .1-.1h.1s.1.2.1.3-.1 1-.1 1.6h.1a2 2 0 0 1 0 .4.9.9 0 0 1 0-.1V12h-.2v-.4c0-.3 0-.4-.1-.3s-.2 0-.3-.5v-.3c0-.1-.1-.1-.1.1v.5a2.3 2.3 0 0 0 0 .6 3 3 0 0 1 0 .8H.5v.2-.7a1.4 1.4 0 0 0 0 .2 1.6 1.6 0 0 0 .1.6c.1.1.2.3.3-.1s.1.1.1.3v.5a1.6 1.6 0 0 0 .1.6v-.5.4a.7.7 0 0 0 0 .3c0 .4 0 .9.1 1.3a1.8 1.8 0 0 1 0 .3v1.3c0 .2-.1.2-.1.1s-.2-.1-.3 0a1.6 1.6 0 0 0 0 .3c.1.1.1 0 .2.2s.1.1.2.1a2.3 2.3 0 0 1 0 .3v.3H.7a1.9 1.9 0 0 0 0 .3c0 .2.1.1.2.1s.1.1.1.2a5.5 5.5 0 0 1 0 1.3 3.9 3.9 0 0 0 0 .4v.5l-.2.2V21v1.3c0 .3.1.6.1.6v.6c0-.1.1-.1.1 0a.3.3 0 0 1 0 .2v.3c0 .1-.1 0-.1-.2v-.3c-.1 0-.1 0-.2.3H.6s-.1.1 0 .3a4.8 4.8 0 0 1 0 1.2c0 .2 0 .3.1.3s.3-.4.4-.6H1a3.5 3.5 0 0 1 .1.7H1s-.1.1-.1.3v.4a1.4 1.4 0 0 1 0 .4c0-.2-.1-.2-.2-.5v-.2c0-.1-.1 0-.1.1a9.6 9.6 0 0 1-.1 1.3c.1.2.1-.1.2.1h.2l.2.2c.1-.3.1 0 .2 0v-.6.7c-.1.1-.1.2-.1.5s.1.8.2.7l.2-.2c.1 0 .1.2.1.4a5.9 5.9 0 0 0 0 .9c.1.1.1.1.2-.1s.1-.2.1-.1v.2a2.7 2.7 0 0 1 0 .3c-.1 0-.1.1-.2.4s-.1 0-.1-.1v-.7.3a3.2 3.2 0 0 1-.2.7 3.4 3.4 0 0 0 .3 1.3.9.9 0 0 1 0 .2v.5c0 .2 0 .5-.1.7a.7.7 0 0 0 .1.3h.1v.4a2.2 2.2 0 0 0-.1.5s.1.2.1.4c.1 0 .1.1.1.4v-.6 1.7c0 .3-.1-.6-.2-.6v.2c0-.2 0-.2-.1 0s0-.3.1-.3a1.6 1.6 0 0 0 0-.2H1a2 2 0 0 0-.1.9v-.3H1a4.9 4.9 0 0 1 .1.8v.3c0 .1-.1.1-.1-.1a2.2 2.2 0 0 0-.1-.8 1 1 0 0 0 0 .5 1.5 1.5 0 0 1 0 .4H.8a7.2 7.2 0 0 0 0-.8c-.1-.1-.2.1-.3 0a1.6 1.6 0 0 0 0 .3v.2a1.6 1.6 0 0 1 .1.4 2.6 2.6 0 0 1-.1.7 2.1 2.1 0 0 0 0 .4c0 .4 0 .5-.1.5v.8c0-.1.1-.2.1-.2s.2.3.3.3v.2s.1 0 .1.2v-.2.4c0 .6.1.8.1 1.4a4 4 0 0 0 .1-.6c0-.2.1-.3.1-.2a1.1 1.1 0 0 1 0 .5c-.1.4-.1.9-.2 1.2s0 .3 0 .4a6.2 6.2 0 0 1 .1 1.4c0 .1 0 .2.1.1v-.2.1c.1-.2.2-.1.3.2a1.5 1.5 0 0 1 0 .4c-.1.4-.2.6-.4.2a7.3 7.3 0 0 1 0 1.1c0 .4-.1.2-.2.4s-.1.2-.2.2-.1.1-.1.3h.1c-.1-.1-.1 0-.1.4V50a.7.7 0 0 1 0 .1v-.9c-.1-.1-.1-.2-.1-.6v-.7.2a1 1 0 0 0 0 .2 2.8 2.8 0 0 1-.2.7 1.3 1.3 0 0 0 0 .4v.2a1.2 1.2 0 0 1 0 .5v.6h.3v.3c0 .1.1.1.1-.1a5.7 5.7 0 0 1 0-.7l.2-.2c.1-.1.1 0 .2-.2V49a1.1 1.1 0 0 1 .1.4 4.8 4.8 0 0 1 .1 1.4v.4a2 2 0 0 1 0 .7v.3-.5c0-.1 0-.3-.1-.2s-.1.1-.2.4a4.4 4.4 0 0 0-.1.7 2.4 2.4 0 0 1-.1.5v.6a5.2 5.2 0 0 0 .2.8 2.3 2.3 0 0 1 .1.8v.7H1a3.5 3.5 0 0 0 0-1.1.8.8 0 0 1 0-.2h.1a10.9 10.9 0 0 0 .1 1.7 4.9 4.9 0 0 1 0 1.1 4.1 4.1 0 0 1-.1.6.5.5 0 0 1 0-.3 2.5 2.5 0 0 0-.2-1.2v-.2.1a1.2 1.2 0 0 0 0 .3v.2a1.4 1.4 0 0 1 .1.7c0 .2 0 .2-.1.2s0-.2 0-.3H.7v.9a2 2 0 0 1 0 .3H.6v-1.3.3a1.1 1.1 0 0 0-.1.6v.9a2.5 2.5 0 0 1-.2.7 2.4 2.4 0 0 0-.1 1.3 2.1 2.1 0 0 0 .2.8 1.4 1.4 0 0 1 .1.5v.4l.2.2v1a1.2 1.2 0 0 1 0 .3H.6v-.6c0-.1-.1 0-.1.1s-.1-.1-.1-.3a1.6 1.6 0 0 1 0-.4V63c-.1.2-.1 0-.2.1v1a.9.9 0 0 0 0 .4 1.3 1.3 0 0 0 .1.5 7.2 7.2 0 0 0 0 1 3.6 3.6 0 0 1 0 .6c-.1.6-.1 1.3-.1 2v.2a1.1 1.1 0 0 1 0 .5 8.9 8.9 0 0 0 0 1.1c0 .3.1.6.1.6h.2v-.4a.8.8 0 0 0-.1-.4c-.1-.2 0-.5-.1-.7v-.3a1.7 1.7 0 0 1 0-.3 3.6 3.6 0 0 1 .4 1.8v.4H1a10.5 10.5 0 0 0-.1-1V70a1 1 0 0 1 .1.6v1.5a.9.9 0 0 1-.1.4c-.1.2-.1.3-.2 1.1a1.4 1.4 0 0 1 0 .3c-.1.1-.1.5-.2.7s-.1.2-.2 0-.1-.1-.2-.2h.2a3.4 3.4 0 0 1 0 .6c0 .3 0 .4.1.4l.2-.2c.1.3.1.7.2 1.1a1.1 1.1 0 0 1 0 .3c-.1 0-.2.1-.3-.2H.3c-.1.1-.1.2-.2.2s-.1.3-.1.4v1.7c0 .5 0 .2.1.2a.6.6 0 0 0 0-.4v-.4h.1c.1.1.1.5.1.6h.1v-.6 1c0 .2.1.2.1.1s.1-.3.1-.2a.3.3 0 0 0 .5.1c.1 0 .1.2.1.5a1.3 1.3 0 0 0 .1.6v.3c0 .3-.1.3-.1.3v.8a1.6 1.6 0 0 0 .1.9.6.6 0 0 1 0 .3h-.2v.4a5.7 5.7 0 0 0 0 .6h.1c.1 0 .1.2.1.4a1.2 1.2 0 0 1 0 .6c0 .2 0 .3.1.3h.2a.8.8 0 0 1 .1.3 4.1 4.1 0 0 1 0 .5v.8h-.3c-.1-.1-.1-.1-.2.3s0 .4 0 .6-.1.7-.2.6 0-.9-.1-1.4a10.3 10.3 0 0 0-.1 1.5v1.6a3.4 3.4 0 0 1-.1.8c0-.2-.1 0-.2-.1v.3a1.1 1.1 0 0 0 0 .4c0 .1 0 .3.1.2V91c0-.1.1 0 .1.2v.8a5.5 5.5 0 0 1 0 .6c-.1-.2-.1-.2-.2.1v.3H.2v-.4.1a21.7 21.7 0 0 0 0 2.2c0 .4 0 .9.1 1.3a3.4 3.4 0 0 1 0 .9v1.2H4l1.1-.2v.2h1.4c-.2-.1-.3-.1-.1-.2l.2-.2h1.2c0-.2.2-.2 1.2-.2h1.1l.3-.2h1.5c-.3.1-.4.1-.3.2H9.3l-.7.2h6c.1.1-.1.1-.3.2h-3.1v.2h.8l1.1-.2h.6l.8.2.7.2h2.6l.2.3h2l1.9-.2h2.9c.3-.1-.1-.1-.1-.2v-.3l.3-.1h3.6l-.7.2h1.6c-.1.1.2.1.1.2h4c.1 0 .1-.1 0-.1h-.5l-.5-.2H34l1 .2h3.4l.5.2h4.4c0-.1-.1-.2 0-.3h.9l-.3.3h1.4l.3-.4h1.1v.2c0 .1-.1.2-.5.2s0 0 0 .1h1l.5-.2c.4-.1 0-.2.2-.3 0-.1 0-.1.3-.1h2.6c.4 0 .7 0 .6-.1h.1a4.4 4.4 0 0 0 1.4-.1h1.5c.2 0 .2.1-.1.2s-.1 0 0 0h.7c.2 0 .2.1 0 .1-.1 0-.1 0 0 0h.8l1.4.3h1.4c-.4-.1-.3-.2-.3-.2h.3c-.3.1-.1.3 0 .4h2.1l.6-.3h.1c.4 0 .7-.1.7-.2h.5c.2.1.3.1-.2.2l-.6.3h.9v-.1H65c.1 0 .1.1 0 .1h-1l-.5-.2c.1.1-.2.1-.3.2H65l1-.2c.1 0 .1 0-.1-.1h-.6c-.1 0 0-.1.2-.1H65c-.1 0-.1-.1 0-.1h3.7l.2-.2h-1.2l.6-.2H71c.1 0 .1.1 0 .1h-2.4v.1h.3l.2.2c.1 0-.1.1.2.1h1.1c.2 0 .2.1.1.1l-1 .2h2.3c.3-.1.4-.1.2-.2h3.9v-.2h2.8c.2-.1 0-.2.1-.2h.7c.1.1 0 .1-.2.1h1.3v.1h10a3.2 3.2 0 0 1 1.9 0h.6c.1-.1-.3-.1-.3-.2a3.5 3.5 0 0 0 1.1-.1h.4l-.4.2h-.1c0 .1-.1.1.1.2h1.4c.2-.1.6-.2.6-.4h.9c.5-.1.6-.2.7-.3a.1.1 0 0 0 0-.1l-.2-.2h-.2l-.4-.2h-.1c-.4 0-.5-.1-.3-.2h-.2l-.9-.2-.9-.2h-.6l-1.1-.2H66.1c-.3.1-.5.1-.3.2h-.1l-1.1-.2H53.3l-1.1-.2H48c-.1-.1-.5-.2-1.1-.2h-1.4l-.4.2h-.9l-.9.2h-1c-.1 0-.1 0 0 0s.3-.1.1-.1h-.9c-.3 0-.2.1-.1.2h-1l-.2-.2h-2.4c-1.7 0-1.9-.1-1.7.3h-1l-.2-.2H32v.2h-2.8c0 .1 0 .1-.4.2h-18c.1.2.1.2-.4.3h-.5c0-.1-.3-.3-.5-.4H4.5c-.5 0-.8-.1-.7-.2h-.6v.7a1.2 1.2 0 0 0 0 .4v.2l-1.6-2.1h1.6a4.4 4.4 0 0 0 0-1v-7.6a6.6 6.6 0 0 0-.1-.9c-.1 0-.1 0-.1-.4-.1-.4-.1-.8-.1-1.2a4.4 4.4 0 0 1 0-.7h.2a2 2 0 0 0 .1-.9c0-.3-.1-.5-.1-.8a1.3 1.3 0 0 1 0-.3h.1a.9.9 0 0 0 .1-.5v-1.6c0-.6 0-1.1-.1-1.5a2.1 2.1 0 0 1 0-.7 2.2 2.2 0 0 0 0-.6 9.6 9.6 0 0 1 0-1.4c0-.5-.1-.9 0-1.4v-1.6a11.6 11.6 0 0 0-.1-1.8 2.4 2.4 0 0 1 0-.9 4 4 0 0 0 .1-.7 9 9 0 0 0 0-1.5V67a2.7 2.7 0 0 0 0-.4 3.1 3.1 0 0 1 0-.8 5.7 5.7 0 0 1-.2 1c0-.2-.1-.4-.1-.6a12.8 12.8 0 0 1 0-1.5v-1.1c0-.1 0-.2.1-.1v.3a5.4 5.4 0 0 1 0 .6 5.5 5.5 0 0 0 .1.9v.8h.1a1.2 1.2 0 0 0 0-.3v-.3a1.4 1.4 0 0 1 0-.7 1.3 1.3 0 0 0 0-.3v-2c0-.4 0-.8.1-1.2s0-1.5 0-2.2v-.8a12.3 12.3 0 0 1 0-1.4 8.7 8.7 0 0 0 0-1.5 3.3 3.3 0 0 1 0-.5V54a1.8 1.8 0 0 0-.1-.6 1.8 1.8 0 0 1 0-.9v-3.2a9.9 9.9 0 0 0 0-1.1 1 1 0 0 0-.1-.4 5.4 5.4 0 0 0 .1-1.1v-1.9a5.6 5.6 0 0 0 0-1.2c0-.5 0-1.2-.1-1.7a9.7 9.7 0 0 0-.1-1.2v-.4a.8.8 0 0 1 0-.4c.1 0 .2 0 .3-.5V36.6a1.4 1.4 0 0 0 0-.4c-.1-.3-.1-.5-.2-.4H3v-.4a1.1 1.1 0 0 0 .1-.6v-.6a2.2 2.2 0 0 0 0-.7 3.7 3.7 0 0 1-.1-1.4 1.7 1.7 0 0 0-.1-.9v-.4a2.5 2.5 0 0 0 .2-1.1V27h.2c0-.4 0-.8-.2-.9s-.1-.3-.1-.4v-1.9a3.9 3.9 0 0 1 .1-.8h.1v.4a1.5 1.5 0 0 0 .1-.9v-.9c0-.3-.1-.5-.1-.8a2.5 2.5 0 0 1 0-.8c0-.4 0-.9-.1-1.3 0-.5 0-.6.1-.6s.1-.1.1-.3v-1.1c0 .3 0 .7-.1.5a2.4 2.4 0 0 1 0-.6c0-.2 0-.2.1-.1a2.4 2.4 0 0 0 .2-.9V14.4a5.4 5.4 0 0 1 0-.9 1.2 1.2 0 0 1 0-.7 2.2 2.2 0 0 0 0-.6c0-.6-.1-1.6-.1-2.4V8a2.4 2.4 0 0 0-.1-.7v-.2a1.8 1.8 0 0 1 0-.7v-.2A2.7 2.7 0 0 0 3.4 5a2.9 2.9 0 0 1-.1-.4V2.9H1.6l1.9-1.8a4 4 0 0 1 0 .7A7.8 7.8 0 0 0 3.3 3h11.4a7.4 7.4 0 0 1 1.4-.1h1.8c.3 0 .2.1.2.1h41l2.2-.2h9.9l1 .2h20.1a5.2 5.2 0 0 0 2 .3h1.9V2a8.8 8.8 0 0 0 0-.9l1.5 1.5h-1.6a7.6 7.6 0 0 1 0 1V7a32.4 32.4 0 0 0 0 3.3v7.6a16.6 16.6 0 0 1 .1 2.2v14.1a7.7 7.7 0 0 0 0 .8 11.1 11.1 0 0 1 .1 1.8v.5a6.2 6.2 0 0 1 0 1.2 13.7 13.7 0 0 0-.1 2.2v10.8c0 .3 0 .4.1.5a1.7 1.7 0 0 1 0 .8v.2a2.2 2.2 0 0 0-.1.9v5.2c0 .2 0 1.6.1 2.4v4.6c0 .3.1 2.3 0 3.5s0 .3 0 .5c.1 2.3.1 4.6.1 7v3a9.5 9.5 0 0 0 0 1.5v.4a4 4 0 0 1 0 .9 13.4 13.4 0 0 0-.2 2.2v6.1a7 7 0 0 0 0 .9l.2 2.2a1.7 1.7 0 0 0 .1.4 4.3 4.3 0 0 1 .2 1 4.2 4.2 0 0 0 .3 1.1h.1a.8.8 0 0 0 .1-.3v-1.9c0-.4 0-1.7.1-2.5s0-1.2.1-1.7v-1c0-.7.1-1.3.1-2v-2.5a9.3 9.3 0 0 0 0-1.2 9.5 9.5 0 0 1 0-1.1 3.2 3.2 0 0 1 .1-.7 4 4 0 0 0 .1-1.2c0-.4 0-.8-.1-1.2a6.8 6.8 0 0 1 0-.9V77c0-.4.1-.7.1-1.1V75c0-.3 0-.6-.1-.6v-.2a12.3 12.3 0 0 0-.1-1.9 6.1 6.1 0 0 1 0-1.1c0-.9.1-1.7.2-2.5a4.5 4.5 0 0 0 .1-1c0-.5 0-.9.1-1.4a8.8 8.8 0 0 0 0-2V64a6.9 6.9 0 0 1 0-1.2 9.4 9.4 0 0 0 0-2.1 7 7 0 0 1 .1-1.9c0-.3 0-.7-.1-.6s-.1 0-.1-.2v-.4a6 6 0 0 1 0-1.1 11.3 11.3 0 0 0 .1-1.5c0-.2 0-.4-.1-.3s-.2.3-.3 0-.1-.5-.2-.5a2.4 2.4 0 0 1 .1-1.1h.1c.1.1.1.1.2-.2v-3c0-.6 0-.6.1-.9s0-.4 0-.6a1 1 0 0 0-.1-.3c-.1 0-.2-.4-.2-.7a4.7 4.7 0 0 1-.1-.9v-3a4.9 4.9 0 0 1 .1-1.1 2.9 2.9 0 0 0 0-.7 1.5 1.5 0 0 1 .1-.6 1.7 1.7 0 0 0 .1-.7 13.9 13.9 0 0 1 0-1.4 5.1 5.1 0 0 0 0-1.1 11.3 11.3 0 0 1-.1-2v-1.6a5 5 0 0 0-.1-1 1.8 1.8 0 0 1 0-.9 6.9 6.9 0 0 0 .1-.7v-2.1c0-.2.1-.3.1-.3v-.6a6.6 6.6 0 0 0 0-1.2 3.2 3.2 0 0 0-.1-.7 2 2 0 0 1-.1-.7v-1.3c0-.2-.1-.4-.1-.3h-.1s-.1-.1-.1-.3v-.8c0-.3.1-.2.1-.3s.1-.1.1-.3v-.6a2.2 2.2 0 0 0 0-.9h-.1a1.8 1.8 0 0 1-.1-.6 2 2 0 0 1 .1-.7v-.5a4.4 4.4 0 0 0 0-1.1c-.1-.3-.1-.8-.2-1.1a3 3 0 0 1 0-1.1 1.7 1.7 0 0 0 .1-.5 5.1 5.1 0 0 1 .1-.9 4.2 4.2 0 0 0 0-1 24.1 24.1 0 0 1 0-2.7V9.3s-.1.2-.1.4v-.5a10.5 10.5 0 0 0 .1-1.3c0-.2.1-.3.1-.2a2.1 2.1 0 0 0 .2-1 3.9 3.9 0 0 1 .1-.8 2.4 2.4 0 0 0 .1-.5V2.7c0-.6.4-.4.3-.5zM35.8.4zm-4.5.4zM30 .6zm.1.2zm-29 7.7H1a.4.4 0 0 1 0-.2c0-.2 0-.2.1 0a1.3 1.3 0 0 1 0 .2zM1 39.3c0-.1 0-.1 0 0zm.1 1c-.1-.1-.1-.5-.2-.3s.1-.3.2-.3.1.2.1.4zm-.2 8.5H.8c0 .1 0 .2-.1.1a3.3 3.3 0 0 1 0-.4h.1v.3-.2.2zM.3 68.1zm0-1V67zm0 3.3zM.5 65a.8.8 0 0 1 0-.1c.1.2.1.2 0 .1zM.2 77.7a.6.6 0 0 1 0-.3.6.6 0 0 1 0 .3zM.5 95a1 1 0 0 1-.1-.5 1.2 1.2 0 0 1 0-.4c0-.1.1-.2.1-.1a1.9 1.9 0 0 1 0 .4 3.2 3.2 0 0 1 0 .4zm.1 1.9v-.2a1.7 1.7 0 0 1 0-.3v-.2.4zm88.6 1.5zm0-.8zm-.1.1zm-2 .6zm-.8-.3zm-.1.3zm-.5-.3v.1h-.3c-.1 0-.1-.1.1-.1zm-.4-.2zm-3.9.1zm1.9.2h.1c.1 0 .1 0 0 0h-.1zm-.1-.3h-.3c-.4 0-.6-.1-.5-.2h.8zm-.9-.3zm-.3-.6zm-.5.2zm-1.3.4zm-.1-1.3zm-.6-.3zm-.5.2zm-1.3 1.6zm-1.5-.9zm-2.8.7h.7c.1-.1-.3-.1-.4-.1h2l-.2-.2h1.4l-.6.2H76c.2 0 .1.1 0 .1h-.3c-.5 0-.5.1-.5.2h-1.6zm-.3-.4zm-.7.2h.6c.1 0 .1 0 0 0h-.4c0 .1.1.1-.1.1h.2zM71.3 96zm-.4.6zm1.1.2c.2.1.3.1.1.2h-.5c-.1 0 0 .1-.2.1h-.5c-.8 0-.9 0-1-.2zm-3.4 0zm-1.1.2h2v.1h-.6c-.3 0-.5-.1-.5-.2h-.9zm-3.6.9zm.7-.7h.2V97h1.1l-.2.4h-1.9v-.1h.9zm-1.6-.8zm-2.8 1.8zm2.2-.3zm-.2-.2h-.4c-.3 0-.4.1-.2.2h-.8c-.4 0-.4-.1-.4-.2s-.3-.1-.3-.1.3-.2.8-.2zm-1.1-.8zm-1.9.4zm-2-.8v-.1zm-.4.8zm-.2.5h-.1c-.2-.1-.2-.1.1-.1zm-.5-.1zm-.3-1c-.2-.1-.2-.2-.1-.2zm0 .6zm-.4-.9zm-1.4.2c.4-.1.3-.1.4-.2.4.1.6.2.6.3s.2.2 0 .2l-1-.2c-.2-.2-.2-.3 0-.3zm.1.7h.6c-.1 0-.1-.1.1-.1h-.7zm-2.2.4zm.4-.9zm-.8.7zm-1 .4zm-1.7-1.5h.8l.3.2h-1c-.2 0-.1 0 0 0zm-9.1 1.9h-.1c.1 0 .1.1 0 .1h.1zm2 .2zm.1-.5zm2.1.4zm1.6-.1h-.6l-.3-.2h.9zm2 .4zm-1-1.2zm.5.3h-.5l-.3-.2zm-1.1-.8zm-1.9.2l-.1-.3zm-.4.2l-.1-.2zm-1-.8h-.1c-.2-.2-.1-.3 0-.3zm-.5-.2zm-2 .6zm-.1.4c.2 0 .3-.1.2-.1H40zm-.6-.2zm-1.1.5h5.4a4.1 4.1 0 0 1 1.7.1h-.3c.1.1 0 .1-.4.2h-1.4c-.3 0-.2-.1-.3-.2h1c-.2-.1-.3-.1.1-.2h-6c0-.1 0-.2-.3-.3zm-.7-.3zm-2.9-.8zm-.3-.2c-.1-.2-.1-.2 0-.2zm-.1.3c-.1-.2-.1-.2 0-.2zm-2.9.7h-.3c-.1 0 0-.1.1-.1h.2zm.5.9zm1.1-.7h-.2v-.1h-.4v-.1h.4c.2 0 .1.1 0 .1.1 0 0 .1 0 .1h.2zm-.2-.9zm.2.3zm-2.3-.7h1.6l-.5.2h-1.1l-.3-.2-.5-.2zm-1 .5zm-.3-.7zm-.1 1.2zm-2.5.4h-.1.1zm.8-.5c.1 0 0-.1 0-.1zM26 96.1h.2c.2-.1-.2-.1-.2-.2l-.2-.2zm-.6 1.6zm-3 1.1h-1l.5-.2h.5c.5-.2.5-.2 0-.1zm.6-.2zm.7-1.5zm-.7-.5zm-.4 1.5h.8l-.6-.2v-.1h1l-.3.2c.1 0 .2.1.1.1h-.9zm-1.3-2h.7c.3 0 .4.1.3.2h-.6c-.4-.1-.7-.2-.7-.3zm-.5.9l.4-.2H21c-.1 0-.1-.1.1-.1h.2c.5 0 .5 0 .2-.1h1.1a4.1 4.1 0 0 1-1.3.2c.3.1.2.2.1.3h-.5zm-1.1 1.6h-.5c-.2 0 0-.1 0-.1h.4zm.5.1zm-1-1.6h-.1zm-.4.2zm1.4.4h-.8l-.7-.2a3.3 3.3 0 0 1 1.4.2zm-3.2.4h-.8V98h.4c.3-.1.5-.1.5-.2h.1c.2.1.1.2.3.3s-.2 0-.6 0zm1.1-1h-1.2l.2-.4h1zM16 95.8zm-.2.6h.1c-.4.1-.3 0-.2 0zm.2.2zm-.6.3zm-3.2.8zm1.6-.1zm-1.8-.9zm-.3.3zm-.9.3zm-2.3.1zm-.1-.7h.4l.4.2H8.1v-.2zm-2.3.4h-.2zM4.9 96zm-3.6-4.7c0-.1.1.2.1.4s-.1.5-.1.4-.1-.1-.2-.2a1.2 1.2 0 0 0 .2-.6zm0 5.1h.1a1.1 1.1 0 0 1-.1.5zm-.1-2a1.5 1.5 0 0 1 0-.2V94v.1a.9.9 0 0 1 0 .1c0 .1-.1.2-.1.2zM1 89.8l.2-.2c0-.1.1.4.1.7v.2h-.2c-.1 0-.1-.1-.1-.4a1.4 1.4 0 0 1 0-.3zm-.2 5.1v-.1zm0-3.8zM2.9 97zm-.4-.2zm-.6.7h.4l-.7-.2h-.4l-.5-.2v-.4c0-.1.1 0 .1.1v.5h.6zm-.3-5.9zm1.5-16c-.1.3-.1.8-.1 1.2v-.2a1.7 1.7 0 0 1 0-.5v-.8s.1.2.1.3zM3 71.4zm0 2.8v.5c-.1.1-.1-.1-.1-.4a1.5 1.5 0 0 1 .1-.1zm0-61.3zm0 19.4v.6zm-1.7-16c.1.2.1-.2.2-.4h.1c0 .3.1.3.1.3s.1.2.1.6-.1.4-.1.3V17c-.1-.3-.1-.3-.2.2s-.1.1-.1 0v-.7c-.1-.1-.1-.2-.1-.1zm0 1.3h.1a1.3 1.3 0 0 1 0 .3 1.7 1.7 0 0 1 0-.4zm-.2 2.5c0 .1 0 .1-.1 0s0-.2 0-.3 0-.2.1-.1a1.5 1.5 0 0 1 0 .5zm0-1.5v.1-.2.2zm0-2.8v-.6zm0-3.5v.8a.8.8 0 0 1 0-.1v-.7a.7.7 0 0 1 0-.1v.2zm.2 12.6c0 .2-.1.2-.1.2 0-.2.1-.4.1-.4a.5.5 0 0 1 0 .3zm.1 1.2v-.5.5zm.4 3.2s-.1 0-.1-.2v-.2h.1v.2a.6.6 0 0 1 0 .1zm0-2.4v-.6a1.2 1.2 0 0 1 0-.2v.9zm.1-2.9a.7.7 0 0 1 0-.3h-.2v-.2h.2v.1zm-.1 10.6zm.1 13.1H2a1.9 1.9 0 0 1 0 .3v.1a.5.5 0 0 1 0-.2zm.1 2.9v-.2zm0-5.7h-.1a1.1 1.1 0 0 1 0-.4H2v.3c.1 0 .1.1 0 .1zm-.1 11.4c-.1.4-.1.4-.2.1V55v.6c0 .3 0 .3.1.3s0 .2 0 .3zm0 4.3zm-.1-15.8h-.1a1.7 1.7 0 0 1 0-.7v.5a.7.7 0 0 1 .1.2zm-.1-10c0-.1 0-.1 0 0zM1.4 40zm.1 3.5c0 .1-.1.2-.1.1a2.4 2.4 0 0 1-.1-.7v-1.4h.1a.9.9 0 0 1 .1.5v1.6s.1-.1.1 0zm0 6.2s.1 0 .1.1zm0 1v.4-.4a2.8 2.8 0 0 1 .1-.7c0-.2.1-.1.1 0v1.1a2.2 2.2 0 0 1 0 .2v-.2h-.1v.3h-.1a2 2 0 0 1 0-.6s0-.1.1 0zm0 4.8zm-.1-1a1 1 0 0 1 0-.1s.1.1.1.3v.3h.1zm.2 4.5v.2zm-.2-.1v.2zm0 3.4zm0-12.7zm-.1-1.7a2.5 2.5 0 0 1 .1-.7v.6c0 .2 0 .2-.1.1zm0 25.7h.1c.1 0 .1.2.1.7v.1-.4a3.6 3.6 0 0 1 0-.4.4.4 0 0 1 0-.3v-.2.4zm-.1-8.8a.8.8 0 0 1 0 .4v.2a1.2 1.2 0 0 1 0-.4zM1.1 58zm0 2v-.2s.1 0 .1.2a2.2 2.2 0 0 1 0 .6v.2s-.1-.1-.1-.2a4 4 0 0 1 0-.6zm-.3 1.3v-.7a4.4 4.4 0 0 0 0 1v.7a11.6 11.6 0 0 1-.1-1.5c0-.1 0-.2.1-.2 0 .1 0 .1 0 0a1.8 1.8 0 0 1 .1-.6 4.3 4.3 0 0 1 .1 1c-.1.3-.1.4-.2.3zm.1 5.9V67zm.2-4.5V61.8v.4a1.8 1.8 0 0 1 0 .3c.1.1 0 .2 0 .1zm.3 14.2h-.1c-.1 0-.1.1-.1.4v-.4L1 76a3 3 0 0 1-.1-.6c0-.4-.1-.4-.1-.4v-.7H1v.4a1.8 1.8 0 0 1 0 .6v.2a1.7 1.7 0 0 0 0 .8v.2h.2v.2zm0 5.9v-.3a1.5 1.5 0 0 1 .1.2zm0-7.4V75v.1zm-.1-8.8a2.4 2.4 0 0 1 .1-1.2 2.1 2.1 0 0 0 .2-1c0-.5 0-.6.1-.7s.1.2.1.7v2.2c0 .5 0 .6-.1.7h-.2zm.2 17.2v-.1h.1zm0-7.8h.1v-1.1a5.1 5.1 0 0 1 0 1zm0-6.2zm.1 12.1v.5a2 2 0 0 1 0-.4v-.9.8zm.1-3.6v-.8a.5.5 0 0 0 0-.2 1 1 0 0 1 .1-.6v-.5c-.1 0-.1-.1-.1-.3a2.9 2.9 0 0 1 0-.3v-.2a3.7 3.7 0 0 1 .1.7h.1v.4h-.1c0 .6 0 .7-.1.7a3.2 3.2 0 0 1 0 .5v.4zm0-8zm.1-1.3H2s.1.1.1.4H2a1.1 1.1 0 0 1-.1-.5zM2 93.3a1.5 1.5 0 0 1 0-.7 3.6 3.6 0 0 1 0 .4 3.1 3.1 0 0 1 0 .3zm0-1.5v-1.7a12.5 12.5 0 0 1 .1 1.6zM2.1 78a1.9 1.9 0 0 1 0-.3h.1zm.1-5.8h.1zm.2 17.9v-.2a2 2 0 0 1 0-.3h.1v.4zm-.1-4.9v-.6a.5.5 0 0 1 0 .2c.2.3.2.4.1.4zm.4-4.2zm0-3.3c0 .3 0 .3-.1.4h.1zm.1-12.5v.2h-.2v-.8a3 3 0 0 1 0-.6h.2c.1 0 .1 0 .1.4s-.1.5-.1.7zm.2-4.5v-.3.3zm.2-3v-.2.2s-.1.1-.1 0zm-.2-17zm0 17a.7.7 0 0 1 0 .3v.8l.2.3v.5c0 .2-.1.4-.1.1H3V58c-.1-.2 0-.4 0-.4zm0 1.8zm-.1-46v.2-.2zm0 3.6V17zm0 38.1zm0 32zm-.1-84h.1v.3c0-.2-.2-.3-.1-.3zm-.1 23.5h.1c.1 0 .1.1.1.5v-.1a.4.4 0 0 1-.2-.4zm0 24.8v.6h-.2a1.1 1.1 0 0 1 0-.2v-.4zM2.5 9.9zm0 16.8a1.5 1.5 0 0 1 0 .2v.2a.9.9 0 0 1 0-.1v-.3zm-.1-13.1zm0 47.6c0-.1.1 0 .1.2s.1.5.1.9v.6c0 .2 0 .3-.1.4s-.1-.1-.1-.3v-.3a1.7 1.7 0 0 0-.1-.7v-.3a1 1 0 0 1 0-.4zm0-40.1c0 .1 0 .1 0 0zm0 42.4v-.4h-.2c-.1 0-.1 0-.1.3a1.7 1.7 0 0 0 0 .7v.2a3 3 0 0 1 .1.8v.3c0 .4-.1.5-.1.5s-.1.1-.1.3a.7.7 0 0 0 .1.3h.1a.8.8 0 0 1 0 .1c-.1.3-.1.4-.2.4v-1.2a19.6 19.6 0 0 0 0-2.5h-.2a.7.7 0 0 1 0-.3v-1.1a.7.7 0 0 1 0-.1h.1v.7c.1.3.1.2.2 0s.1 0 .1.2a4.6 4.6 0 0 0 0 .7v.2a.4.4 0 0 1 .2-.1zm-.3-15.6zm.2-32.3v.3-.2a1.3 1.3 0 0 1 0-.4v.3zm0-6.2zm0 49.8zm0 2.3zM2.1 7.8c.1-.1.1 0 .2.3v.4c0 .1-.1-.1-.1-.3zm0 3.1zM2 34.7c0 .1 0 .2-.1.1 0-.1.1-.2.1-.1zm0-21v.1zm0 25.1v.6-.4zM2 6.1c0 .2 0 .3-.1.3zm-.1 11.4zm0 24.1a3.1 3.1 0 0 0 .2.7.4.4 0 0 1 0-.2v.1a2 2 0 0 1 0 .3l-.2.2v-.2a1 1 0 0 1 0-.4v-.6zm0-20a4.3 4.3 0 0 1-.1.7c-.1.5-.2.7-.3.6a1.1 1.1 0 0 1 0-.5v-.3c0-.4-.1-.8-.1-1.2l-.2-.9c0-.2.1-.2.2-.1h.1c.1-.1.1 0 .1.4a2.4 2.4 0 0 1 .1.6v.3a.7.7 0 0 1 .2.4zM1.8 15a1.7 1.7 0 0 1 0 .3c-.1.3-.1.3-.2.3a.7.7 0 0 1-.1-.3c0-.4 0-.6.1-.5l.2.2zm-.1-1.6a2.3 2.3 0 0 1 0 .2c0 .2 0 .2-.1.2s0 0 0-.1zm-.1-4.6a1.2 1.2 0 0 1 0 .5c0 .1 0 .1-.1-.1-.1-.4-.1-.9-.1-1.4h.1a1.8 1.8 0 0 1 0 .3V9v-.2zm0-4.3c-.1-.1 0-.1 0 0zm0-3.9zm1.3 1h-.1a.6.6 0 0 1 0-.1h.1v.2zM7.2.8zM5.3 2.3zm1.2-.2H4.1c-.2 0-.2 0-.1-.1h1.8l.7.2zm1.2-.8l-.5.2h-.5l-1.2-.3h2.2c.2-.1.3 0 0 .1zm2.1-.1zm-1.4.1h.5c.1 0 .1 0 0 .1h-.5zm.5 1.1zm1.5-.7H10l.7.2zm1.3 1zm3.6-1.4zm2.6-.3zm1 1.6zM23.8.8h-.6.6zm-.9.7zm.9 1.2h-2.2c-.1-.1 0-.2.1-.3h2c-.1 0-.2.1 0 .1h.3c.6 0 .6 0 .7.2zm3.1-.5h.3c.1-.2-.3-.2-.3-.1zm.1-.6c.1 0 .1 0 0 0 .1 0 .1.1-.1.1h.1zm1-.1h-1.7c-.3 0-.2-.1 0-.1h.8c.1 0 .1.1.1.1h.8zm.5-.4c-.1.1-.2.1.1.2h-.1zm2.2.9zm-1.6-.3zm1.6.5zm3.2 0h-.8c-.1-.1.2-.2.5-.2zM36 1zm.7.4l.2.2zm.8-.5zm.5.7zm1-.2h-.5c-.2 0-.3 0-.1-.1h.3l.3.2s0-.1 0 0zm0-.6h-.5V.7h.5zm2.1.1V.8h.9c.1.2-.1.2-.7.3zm1.5.3zm3 .1zm.9-.1zm2.9 1zm5.1-.5h-1c-.1 0-.1 0 0-.1h1l.2.2zm1.9.3h.6c.1-.1 0 0-.5 0zm1.6-.6zm3.1.3zm2.4-.5zm-.4.5c-.1 0 0-.1.2-.1h-.2zm2.3.2zm1 .3zm1.7-.4c-.1 0-.1 0 0 0zm.1-.2h-1.8c-.5 0-.5-.1-.2-.1s.3-.1.1-.1-.1 0 0-.1h2.1v.2zm1.2 0zm1.4-.1zm.2-.3zm1.2.3zm1.9-.2zm4 .5zm.9.9zm4.7-1h-1c.1 0 .2.1 0 .1h1.2zm2-.9zm7.1.3h-.1c.2-.1.2 0 .1 0zm1.3 0h.2c.2-.1.1 0-.2 0zm3.2 42.2h-.1a1.7 1.7 0 0 1 .1-.8 3.2 3.2 0 0 1 0 .8zm.2-2.3zm-.1-6.6h.1a2.6 2.6 0 0 1 0 .7h-.1v-.4zm0-25.7zm.4-5.2v.3c0-.6 0-.8.1-.9h.1a4 4 0 0 1 0 .4 2.6 2.6 0 0 1-.2.2zM.8 41.4v-.1.1zm0 53.4zm0-86.3zm81.9 89.8zM3.1 31zm23.6 66.3zM5.4 2.3zm4.5-1zM5.4.6zm5.8 97.5zm-8.5-2.3zM.5 12.4zm.2 25.2zm68 60.3h-.1.1zM2 13.6zm59.2 84.8zm22.3-.2zM2 13.6zM9.9 1.3zm-9.4 11zm1.4 65.8zM51.1.3zM1.2 31.6zM53.3 99z"></path><path fill-rule="evenodd" d="M54 97.9v-.1h-.6l-.9.2h.8c.2.1.1.1-.1.1l-.5.2c-.1.1.3.1.4.2h.7c-.3-.1.1-.1 0-.2s.1-.2.3-.2h.3l-.5-.2c0 .2-.2.1.1 0zm-1.5.2zM.4 84.6c.1.2.1.2.1-.3v-.2 1.5a1.3 1.3 0 0 0 .4-.6c0-.3.1-.2.1-.5v-.2c-.1 0-.2-.1-.2-.7a3 3 0 0 0 0-.4 2.7 2.7 0 0 1 0-.8.5.5 0 0 0 0-.2v.8a1.6 1.6 0 0 1-.2.8v.8zm0-.2zm-.2.7v.3-.2a6.8 6.8 0 0 1 .1-.8 1.5 1.5 0 0 1 0-.6v-.4a2.1 2.1 0 0 0 0-.3 2.6 2.6 0 0 1-.1-.9c0-.1-.1-.2-.1 0v.7A1.9 1.9 0 0 1 0 84v.4a2.1 2.1 0 0 0 0 .6v.6a1 1 0 0 1 0-.4c.2-.4.2-.4.2-.1zm.1-53.3zm.2-2.6a2.5 2.5 0 0 1 0 .4 1.3 1.3 0 0 0 0 .4 3.6 3.6 0 0 1 0 .9c0 .2-.1.3-.1.3H.3a4.6 4.6 0 0 0 0 .6s.1.1.1.2v.2h.2V31c0-.4 0-.8.1-1.2a3.2 3.2 0 0 0 0-.7.6.6 0 0 1 0-.3 1.4 1.4 0 0 0 0-.5v-.5c-.1.5-.2.9-.2 1.4z"></path><path fill-rule="evenodd" d="M.4 32.2a2.5 2.5 0 0 1 0 .3v.5h.1a1.4 1.4 0 0 0 0-.4V32zm51.2 66.3h-.5c-.7 0-.7.2-.7.3h1.3c-.3-.1-.4-.2-.1-.3zm11.8.2h-1l.4.2h1c-.1 0 0 .1.2.1h1zm3.1-.3c-.3.1-.5.2-.4.3H66c-.1.1 0 .1.5.1h.6c.1-.1.1-.1-.1-.2l-.5-.3zM1.2 31.6zm-.1-1v.3a1.6 1.6 0 0 1-.1.8 1.9 1.9 0 0 0-.1.7 1.6 1.6 0 0 0 0 .3c0 .1.1.1.1 0v-.4c0-.3.1-.4.1-.4v-.2c.1-.8.1-.8 0-1.1zM.7 8.5v.4c0 .2 0 .2-.1-.1s0-.2-.1-.1V9a1.5 1.5 0 0 0 .1.5c.1.2.2.3.2-.1v-.9c-.1-.2-.1-.2-.1 0zm0 .9zm.1-.9zm3.5 90zM18.9.6zm.2-.1zM66.8.4h1.8-1.8zM.3 72.1zm0 .1V72a7.6 7.6 0 0 0 0 1v1.4a8.3 8.3 0 0 1 .1-1z"></path><circle cx=".2" cy="74.5" transform="rotate(-19 .1 74.656)"></circle><path fill-rule="evenodd" d="M2.3.3zm52.4.3c.1 0 .2-.1-.1-.1h-1.3c-.1 0-.1.1 0 .1h1.3zM.6 45.3c.1.1.1-.1.1-.4h.1c.1 0 .1-.2.1-.4V44s-.1.1-.1.3a1 1 0 0 1 0 .3v-.3c0-.1-.1 0-.2.3H.4c0 .3 0 .6.1.6zm.1 9.6v-.3c-.1-.2-.2 0-.2.4a1 1 0 0 0 .1.6 6.1 6.1 0 0 0 .1-.7zM1 34.1c0 .1 0 .1.1 0v-.3c.1.2.1.2.1 0v-.6a1.8 1.8 0 0 0 0-.3l-.2.4a1.5 1.5 0 0 1 0 .5 1.7 1.7 0 0 0 0 .3zm-.7 8.3zm0 1.4zm0-.2a1 1 0 0 0 0-.7.9.9 0 0 1 0-.4s-.1 0-.1.2v.6a.8.8 0 0 0 .1.5zm28 54.5l.7.2h.4l-.8-.2zm39.2.3h-1l.9.2h.1zm30.3-72.9c0 .3.1.4.1.3a1.5 1.5 0 0 0 .1-.7c0-.3-.1-.3-.1-.4v.2c-.1.2-.1.4-.1.6zM.5 86.3c0-.1 0-.1-.1 0a3.7 3.7 0 0 0 0 1.1h.1a3.4 3.4 0 0 0 0-1.1zm68.4 12h-.3c-.4 0-.5 0-.4.1h.7zm.6.1zM.2 55.3v-.9s-.1 0-.1.2a2.7 2.7 0 0 0 0 .7zm.2-19.5v-.1c-.1.1-.1.1-.2.4a1.2 1.2 0 0 0 0 .1c.1.1.2 0 .2-.4zm.4 1.9zm0-.5a1.8 1.8 0 0 0 0-.4c0-.2 0-.3-.1-.2s-.1.1-.1-.1a11 11 0 0 0 .1 1.1zM70.7.5zm.1.2h.4c.1 0 .1-.1.1-.1h-.5zM58.1.7c.2 0 .3-.1.1-.1h-.1zM47 .5zm8.5 98.4zM1 85.9a.9.9 0 0 0 0 .4c0 .2.1.4.1.4V86zM70.7.5zm0 0zM.7 5.9v-.3c0-.2 0-.3-.1-.4S.5 5.4.5 5v.4c.1.3.1.5.2.5z"></path><circle cx=".6" cy="5.1" transform="rotate(-8.1 .717 5.248)"></circle><path fill-rule="evenodd" d="M90.6.5zM4.7.2h-.3v.2h.3zm-4.5 59h.1V59H.2a1.3 1.3 0 0 0 0 .2zm.3 29.3v.2a2.2 2.2 0 0 0 0 .3h.1a1.9 1.9 0 0 0 0-.3c0-.3-.1-.3-.1-.2zM97.8 16h.1v-.7a4.9 4.9 0 0 0-.1.7zM55 .6zm-.2 0h-.1.1zM82.3.5zM.9 3v-.3.2a1.7 1.7 0 0 0 0 .2V3zM52.2.3zm-1.1 0zm1.4 97.8zm.2-.2h-.4c.1.1.2.1.2.2h.2zM.7 42.5v-.3.3zM36.2 98zM.4 13.9v.1a2 2 0 0 0 0 .5c0-.1 0-.2.1-.3zm0 .6zM.3 43.8zm.1.7a3.3 3.3 0 0 0-.1-.7c0 .4 0 .5.1.7zm0 0zM.3 56.3s.1-.2.1-.3 0-.3-.1-.2v.2c-.1.1-.1.3 0 .3zm74.4 42.1zm.5 0zm-63.4.1zM0 93.8zm40.3 4.8h.3c.1 0 .1 0 0-.1zm8.2.2zm.2.1zM.9 45.9v-.1.1zM41 .3zM7.2.4h.1-.1zM1.1 32.8v-.2.6zM.6 3.1a.8.8 0 0 0 0-.1v-.3.4zm0 68.3a.8.8 0 0 0 0-.1v.2c-.1 0 0 0 0-.1zm33.8 26.8h.1-.1.1-.1zm.4 0zm20.9.1zM.3 80.7v.2zm9.1 17.7c-.1 0-.3 0-.2.1h.2zm23.7.4zm27.8.1zm-8.3 0zm.7.1zm-50-80.8h-.1v.2c.1 0 .1-.1.1-.2zm0 6.1zm-.1.1zm-.1 61c-.1-.3-.1-.3-.1 0v.3-.3zm0 0v.6a1.7 1.7 0 0 0 0-.6zm0 .6zM97.9 9.9zM1.2 84.2a.4.4 0 0 0 0 .3v-.3zM60.7.6zM76.5.5zM48.1.5H48h.1zm.2 0h-.2l.2.1V.5zM.9 30.4v-.1.1zm0-1zM46.1.4zM6.8.2zm-.1 0zm0-.1zM.6 15.6v-.2a1.9 1.9 0 0 0 0 .2zm.1-.3zM4.6.1zM.5 14.2zm0 .3v.1zm.1 2zm8.9 81.6zM21.9 0zm-.1 0zM.5 14.6zm-.1.2h.1v-.2H.4zm.1 75.4v-.8a2.7 2.7 0 0 0 0 .8zm-.1-.8zm25.4 8.8zm51.6 0zM.4 42.1H.3a.8.8 0 0 0 0 .3zm-.1.3zm.1 47a.6.6 0 0 0 0 .1v-.1zm9.7 8.9zM.3 31.9v.2-.2zm38.5 66.5zm.3-.1H39v.1l.1-.1zM.3 72zm-.1-.3v.3c.1-.1.1-.2 0-.3zm0 19.9zm0-34.3v-.1zM0 97zm17.1 1.7zm17.2.1zm26.4 0zm-6.1.2zM3.3 23.2zm0 .2v-.2zM1.2 58l-.1-.3v.3h.1zM5.5.6zm-.2 0h.1-.1zm-.4 0zm56 0zM28.6 97.7h.1-.1zM.9 50.8v-.1.1zM.8 5.7zm0 .1zm0 51.5zm0 0zM.7 9.4zm.1.2v-.1.1zm25.1 88.3h-.1.1zm42.8 0h.3-.3zm.3 0zm-.4 0h.1-.1zM24 .2h-.1.1zM.7 15.1v.1a.7.7 0 0 0 0-.1zm-.1-4.2zm.1 25.6zm0 .1zm0 17.2zm-.1 29h.1l-.1-.1v.1zm10.7 15.3zm-.5-.1zM.6 5.1v.1zm-.1.1zm0 .1zm0 0c0 .1 0 .1 0 0zm0 7zm0 0zm0 0zm0 12.1v-.2.2zm10.1 73.8zm42-.1zM.4 76c0-.1 0-.2 0 0zM.3 30.7v-.1.3a1.2 1.2 0 0 0 0 .3v-.5zM.3 41zm.1.2a.2.2 0 0 0 0-.1zm93.5 57.1zM.3 31.2zm0 23.2zM.2 85.5zm0-.1v-.3a.3.3 0 0 0 0 .3zm0 0zM.1 71.6v-.1.1zm12.6 27zM.1 83.1zm0 .1zm69.1 15.4zm-46.6.2zm.1-.1zm45.1.1h.1-.1zM32.9.8zM1.7 20.9v-.1.1zm-.1-.7v.1-.1zm0 46.3v-.1zM71.2 97zm.5-.1zM1.5 43.1zM3 59.5z"></path></g></g><g id="SvgjsG24441" featurekey="symbolFeature-0" transform="matrix(0.7812548429074085,0,0,0.7812548429074085,77.87561542177224,21.234154245379067)" fill="#e8a62d"><path xmlns="http://www.w3.org/2000/svg" d="M160.395,98.16c-2.274-0.225-4.534-0.298-6.779-0.252c-0.86-6.144-3.838-11.802-8.435-15.845c0-0.039,0-0.08,0-0.119  c0-14.119-11.137-25.607-24.826-25.607c-0.087,0-0.174,0-0.26,0.002c-4.645-6.57-12.132-10.559-20.087-10.559  c-7.97,0-15.458,3.988-20.091,10.559c-0.085-0.002-0.171-0.002-0.256-0.002c-13.697,0-24.841,11.488-24.841,25.607  c0,0.039,0,0.078,0,0.119c-4.597,4.043-7.575,9.7-8.435,15.844c-2.245-0.046-4.505,0.028-6.781,0.254  c-2.136,0.213-3.724,2.072-3.598,4.217c0.455,7.707,2.395,15.045,5.767,21.807c3.262,6.541,7.715,12.264,13.236,17.008  c5.524,4.75,11.84,8.281,18.772,10.5c0.405,0.129,0.816,0.191,1.22,0.191c1.693,0,3.266-1.084,3.809-2.783  c0.507-1.586-0.029-3.254-1.224-4.269c-0.39-0.331-0.849-0.594-1.367-0.76c-5.906-1.889-11.288-4.898-15.995-8.945  c-4.709-4.047-8.509-8.93-11.292-14.512c-2.303-4.617-3.825-9.555-4.546-14.727c5.172-0.105,10.233,0.646,15.103,2.207  c5.905,1.889,11.286,4.898,15.994,8.945c2.045,1.757,3.883,3.699,5.575,5.759c0.791,4.557,2.153,8.968,4.051,13.156  c2.861,6.312,6.926,12.121,12.106,17.139c0.776,0.752,1.779,1.127,2.783,1.127s2.008-0.375,2.783-1.127  c5.181-5.018,9.245-10.827,12.106-17.14c1.898-4.188,3.26-8.598,4.051-13.155c1.693-2.061,3.531-4.003,5.575-5.76  c4.707-4.047,10.089-7.057,15.996-8.947c4.871-1.559,9.948-2.309,15.102-2.205c-0.721,5.17-2.243,10.109-4.544,14.727  c-2.784,5.582-6.584,10.465-11.293,14.512c-4.707,4.047-10.089,7.057-15.995,8.945c-0.518,0.166-0.977,0.429-1.367,0.76  c-1.195,1.015-1.731,2.683-1.224,4.269c0.543,1.699,2.115,2.783,3.809,2.783c0.403,0,0.814-0.063,1.22-0.191  c6.933-2.219,13.248-5.75,18.772-10.5c5.521-4.744,9.975-10.467,13.237-17.008c3.37-6.764,5.31-14.1,5.765-21.807  C164.119,100.232,162.531,98.373,160.395,98.16z M88.231,113.344c0-11.508,4.151-22.402,11.769-31.082  c7.618,8.68,11.769,19.574,11.769,31.082s-4.15,22.402-11.769,31.082C92.383,135.746,88.231,124.851,88.231,113.344z   M119.701,110.645c-0.678-14.011-6.623-27.08-16.918-37.052c-1.553-1.504-4.016-1.504-5.566,0  c-10.295,9.972-16.24,23.041-16.918,37.052c-5.43-4.581-11.604-8.009-18.37-10.171c-2.484-0.796-5.011-1.397-7.569-1.827  c0.74-4.614,3.19-8.79,6.911-11.516c1.13-0.828,1.745-2.186,1.621-3.58c-0.047-0.531-0.071-1.063-0.071-1.607  c0-9.709,7.555-17.607,16.841-17.607c0.651,0,1.292,0.037,1.906,0.107c1.594,0.197,3.156-0.604,3.947-2.008  c3.01-5.34,8.563-8.656,14.493-8.656c5.917,0,11.472,3.318,14.497,8.662c0.791,1.398,2.334,2.189,3.936,2.004  c0.64-0.074,1.266-0.109,1.914-0.109c9.278,0,16.826,7.898,16.826,17.607c0,0.543-0.023,1.072-0.071,1.602  c-0.127,1.396,0.488,2.758,1.62,3.586c3.722,2.726,6.173,6.902,6.912,11.517c-2.558,0.43-5.085,1.03-7.569,1.825  C131.305,102.639,125.131,106.065,119.701,110.645z"></path></g><g id="SvgjsG24442" featurekey="nameFeature-0" transform="matrix(1.2299379231923135,0,0,1.2299379231923135,55.519524708547536,146.40941993082726)" fill="#000000"><path d="M7.793 16.836 c0 0.013027 -0.0032615 0.21488 -0.0097656 0.60551 s-0.013008 0.91146 -0.019512 1.5625 s-0.013008 1.4063 -0.019512 2.2656 s-0.01627 1.7676 -0.029297 2.7246 s-0.022793 1.9369 -0.029297 2.9395 s-0.013008 1.9693 -0.019512 2.9004 s-0.013008 1.8001 -0.019512 2.6074 s-0.0097656 1.4974 -0.0097656 2.0703 l0 1.1719 c0.18229 0.026035 0.36133 0.039063 0.53711 0.039063 l0.53711 0 c0.54688 0 1.2012 -0.05209 1.9629 -0.15625 s1.582 -0.32877 2.4609 -0.67383 s1.7969 -0.84637 2.7539 -1.5039 s1.8978 -1.5462 2.8223 -2.666 c1.1068 -1.3281 1.8978 -2.6563 2.373 -3.9844 s0.71289 -2.6563 0.71289 -3.9844 c0 -1.1198 -0.11719 -2.0898 -0.35156 -2.9102 s-0.56314 -1.5137 -0.98633 -2.0801 s-0.92449 -1.0254 -1.5039 -1.377 s-1.2175 -0.625 -1.9141 -0.82031 s-1.4388 -0.32553 -2.2266 -0.39063 s-1.5918 -0.097656 -2.4121 -0.097656 c-0.58594 0 -1.263 0.071621 -2.0313 0.21484 s-1.5592 0.32551 -2.373 0.54686 s-1.6179 0.45572 -2.4121 0.70313 s-1.5137 0.48178 -2.1582 0.70313 s-1.1816 0.40363 -1.6113 0.54686 s-0.6901 0.21484 -0.78125 0.21484 c-0.13021 -0.13021 -0.2409 -0.25391 -0.33205 -0.37109 c-0.078125 -0.091152 -0.14975 -0.17578 -0.21484 -0.25391 s-0.097656 -0.12369 -0.097656 -0.13672 c0 -0.026035 0.019531 -0.058594 0.058594 -0.097656 c0.026035 -0.026035 0.071602 -0.058594 0.1367 -0.097656 s0.16275 -0.071621 0.29297 -0.097656 c-0.039063 -0.078125 -0.061855 -0.13021 -0.068359 -0.15625 s-0.0097656 -0.05207 -0.0097656 -0.078105 c0 -0.039063 0.0065041 -0.078125 0.019531 -0.11719 s0.071621 -0.078125 0.17578 -0.11719 c-0.19531 -0.091152 -0.33203 -0.17254 -0.41016 -0.24416 s-0.12695 -0.12695 -0.14648 -0.16602 s-0.022793 -0.065098 -0.0097656 -0.078125 s0.019531 -0.013027 0.019531 0 c0 -0.039063 0.026035 -0.065098 0.078125 -0.078125 s0.091152 -0.05209 0.11719 -0.11719 c0 -0.013027 0.039063 -0.097656 0.11719 -0.25391 s0.24414 -0.33854 0.49805 -0.54688 s0.61523 -0.42318 1.084 -0.64453 s1.1003 -0.41666 1.8945 -0.58594 c0.27344 -0.065098 0.64453 -0.15299 1.1133 -0.26367 s1.0124 -0.21811 1.6309 -0.32227 s1.2923 -0.19531 2.0215 -0.27344 s1.4909 -0.11719 2.2852 -0.11719 c2.1744 0 4.1016 0.32227 5.7813 0.9668 s3.0893 1.5072 4.2285 2.5879 s2.002 2.3307 2.5879 3.75 s0.87891 2.9037 0.87891 4.4531 c0 0.91146 -0.12369 1.849 -0.37109 2.8125 s-0.60223 1.9141 -1.0645 2.8516 s-1.0189 1.8424 -1.6699 2.7148 s-1.3802 1.6699 -2.1875 2.3926 s-1.6764 1.3574 -2.6074 1.9043 s-1.9108 0.96354 -2.9395 1.25 s-1.9629 0.48504 -2.8027 0.59572 s-1.6113 0.16602 -2.3145 0.16602 c-0.9375 0 -1.6992 -0.055332 -2.2852 -0.16602 s-1.0384 -0.23438 -1.3574 -0.37109 s-0.53385 -0.27018 -0.64453 -0.40039 s-0.16602 -0.21484 -0.16602 -0.25391 c-0.078125 -0.078125 -0.11719 -0.20182 -0.11719 -0.37109 c0.013027 -0.3125 0.045586 -1.2109 0.097676 -2.6953 c0.026035 -0.625 0.055332 -1.4128 0.087891 -2.3633 s0.071621 -2.0996 0.11719 -3.4473 s0.10416 -2.9264 0.17578 -4.7363 s0.15301 -3.8867 0.24416 -6.2305 c0 -0.27344 0.074863 -0.46225 0.22461 -0.56641 s0.33529 -0.18229 0.55664 -0.23438 s0.45898 -0.10092 0.71289 -0.14648 s0.47852 -0.14648 0.67383 -0.30273 c0.078125 -0.065098 0.16602 -0.12043 0.26367 -0.166 s0.17904 -0.068359 0.24414 -0.068359 c0.10416 0 0.15625 0.039063 0.15625 0.11719 z M44.96838671875 31.7578 c0 1.3672 -0.19863 2.5977 -0.59576 3.6914 s-0.9375 2.0248 -1.6211 2.793 s-1.4746 1.3607 -2.373 1.7773 s-1.849 0.625 -2.8516 0.625 c-0.41666 0 -0.87238 -0.048828 -1.3672 -0.14648 s-0.98957 -0.25717 -1.4844 -0.47852 s-0.97656 -0.51432 -1.4453 -0.87891 s-0.88541 -0.81381 -1.25 -1.3477 s-0.6543 -1.1588 -0.86914 -1.875 s-0.31576 -1.543 -0.30273 -2.4805 c0 -1.0677 0.13021 -2.041 0.39063 -2.9199 s0.5957 -1.6667 1.0059 -2.3633 s0.87564 -1.2988 1.3965 -1.8066 s1.0417 -0.93424 1.5625 -1.2793 s1.0221 -0.60223 1.5039 -0.7715 s0.89844 -0.26693 1.25 -0.29297 c0.18229 -0.013027 0.26367 0.0065041 0.24414 0.058594 s-0.068359 0.11068 -0.14648 0.17578 s-0.14648 0.1302 -0.20508 0.19529 s-0.035801 0.10416 0.068359 0.11719 c0.091152 0.026035 0.16602 0.05207 0.22461 0.078105 s0.12045 0.058594 0.18555 0.097656 l0.15625 -0.17578 c0.091152 -0.065098 0.17904 -0.097656 0.26367 -0.097656 s0.15949 0.0097656 0.22459 0.029297 s0.11719 0.029297 0.15625 0.029297 s0.065098 -0.039063 0.078125 -0.11719 c0.026035 -0.14322 0.074863 -0.22461 0.14648 -0.24414 s0.23764 -0.029297 0.49805 -0.029297 c0.15625 0 0.39389 0.045566 0.71289 0.13672 s0.67057 0.2474 1.0547 0.46875 s0.77475 0.51758 1.1719 0.88867 s0.76172 0.83984 1.0938 1.4063 s0.60221 1.2402 0.81055 2.0215 s0.3125 1.6862 0.3125 2.7148 z M37.91748671875 26.035 c-0.45572 0.27344 -0.90496 0.64447 -1.3477 1.1132 s-0.84311 1.0091 -1.2012 1.6211 s-0.64777 1.2956 -0.86912 2.0508 s-0.33203 1.5495 -0.33203 2.3828 c0 0.89844 0.081387 1.7122 0.24414 2.4414 s0.40039 1.3509 0.71289 1.8652 s0.69336 0.91145 1.1426 1.1914 s0.96029 0.41992 1.5332 0.41992 c0.50781 0 1.0124 -0.14322 1.5137 -0.42969 s0.94727 -0.71615 1.3379 -1.2891 s0.70639 -1.2825 0.94727 -2.1289 s0.36133 -1.8294 0.36133 -2.9492 c0 -1.1328 -0.14975 -2.0834 -0.44922 -2.8516 s-0.63477 -1.39 -1.0059 -1.8652 s-0.72592 -0.81379 -1.0645 -1.0156 s-0.54688 -0.30273 -0.625 -0.30273 l-0.41992 0 z M63.6276171875 39.16016 c0 0.15625 -0.055484 0.32867 -0.16617 0.51748 s-0.2702 0.2832 -0.47854 0.2832 c-0.11719 0 -0.20834 -0.032559 -0.27344 -0.097656 s-0.1302 -0.097656 -0.19529 -0.097656 c-0.091152 0 -0.17904 0.032559 -0.26367 0.097656 s-0.22461 0.097656 -0.41992 0.097656 c-0.26041 0 -0.48502 -0.094395 -0.67383 -0.2832 s-0.3418 -0.42969 -0.45898 -0.72266 s-0.20508 -0.61197 -0.26367 -0.95703 s-0.087891 -0.66732 -0.087891 -0.9668 c0 -0.58594 0.022793 -1.2533 0.068359 -2.002 s0.097656 -1.5169 0.15625 -2.3047 s0.11068 -1.5723 0.15625 -2.3535 s0.068359 -1.5039 0.068359 -2.168 c0 -0.88541 -0.058594 -1.5755 -0.17578 -2.0703 s-0.32553 -0.74219 -0.625 -0.74219 c-0.28646 0.039063 -0.57943 0.28646 -0.87891 0.74219 s-0.60547 1.0384 -0.91797 1.748 s-0.6185 1.5104 -0.91797 2.4023 s-0.58918 1.8034 -0.86912 2.7344 s-0.54361 1.8359 -0.79102 2.7148 s-0.46875 1.6634 -0.66406 2.3535 s-0.36459 1.2467 -0.50781 1.6699 s-0.24088 0.63477 -0.29297 0.63477 c-0.10416 0 -0.18229 -0.022793 -0.23438 -0.068359 s-0.10092 -0.094395 -0.14648 -0.14648 s-0.1009 -0.10092 -0.166 -0.14648 s-0.16275 -0.068359 -0.29297 -0.068359 c-0.11719 0 -0.19531 0.013027 -0.23438 0.039063 s-0.084629 0.058594 -0.13672 0.097656 s-0.11719 0.071621 -0.19531 0.097656 s-0.21484 0.039063 -0.41016 0.039063 c-0.23438 0 -0.46549 -0.058594 -0.69336 -0.17578 s-0.3418 -0.29947 -0.3418 -0.54688 c0 -0.15625 0.026035 -0.47852 0.078125 -0.9668 s0.11395 -1.0872 0.18557 -1.7969 s0.14975 -1.5039 0.23438 -2.3828 s0.16275 -1.7871 0.23438 -2.7246 s0.13348 -1.875 0.18557 -2.8125 s0.078125 -1.8294 0.078125 -2.6758 c0 -0.41666 -0.0065041 -0.80402 -0.019531 -1.1621 s-0.019531 -0.69986 -0.019531 -1.0254 c0 -0.078125 0.039063 -0.11719 0.11719 -0.11719 c0.15625 0 0.2767 0.029297 0.36133 0.087891 s0.14648 0.12045 0.18555 0.18555 s0.061855 0.12695 0.068359 0.18555 s0.01627 0.087891 0.029297 0.087891 c0.039063 0 0.084629 -0.022793 0.13672 -0.068359 s0.10742 -0.094395 0.16602 -0.14648 s0.11393 -0.10092 0.16602 -0.14648 s0.097656 -0.068359 0.13672 -0.068359 l0.19531 0 c0.19531 0 0.33203 -0.029297 0.41016 -0.087891 s0.13346 -0.12369 0.16602 -0.19531 s0.055352 -0.13672 0.068379 -0.19531 s0.05209 -0.087891 0.11719 -0.087891 c0.039063 0 0.094395 0.029297 0.16602 0.087891 s0.14324 0.15625 0.21486 0.29297 s0.13348 0.31576 0.18557 0.53711 s0.078125 0.48828 0.078125 0.80078 c0 0.41666 -0.01627 0.944 -0.048828 1.582 s-0.071621 1.3184 -0.11719 2.041 s-0.087891 1.4518 -0.12695 2.1875 s-0.065098 1.403 -0.078125 2.002 c0.14322 -0.5599 0.31574 -1.1816 0.51756 -1.8652 s0.43619 -1.377 0.70313 -2.0801 s0.55664 -1.39 0.86914 -2.0605 s0.65104 -1.2663 1.0156 -1.7871 s0.74871 -0.94076 1.1524 -1.2598 s0.82684 -0.47852 1.2696 -0.47852 c0.70313 0 1.2793 0.13021 1.7285 0.39063 s0.80404 0.61848 1.0645 1.0742 s0.43945 0.98957 0.53711 1.6015 s0.14648 1.2695 0.14648 1.9727 c0 0.59896 -0.026035 1.2272 -0.078125 1.8848 s-0.10742 1.3151 -0.16602 1.9727 s-0.11068 1.3054 -0.15625 1.9434 s-0.068359 1.237 -0.068359 1.7969 c0 0.6901 0.039063 1.3118 0.11719 1.8652 s0.11719 0.9733 0.11719 1.2598 z M78.04936640625 39.12109 c0.78125 0 1.5591 0.071813 2.334 0.21504 s1.4746 0.3841 2.0996 0.72264 s1.1296 0.78449 1.5137 1.3379 s0.57617 1.2467 0.57617 2.0801 c0 0.61197 -0.14322 1.2305 -0.42969 1.8555 s-0.68359 1.2305 -1.1914 1.8164 s-1.1035 1.1393 -1.7871 1.6602 s-1.4225 0.97332 -2.2168 1.3574 s-1.6211 0.68686 -2.4805 0.9082 s-1.7188 0.33203 -2.5781 0.33203 c-0.70313 0 -1.3639 -0.074863 -1.9824 -0.22461 s-1.1589 -0.37436 -1.6211 -0.67383 s-0.83008 -0.67383 -1.1035 -1.123 s-0.41016 -0.97982 -0.41016 -1.5918 c0 -0.59896 0.11719 -1.1621 0.35156 -1.6895 s0.54361 -1.0124 0.92773 -1.4551 s0.82357 -0.84311 1.3184 -1.2012 s1.0059 -0.65754 1.5332 -0.89842 s1.0449 -0.42643 1.5527 -0.55664 s0.97006 -0.19531 1.3867 -0.19531 c0.22135 0.026035 0.37109 0.055332 0.44922 0.087891 s0.11719 0.068359 0.11719 0.10742 s-0.019531 0.087891 -0.058594 0.14648 s-0.058594 0.10742 -0.058594 0.14648 c0.026035 0.078125 0.05207 0.16928 0.078105 0.27344 s0.039063 0.20832 0.039063 0.31248 c0 0.13021 -0.022793 0.24414 -0.068359 0.3418 s-0.13996 0.15951 -0.28318 0.18555 c-0.54688 0.13021 -1.1491 0.35156 -1.8066 0.66406 s-1.2761 0.68033 -1.8555 1.1035 s-1.0645 0.87891 -1.4551 1.3672 s-0.59244 0.97982 -0.60547 1.4746 c0 0.23438 0.11068 0.40365 0.33203 0.50781 s0.53385 0.15625 0.9375 0.15625 c0.49479 0 1.0872 -0.071621 1.7773 -0.21484 s1.4063 -0.3483 2.1484 -0.61523 s1.4746 -0.59246 2.1973 -0.97658 s1.3737 -0.81707 1.9531 -1.2988 s1.0449 -1.0026 1.3965 -1.5625 s0.52734 -1.1589 0.52734 -1.7969 c0 -0.3125 -0.061855 -0.55664 -0.18555 -0.73242 s-0.26691 -0.30924 -0.42967 -0.40039 s-0.33203 -0.14648 -0.50781 -0.16602 s-0.32227 -0.029297 -0.43945 -0.029297 c-0.92447 0 -1.8685 0.055332 -2.832 0.16602 s-1.8392 0.22787 -2.627 0.35156 s-1.4355 0.24088 -1.9434 0.35156 s-0.77475 0.16602 -0.80078 0.16602 c-0.28646 0 -0.55014 -0.058594 -0.79102 -0.17578 s-0.44596 -0.26693 -0.61523 -0.44922 s-0.30273 -0.39387 -0.40039 -0.63475 s-0.14648 -0.48502 -0.14648 -0.73242 c0 -0.19531 0.11719 -0.47852 0.35156 -0.84961 s0.54037 -0.77148 0.91797 -1.2012 s0.81055 -0.85287 1.2988 -1.2695 s0.97982 -0.76172 1.4746 -1.0352 c-0.44271 -0.23438 -0.83984 -0.52084 -1.1914 -0.85938 s-0.64779 -0.70313 -0.88867 -1.0938 s-0.42643 -0.80404 -0.55664 -1.2402 s-0.19531 -0.88215 -0.19531 -1.3379 c0 -0.88541 0.12369 -1.6699 0.37109 -2.3535 s0.57293 -1.2793 0.97658 -1.7871 s0.85613 -0.931 1.3574 -1.2695 s0.99936 -0.61197 1.4941 -0.82031 s0.96354 -0.35482 1.4063 -0.43945 s0.81381 -0.12695 1.1133 -0.12695 c0.14322 0 0.26367 0.0065041 0.36133 0.019531 s0.18555 0.032559 0.26367 0.058594 c0.32553 -0.52084 0.69988 -1.0775 1.1231 -1.6699 s0.85938 -1.1784 1.3086 -1.7578 s0.89844 -1.1328 1.3477 -1.6602 s0.85938 -0.99609 1.2305 -1.4063 s0.68686 -0.73568 0.94727 -0.97656 s0.43619 -0.36133 0.52734 -0.36133 c0.11719 0 0.26041 0.074863 0.42969 0.22461 s0.33203 0.31902 0.48828 0.50783 s0.28971 0.37109 0.40039 0.54688 s0.16602 0.29623 0.16602 0.36133 s-0.026035 0.12369 -0.078125 0.17578 s-0.078125 0.097656 -0.078125 0.13672 c0 0.065098 0.035801 0.12043 0.10742 0.166 s0.17904 0.1009 0.32227 0.166 c0.026035 0.026035 0.045566 0.039063 0.058594 0.039063 s0.019531 0.013027 0.019531 0.039063 c0 0.05209 -0.084629 0.13998 -0.25391 0.26367 s-0.44271 0.33854 -0.82031 0.64453 s-0.86588 0.73242 -1.4648 1.2793 s-1.3346 1.2695 -2.207 2.168 c-0.20834 0.19531 -0.42318 0.43619 -0.64453 0.72266 s-0.46223 0.59246 -0.72264 0.91799 c0.33854 0.18229 0.6901 0.42316 1.0547 0.72264 s0.69336 0.64777 0.98633 1.0449 s0.53385 0.84961 0.72266 1.3574 s0.2832 1.0547 0.2832 1.6406 c0 1.25 -0.20834 2.2982 -0.625 3.1445 s-0.95703 1.5267 -1.6211 2.041 s-1.4063 0.88215 -2.2266 1.1035 s-1.6276 0.33203 -2.4219 0.33203 c-0.19531 0 -0.38086 -0.0065041 -0.55664 -0.019531 s-0.3483 -0.032559 -0.51758 -0.058594 c-0.29947 0.19531 -0.63801 0.43619 -1.0156 0.72266 s-0.74869 0.59896 -1.1133 0.9375 s-0.69988 0.68359 -1.0059 1.0352 s-0.53711 0.68359 -0.69336 0.99609 c0.52084 -0.013027 1.0221 -0.055352 1.5039 -0.12697 s0.9668 -0.15301 1.4551 -0.24416 s0.99283 -0.17254 1.5137 -0.24416 s1.0807 -0.10742 1.6797 -0.10742 z M77.44386640625 26.641 c0 -0.26041 0.14973 -0.70313 0.4492 -1.3281 c-0.61197 0.19531 -1.1588 0.48828 -1.6406 0.87891 s-0.89193 0.83334 -1.2305 1.3281 s-0.59895 1.0254 -0.78123 1.5918 s-0.27344 1.1296 -0.27344 1.6895 c0 0.40365 0.048828 0.79102 0.14648 1.1621 s0.25064 0.70313 0.45898 0.99609 s0.47852 0.52734 0.81055 0.70313 s0.73893 0.26367 1.2207 0.26367 c0.52084 0 0.98633 -0.094395 1.3965 -0.2832 s0.77148 -0.43621 1.084 -0.74221 s0.57617 -0.64779 0.79102 -1.0254 s0.39063 -0.75195 0.52734 -1.123 s0.23764 -0.71939 0.30273 -1.0449 s0.097656 -0.58594 0.097656 -0.78125 c0 -0.78125 -0.12695 -1.39 -0.38086 -1.8262 s-0.55014 -0.76496 -0.88867 -0.98631 c-0.18229 0.22135 -0.37109 0.43293 -0.56641 0.63475 s-0.39713 0.40689 -0.60547 0.61523 c-0.026035 0.026035 -0.065098 0.039063 -0.11719 0.039063 c-0.039063 0 -0.071621 -0.019531 -0.097656 -0.058594 s-0.071602 -0.058594 -0.1367 -0.058594 c-0.039063 0 -0.078125 0.019531 -0.11719 0.058594 s-0.091152 0.058594 -0.15625 0.058594 c-0.091152 0 -0.16277 -0.05209 -0.21486 -0.15625 s-0.078125 -0.30598 -0.078125 -0.60545 z M127.16596484375 40.44922 c-0.065098 0.3776 -0.16287 0.68371 -0.29309 0.91809 s-0.26367 0.43619 -0.40039 0.60547 s-0.26367 0.31576 -0.38086 0.43945 s-0.20182 0.26367 -0.25391 0.41992 c-0.13021 0.41666 -0.36459 0.78775 -0.70313 1.1133 s-0.72266 0.60223 -1.1523 0.8301 s-0.87891 0.40365 -1.3477 0.52734 s-0.89193 0.18555 -1.2695 0.18555 c-0.70313 0 -1.3509 -0.13672 -1.9434 -0.41016 s-1.1458 -0.67057 -1.6601 -1.1914 s-1.0059 -1.1491 -1.4746 -1.8848 s-0.9375 -1.5658 -1.4063 -2.4902 c-0.54688 0.18229 -1.0482 0.30924 -1.5039 0.38086 s-0.83332 0.10742 -1.1328 0.10742 c-0.2474 0 -0.5892 -0.029297 -1.0254 -0.087891 s-0.92773 -0.17578 -1.4746 -0.35156 s-1.1263 -0.41666 -1.7383 -0.72266 s-1.2109 -0.70639 -1.7969 -1.2012 c-0.2474 0.22135 -0.49805 0.46223 -0.75195 0.72264 s-0.48828 0.50781 -0.70313 0.74219 s-0.40365 0.43295 -0.56641 0.5957 s-0.27668 0.25064 -0.34178 0.26367 c0.05209 0 0.055352 0 0.0097848 0 s-0.10742 -0.0065041 -0.18555 -0.019531 s-0.15625 -0.032559 -0.23438 -0.058594 s-0.11719 -0.065098 -0.11719 -0.11719 c0 -0.10416 0.068359 -0.25391 0.20508 -0.44922 s0.3125 -0.41992 0.52734 -0.67383 s0.45572 -0.52084 0.72266 -0.80078 s0.53061 -0.55012 0.79102 -0.81053 c-0.45572 -0.44271 -0.89191 -0.96355 -1.3086 -1.5625 s-0.78125 -1.2793 -1.0938 -2.041 s-0.56314 -1.6113 -0.75195 -2.5488 s-0.2832 -1.9791 -0.2832 -3.125 c0 -1.9401 0.20182 -3.6621 0.60547 -5.166 s0.91797 -2.8125 1.543 -3.9258 s1.3119 -2.0508 2.0605 -2.8125 s1.4648 -1.377 2.1484 -1.8457 s1.2858 -0.80404 1.8066 -1.0059 s0.8659 -0.30924 1.0352 -0.32227 c0.026035 0.013027 0.1009 0.019531 0.22459 0.019531 s0.25391 0.0097656 0.39063 0.029297 s0.26041 0.061855 0.37109 0.12695 s0.16602 0.16926 0.16602 0.31248 c0.14322 -0.078125 0.30924 -0.14648 0.49805 -0.20508 s0.46551 -0.087891 0.8301 -0.087891 c0.49479 0 1.084 0.05209 1.7676 0.15625 s1.3965 0.30598 2.1387 0.60545 s1.4811 0.7259 2.2168 1.2793 s1.3932 1.2858 1.9727 2.1973 s1.0482 2.0215 1.4063 3.3301 s0.53711 2.8678 0.53711 4.6777 c0 1.849 -0.17904 3.483 -0.53711 4.9023 s-0.83008 2.6596 -1.416 3.7207 s-1.2533 1.9564 -2.002 2.6855 s-1.5137 1.3346 -2.2949 1.8164 c0.23438 0.45572 0.52734 0.94074 0.87891 1.4551 s0.75195 0.98957 1.2012 1.4258 s0.94727 0.79752 1.4941 1.084 s1.1328 0.42969 1.7578 0.42969 c0.67709 0 1.3997 -0.16602 2.168 -0.49805 s1.4583 -0.89518 2.0703 -1.6895 z M110.95396484375 14.805 c-0.66406 0.41666 -1.3054 0.98305 -1.9239 1.6992 s-1.1654 1.6081 -1.6406 2.6758 s-0.85285 2.3275 -1.1328 3.7793 s-0.41992 3.1217 -0.41992 5.0098 c0 1.4844 0.19857 2.8385 0.5957 4.0625 s0.9082 2.2787 1.5332 3.1641 c0.58594 -0.36459 1.1784 -0.64779 1.7773 -0.84961 s1.2565 -0.30273 1.9727 -0.30273 c1.0156 0 1.9173 0.19857 2.7051 0.5957 s1.4616 0.96027 2.0215 1.6894 c0.58594 -0.5599 1.1165 -1.2793 1.5918 -2.1582 s0.87564 -1.8424 1.2012 -2.8906 s0.57617 -2.1484 0.75195 -3.3008 s0.26367 -2.2754 0.26367 -3.3691 c0 -1.4713 -0.15951 -2.8354 -0.47852 -4.0918 s-0.76496 -2.3438 -1.3379 -3.2617 s-1.2565 -1.6374 -2.0508 -2.1582 s-1.6667 -0.78125 -2.6172 -0.78125 c-0.26041 0 -0.49805 0.035801 -0.71289 0.10742 s-0.40365 0.14975 -0.56641 0.23438 s-0.30273 0.16275 -0.41992 0.23438 s-0.20834 0.10742 -0.27344 0.10742 c-0.11719 0 -0.23438 -0.039063 -0.35156 -0.11719 z M108.57156484375 35.9961 c0.20834 0.26041 0.44271 0.51109 0.70313 0.75197 s0.54361 0.45572 0.84961 0.64453 s0.63477 0.33855 0.98633 0.44924 s0.72916 0.16602 1.1328 0.16602 c0.49479 0 1.0156 -0.071621 1.5625 -0.21484 c-0.66406 -0.9375 -1.263 -1.5983 -1.7969 -1.9824 s-1.0286 -0.57617 -1.4844 -0.57617 c-0.19531 0 -0.39713 0.032559 -0.60547 0.097656 s-0.40691 0.13996 -0.59572 0.22459 s-0.35156 0.16926 -0.48828 0.25389 s-0.22461 0.14648 -0.26367 0.18555 z M142.8569453125 39.88281 c0 0.11719 -0.097561 0.26035 -0.29287 0.42963 s-0.44271 0.25391 -0.74219 0.25391 c-0.091152 0 -0.25717 -0.045566 -0.49805 -0.13672 s-0.49152 -0.22461 -0.75193 -0.40039 s-0.49479 -0.39063 -0.70313 -0.64453 s-0.31902 -0.54361 -0.33205 -0.86914 c-0.026035 -0.14322 -0.039063 -0.3418 -0.039063 -0.5957 l0 -0.88867 l0 -1.7383 l0.039063 -1.9336 c-0.091152 0.46875 -0.20184 0.95377 -0.33205 1.4551 s-0.29297 0.99936 -0.48828 1.4941 s-0.42318 0.98307 -0.68359 1.4648 s-0.55988 0.94402 -0.89842 1.3867 c-0.18229 0.23438 -0.37434 0.43295 -0.57615 0.5957 s-0.40039 0.29947 -0.5957 0.41016 s-0.3776 0.19207 -0.54688 0.24416 s-0.29949 0.078125 -0.39064 0.078125 c-0.05209 0 -0.17254 -0.055332 -0.36135 -0.16602 s-0.41016 -0.25391 -0.66406 -0.42969 s-0.52408 -0.37109 -0.81055 -0.58594 s-0.5599 -0.42969 -0.82031 -0.64453 s-0.49479 -0.41666 -0.70313 -0.60547 s-0.35809 -0.3418 -0.44924 -0.45898 c-0.091152 -0.13021 -0.17254 -0.35156 -0.24416 -0.66406 s-0.13348 -0.69662 -0.18557 -1.1523 s-0.094414 -0.97004 -0.12697 -1.5429 s-0.048828 -1.1849 -0.048828 -1.8359 c0 -0.35156 0.0065041 -0.80729 0.019531 -1.3672 s0.039063 -1.1621 0.078125 -1.8066 s0.087891 -1.2956 0.14648 -1.9531 s0.13021 -1.25 0.21484 -1.7773 s0.18555 -0.95703 0.30273 -1.2891 s0.25391 -0.49805 0.41016 -0.49805 c0.10416 0 0.28645 0.029297 0.54686 0.087891 s0.52734 0.087891 0.80078 0.087891 c0.40365 0 0.68686 -0.035801 0.84961 -0.10742 s0.2832 -0.10742 0.36133 -0.10742 c0.13021 0 0.19531 0.11068 0.19531 0.33203 l0 0.18555 l-0.039063 0.20508 c-0.013027 0.078125 -0.042324 0.27994 -0.087891 0.60547 s-0.1009 0.74219 -0.166 1.25 s-0.1302 1.0775 -0.19529 1.709 s-0.12695 1.2923 -0.18555 1.9824 s-0.10742 1.3867 -0.14648 2.0898 s-0.058594 1.3737 -0.058594 2.0117 c0 0.42969 0.0097656 0.85938 0.029297 1.2891 s0.055332 0.82031 0.10742 1.1719 s0.12371 0.63477 0.21486 0.84961 s0.20184 0.32227 0.33205 0.32227 c0.11719 0 0.2832 -0.055332 0.49805 -0.16602 s0.46875 -0.33529 0.76172 -0.67383 s0.61523 -0.82031 0.9668 -1.4453 s0.73242 -1.4551 1.1426 -2.4902 s0.83984 -2.3047 1.2891 -3.8086 s0.9082 -3.2975 1.377 -5.3809 c0 -0.039063 0.022793 -0.068359 0.068359 -0.087891 s0.1009 -0.029297 0.166 -0.029297 c0.16928 0 0.38412 0.01627 0.64453 0.048828 s0.51105 0.078125 0.75193 0.13672 s0.44922 0.12695 0.625 0.20508 s0.26367 0.16275 0.26367 0.25391 c0 0.58594 -0.026035 1.224 -0.078125 1.9141 s-0.11068 1.403 -0.17578 2.1387 s-0.12369 1.4876 -0.17578 2.2559 s-0.078125 1.5299 -0.078125 2.2852 c0 1.3542 0.042324 2.6465 0.12695 3.877 s0.19855 2.2885 0.34178 3.1738 z M162.92226953125 32.8711 c0 0.14322 0.0064277 0.31256 0.019455 0.50787 s0.019531 0.41666 0.019531 0.66406 c0 0.3125 -0.045566 0.69986 -0.13672 1.1621 s-0.23764 0.94727 -0.43945 1.4551 s-0.47199 1.0156 -0.81053 1.5234 s-0.7552 0.96354 -1.25 1.3672 s-1.0775 0.73242 -1.748 0.98633 s-1.4355 0.38086 -2.2949 0.38086 c-0.76822 0 -1.5527 -0.14648 -2.3535 -0.43945 s-1.5299 -0.74869 -2.1875 -1.3672 s-1.1979 -1.4063 -1.6211 -2.3633 s-0.63477 -2.0996 -0.63477 -3.4277 c0 -0.83334 0.10742 -1.6537 0.32227 -2.4609 s0.50131 -1.569 0.85938 -2.2852 s0.78125 -1.377 1.2695 -1.9824 s1.0026 -1.1263 1.543 -1.5625 s1.1003 -0.77799 1.6797 -1.0254 s1.1426 -0.37109 1.6895 -0.37109 c0.95053 0 1.735 0.14975 2.3535 0.44922 s1.11 0.67057 1.4746 1.1133 s0.62176 0.91473 0.7715 1.416 s0.22461 0.95379 0.22461 1.3574 c0 0.39063 -0.094395 0.83658 -0.2832 1.3379 s-0.49805 0.97656 -0.92773 1.4258 s-0.98959 0.82682 -1.6797 1.1328 s-1.5364 0.45898 -2.5391 0.45898 c-0.53385 0 -1.0124 -0.074863 -1.4355 -0.22461 s-0.79754 -0.33855 -1.1231 -0.56643 s-0.60223 -0.47527 -0.8301 -0.74221 s-0.41992 -0.51758 -0.57617 -0.75195 c-0.23438 0.80729 -0.35156 1.7513 -0.35156 2.832 c0 0.74219 0.10742 1.4095 0.32227 2.002 s0.51107 1.097 0.88867 1.5137 s0.82682 0.73566 1.3477 0.95701 s1.0938 0.33203 1.7188 0.33203 c0.78125 0 1.4648 -0.13346 2.0508 -0.40039 s1.097 -0.60223 1.5332 -1.0059 s0.81379 -0.84311 1.1328 -1.3184 s0.5957 -0.91145 0.83008 -1.3086 s0.43945 -0.7259 0.61523 -0.98631 s0.3483 -0.3841 0.51758 -0.37107 c0.078125 0 0.11719 0.065098 0.11719 0.19531 c0 0.065098 -0.0065041 0.1302 -0.019531 0.19529 s-0.032559 0.1302 -0.058594 0.19529 z M157.04346953125 25.605 c-0.23438 0 -0.53713 0.048809 -0.90822 0.14646 s-0.76172 0.27018 -1.1719 0.51758 s-0.81705 0.5827 -1.2207 1.0059 s-0.75521 0.96029 -1.0547 1.6113 c0.18229 -0.091152 0.3418 -0.16928 0.47852 -0.23438 s0.23111 -0.097656 0.2832 -0.097656 c0.026035 0 0.065098 0.026035 0.11719 0.078125 c0.29947 0.50781 0.67383 0.86914 1.123 1.084 s0.95377 0.32227 1.5137 0.32227 c0.44271 0 0.82357 -0.074863 1.1426 -0.22461 s0.58268 -0.3418 0.79102 -0.57617 s0.35809 -0.49154 0.44924 -0.77148 s0.13672 -0.55664 0.13672 -0.83008 c0 -0.58594 -0.14975 -1.071 -0.44922 -1.4551 s-0.70963 -0.57617 -1.2305 -0.57617 z"></path></g><g id="SvgjsG24443" featurekey="sloganFeature-0" transform="matrix(1.3760656600177832,0,0,1.3760656600177832,76.85204212831023,222.59840633356393)" fill="#4d4d4d"><path d="M12.617 6.9239999999999995 c-0.032549 0.065107 -0.063505 0.11721 -0.092802 0.15627 s-0.053711 0.068359 -0.073242 0.087891 c-0.026045 0.026045 -0.048828 0.042324 -0.068359 0.048838 c-0.05208 0.013018 -0.15625 0.030918 -0.3125 0.053701 s-0.36784 0.040684 -0.63477 0.053701 c-0.19531 0.013018 -0.46224 0.040684 -0.80078 0.082998 s-0.72429 0.094395 -1.1572 0.15624 s-0.90332 0.12532 -1.4111 0.19043 s-1.0352 0.12045 -1.582 0.16603 c-0.05208 0.91146 -0.089512 1.8425 -0.11229 2.793 s-0.040684 1.906 -0.053701 2.8662 s-0.024414 1.9173 -0.03418 2.8711 s-0.024414 1.8896 -0.043945 2.8076 c0 0.032549 -0.013018 0.063477 -0.039063 0.092773 s-0.045576 0.053711 -0.058594 0.073242 c-0.032549 0.13021 -0.091143 0.24251 -0.17578 0.33691 s-0.17253 0.1416 -0.26367 0.1416 c-0.27344 0 -0.4834 -0.042314 -0.62988 -0.12695 s-0.27181 -0.17578 -0.37598 -0.27344 c-0.045576 -0.058594 -0.089521 -0.14485 -0.13184 -0.25879 s-0.079746 -0.24089 -0.11229 -0.38086 s-0.061846 -0.28971 -0.087891 -0.44921 s-0.042324 -0.31087 -0.048838 -0.4541 c-0.013018 -0.14323 -0.022783 -0.2832 -0.029297 -0.41992 s-0.0097656 -0.27669 -0.0097656 -0.41992 c0 -0.3125 0.0097656 -0.61849 0.029297 -0.91797 s0.035811 -0.57943 0.048828 -0.83985 c0.0065136 -0.16276 0.01791 -0.39389 0.034189 -0.69337 s0.037441 -0.64128 0.063486 -1.0254 s0.055342 -0.7959 0.087891 -1.2354 s0.073242 -0.88054 0.12207 -1.3232 s0.10254 -0.87402 0.16113 -1.2939 s0.1237 -0.80241 0.19531 -1.1475 c0.032549 -0.10417 0.061846 -0.20671 0.087891 -0.30762 s0.048828 -0.2067 0.068359 -0.31737 c-0.59896 0.039063 -1.1849 0.058594 -1.7578 0.058594 c-0.73567 0 -1.4355 -0.043945 -2.0996 -0.13184 s-1.2305 -0.24251 -1.6992 -0.46387 c-0.058594 -0.032549 -0.092773 -0.091143 -0.10254 -0.17578 s-0.03418 -0.17253 -0.073242 -0.26367 c-0.05208 -0.071611 -0.071611 -0.15137 -0.058594 -0.23926 s0.019531 -0.16113 0.019531 -0.21973 c-0.0065136 -0.058594 0.011387 -0.097656 0.053701 -0.11719 s0.12695 -0.027666 0.25391 -0.024414 s0.30273 0.011387 0.52734 0.024404 s0.51921 0.019531 0.88379 0.019531 c0.27344 0 0.58594 -0.0065136 0.9375 -0.019531 s0.75195 -0.035801 1.2012 -0.06835 c0.22136 -0.019531 0.54199 -0.050459 0.96191 -0.092773 s0.89519 -0.084629 1.4258 -0.12694 s1.0954 -0.079746 1.6943 -0.11229 s1.1914 -0.048828 1.7773 -0.048828 c0.22136 0 0.46875 0.011396 0.74219 0.03418 s0.54524 0.053711 0.81543 0.092773 s0.52084 0.084639 0.75196 0.13672 s0.42155 0.10416 0.57129 0.15624 c0.097656 0.039063 0.15625 0.073242 0.17578 0.10254 s0.027666 0.053711 0.024414 0.073242 s-0.0081349 0.035811 -0.014648 0.048828 s0.0097656 0.026035 0.048828 0.039053 s0.081377 0.022783 0.12695 0.029297 s0.087891 0.01791 0.12695 0.034189 s0.071611 0.037441 0.097656 0.063486 s0.035811 0.058594 0.029297 0.097656 z M15.419971875 19.941406 c0 0.058594 -0.04878 0.13018 -0.14644 0.21481 s-0.22136 0.12695 -0.37109 0.12695 c-0.045576 0 -0.12858 -0.022783 -0.24902 -0.068359 s-0.24576 -0.1123 -0.37597 -0.2002 s-0.24739 -0.19531 -0.35156 -0.32227 s-0.15951 -0.27181 -0.16603 -0.43457 c-0.013018 -0.071611 -0.019531 -0.1709 -0.019531 -0.29785 l0 -0.44434 l0 -0.86914 l0.019531 -0.9668 c-0.045576 0.23438 -0.10092 0.47688 -0.16603 0.72754 s-0.14648 0.49968 -0.24414 0.74707 s-0.21159 0.49153 -0.3418 0.73242 s-0.27994 0.47201 -0.44921 0.69337 c-0.091143 0.11719 -0.18717 0.21647 -0.28808 0.29785 s-0.2002 0.14974 -0.29785 0.20508 s-0.1888 0.096035 -0.27344 0.12208 s-0.14975 0.039063 -0.19532 0.039063 c-0.026045 0 -0.08627 -0.027666 -0.18067 -0.083008 s-0.20508 -0.12695 -0.33203 -0.21484 s-0.26204 -0.18555 -0.40527 -0.29297 s-0.27995 -0.21484 -0.41016 -0.32227 s-0.24739 -0.20833 -0.35156 -0.30273 s-0.17904 -0.1709 -0.22462 -0.22949 c-0.045576 -0.065107 -0.08627 -0.17578 -0.12208 -0.33203 s-0.066738 -0.34831 -0.092783 -0.57617 s-0.047207 -0.48502 -0.063486 -0.77147 s-0.024414 -0.59244 -0.024414 -0.91796 c0 -0.17578 0.0032521 -0.40364 0.0097656 -0.68359 s0.019531 -0.58105 0.039063 -0.90332 s0.043945 -0.64778 0.073242 -0.97656 s0.065107 -0.625 0.10742 -0.88867 s0.092773 -0.47852 0.15137 -0.64453 s0.12695 -0.24902 0.20508 -0.24902 c0.05208 0 0.14322 0.014648 0.27343 0.043945 s0.26367 0.043945 0.40039 0.043945 c0.20183 0 0.34343 -0.0179 0.4248 -0.053711 s0.1416 -0.053711 0.18066 -0.053711 c0.065107 0 0.097656 0.055342 0.097656 0.16602 l0 0.092773 l-0.019531 0.10254 c-0.0065136 0.039063 -0.021162 0.13997 -0.043945 0.30273 s-0.050449 0.37109 -0.082998 0.625 s-0.065098 0.53874 -0.097646 0.85449 s-0.063477 0.64615 -0.092773 0.99121 s-0.053711 0.69336 -0.073242 1.0449 s-0.029297 0.68685 -0.029297 1.0059 c0 0.21484 0.0048828 0.42969 0.014648 0.64453 s0.027666 0.41016 0.053711 0.58594 s0.061855 0.31738 0.10743 0.4248 s0.10092 0.16113 0.16603 0.16113 c0.058594 0 0.1416 -0.027666 0.24902 -0.083008 s0.23438 -0.16765 0.38086 -0.33691 s0.30762 -0.41016 0.4834 -0.72266 s0.36621 -0.72754 0.57129 -1.2451 s0.41992 -1.1523 0.64453 -1.9043 s0.4541 -1.6487 0.68848 -2.6904 c0 -0.019531 0.011396 -0.03418 0.03418 -0.043945 s0.050449 -0.014648 0.082998 -0.014648 c0.084639 0 0.19206 0.0081349 0.32227 0.024414 s0.25553 0.039063 0.37597 0.068359 s0.22461 0.063477 0.3125 0.10254 s0.13184 0.081377 0.13184 0.12695 c0 0.29297 -0.013018 0.61198 -0.039063 0.95703 s-0.055342 0.70149 -0.087891 1.0693 s-0.061846 0.74382 -0.087891 1.1279 s-0.039063 0.76497 -0.039063 1.1426 c0 0.67708 0.021162 1.3232 0.063477 1.9385 s0.099277 1.1442 0.17089 1.5869 z M23.9062125 15.8789 c0 0.68359 -0.099316 1.2988 -0.29788 1.8457 s-0.46875 1.0124 -0.81055 1.3965 s-0.7373 0.68033 -1.1865 0.88866 s-0.92448 0.3125 -1.4258 0.3125 c-0.20833 0 -0.43619 -0.024414 -0.68358 -0.073242 s-0.49479 -0.12858 -0.74218 -0.23926 s-0.48828 -0.25716 -0.72266 -0.43945 s-0.44271 -0.4069 -0.625 -0.67383 s-0.32715 -0.57942 -0.43457 -0.9375 s-0.15788 -0.77148 -0.15137 -1.2402 c0 -0.53386 0.065107 -1.0205 0.19531 -1.46 s0.29785 -0.83333 0.50293 -1.1816 s0.43782 -0.64941 0.69824 -0.90332 s0.52084 -0.46712 0.78126 -0.63965 s0.51107 -0.30111 0.75196 -0.38575 s0.44922 -0.13347 0.625 -0.14648 c0.091143 -0.0065136 0.13184 0.0032521 0.12207 0.029297 s-0.03418 0.055342 -0.073242 0.087891 s-0.073242 0.065098 -0.10254 0.097646 s-0.0179 0.05208 0.03418 0.058594 c0.045576 0.013018 0.083008 0.026035 0.1123 0.039053 s0.060225 0.029297 0.092773 0.048828 l0.078125 -0.087891 c0.045576 -0.032549 0.089521 -0.048828 0.13184 -0.048828 s0.079746 0.0048828 0.11229 0.014648 s0.058594 0.014648 0.078125 0.014648 s0.032549 -0.019531 0.039063 -0.058594 c0.013018 -0.071611 0.037432 -0.1123 0.073242 -0.12207 s0.11882 -0.014648 0.24902 -0.014648 c0.078125 0 0.19694 0.022783 0.35645 0.068359 s0.33528 0.1237 0.52734 0.23438 s0.38737 0.25879 0.58594 0.44434 s0.38086 0.41992 0.54688 0.70313 s0.3011 0.62012 0.40527 1.0107 s0.15625 0.8431 0.15625 1.3574 z M20.3808125 13.0176 c-0.22786 0.13672 -0.45248 0.32224 -0.67384 0.55661 s-0.42155 0.50456 -0.60059 0.81055 s-0.32389 0.64778 -0.43456 1.0254 s-0.16602 0.77475 -0.16602 1.1914 c0 0.44922 0.040693 0.85612 0.12207 1.2207 s0.2002 0.67545 0.35645 0.93261 s0.34668 0.45572 0.57129 0.59569 s0.48015 0.20996 0.7666 0.20996 c0.25391 0 0.50618 -0.071611 0.75684 -0.21484 s0.47363 -0.35808 0.66895 -0.64453 s0.35319 -0.64127 0.47363 -1.0645 s0.18066 -0.91471 0.18066 -1.4746 c0 -0.56641 -0.074873 -1.0417 -0.22461 -1.4258 s-0.31738 -0.69498 -0.50293 -0.93261 s-0.36296 -0.40689 -0.53223 -0.5078 s-0.27344 -0.15137 -0.3125 -0.15137 l-0.20996 0 z M27.81250625 7.256 c0.0065136 0.13021 0.0016308 0.27505 -0.014648 0.43455 s-0.042324 0.31412 -0.078135 0.46386 s-0.084639 0.2832 -0.14648 0.40039 s-0.13509 0.19856 -0.21973 0.24414 c-0.21484 0.11067 -0.40364 0.16602 -0.56641 0.16602 c-0.13021 0 -0.24251 -0.030928 -0.33691 -0.092773 s-0.18718 -0.13184 -0.27832 -0.20996 c-0.13021 -0.10417 -0.23926 -0.24089 -0.32715 -0.41016 s-0.13184 -0.33203 -0.13184 -0.48828 c0 -0.1237 0.021162 -0.27507 0.063477 -0.4541 s0.096025 -0.35318 0.16113 -0.52245 s0.1351 -0.32389 0.20997 -0.46386 s0.14812 -0.236 0.21973 -0.28808 c0.11067 -0.091143 0.21321 -0.1416 0.30762 -0.15137 s0.1709 -0.0048828 0.22949 0.014648 c0.14323 0.032549 0.27019 0.073242 0.38086 0.12207 s0.20345 0.1237 0.27832 0.22461 s0.13184 0.23274 0.1709 0.39551 s0.065107 0.36784 0.078125 0.61523 z M27.01170625 11.6211 c0.032549 0.032549 0.056963 0.14 0.073242 0.32229 s0.024414 0.41992 0.024414 0.71289 c0 0.19531 -0.0032521 0.4069 -0.0097656 0.63477 s-0.014648 0.46224 -0.024414 0.70313 s-0.021162 0.4834 -0.03418 0.72754 s-0.022783 0.47688 -0.029297 0.69824 c-0.019531 0.36458 -0.030928 0.70149 -0.03418 1.0107 s-0.0048828 0.6071 -0.0048828 0.89355 c0 0.37761 0.0032521 0.72266 0.0097656 1.0352 s0.0097656 0.57292 0.0097656 0.78125 c0 0.22786 -0.0081349 0.40201 -0.024414 0.52245 s-0.050459 0.18717 -0.10254 0.20019 c-0.058594 0.013018 -0.10742 0.040684 -0.14648 0.082998 s-0.074873 0.083008 -0.10742 0.12207 s-0.06998 0.073242 -0.11229 0.10254 s-0.092773 0.037432 -0.15137 0.024414 c-0.032549 -0.0065136 -0.087891 -0.035811 -0.16602 -0.087891 s-0.16113 -0.11556 -0.24902 -0.19043 s-0.1709 -0.16113 -0.24902 -0.25879 s-0.13021 -0.19856 -0.15625 -0.30273 c-0.013018 -0.05208 -0.024414 -0.15625 -0.03418 -0.3125 s-0.0179 -0.34505 -0.024414 -0.56641 s-0.013027 -0.46713 -0.019541 -0.73731 s-0.011396 -0.54362 -0.014648 -0.82031 s-0.0048828 -0.5485 -0.0048828 -0.81542 l0 -0.72266 c0 -0.33203 0.011396 -0.67058 0.03418 -1.0156 s0.048828 -0.66731 0.078125 -0.9668 s0.058594 -0.56152 0.087891 -0.78613 s0.050459 -0.38249 0.063477 -0.47363 c0.026045 -0.15625 0.053711 -0.27832 0.083008 -0.36621 s0.061846 -0.15137 0.097656 -0.19043 s0.071621 -0.063477 0.10743 -0.073242 s0.073242 -0.0179 0.1123 -0.024414 c0.078125 -0.013018 0.16765 -0.01627 0.26855 -0.0097561 s0.19693 0.016279 0.28808 0.029297 s0.1709 0.030918 0.23926 0.053701 s0.10905 0.043945 0.12207 0.063477 z M43.310515625 6.2989999999999995 c0.013018 0.11719 0.019655 0.35961 0.019655 0.72745 s-0.0048828 0.81869 -0.014648 1.3525 s-0.022783 1.1296 -0.039063 1.7871 s-0.037441 1.3396 -0.063486 2.0459 s-0.053711 1.416 -0.083008 2.1289 s-0.060225 1.3884 -0.092773 2.0264 s-0.068359 1.219 -0.10742 1.7432 s-0.078125 0.9489 -0.11719 1.2744 c0 0.039063 -0.0179 0.073242 -0.053711 0.10254 s-0.073242 0.079756 -0.1123 0.15137 c-0.039063 0.065107 -0.078125 0.10092 -0.11719 0.10743 s-0.071611 0.0065136 -0.097656 0 s-0.045576 -0.0065136 -0.058594 0 s-0.013018 0.039063 0 0.097656 c0.013018 0.039063 -0.0081443 0.06999 -0.063486 0.092773 s-0.10254 0.0179 -0.1416 -0.014648 c-0.05208 -0.039063 -0.11393 -0.08626 -0.18554 -0.1416 s-0.11719 -0.083008 -0.13672 -0.083008 c-0.039063 -0.0065136 -0.05208 0.0097656 -0.039063 0.048828 s0.030918 0.081377 0.053701 0.12695 s0.039063 0.089521 0.048828 0.13184 s-0.011396 0.066729 -0.063477 0.073242 c-0.097656 0.013018 -0.20996 -0.0097656 -0.33691 -0.068359 s-0.24577 -0.12695 -0.35645 -0.20508 c-0.091143 -0.071611 -0.22786 -0.23111 -0.41016 -0.47851 s-0.39877 -0.56152 -0.64942 -0.94238 s-0.52734 -0.81543 -0.83008 -1.3037 s-0.61687 -1.0091 -0.94238 -1.5625 s-0.65755 -1.1263 -0.99609 -1.7188 s-0.66732 -1.1833 -0.98633 -1.7725 s-0.625 -1.1638 -0.91797 -1.7236 s-0.55664 -1.0808 -0.79102 -1.5625 c-0.026045 0.27344 -0.048828 0.64616 -0.068359 1.1182 s-0.037432 0.99609 -0.053711 1.5723 s-0.030928 1.1833 -0.043945 1.8213 s-0.024414 1.2663 -0.03418 1.8848 s-0.0179 1.2044 -0.024414 1.7578 s-0.013027 1.0286 -0.019541 1.4258 c0 0.26042 -0.0048828 0.44434 -0.014648 0.55176 s-0.019531 0.18066 -0.029297 0.21973 s-0.019531 0.066729 -0.029297 0.083008 s-0.011396 0.063477 -0.0048828 0.1416 c0 0.20833 -0.013018 0.39876 -0.039063 0.57129 s-0.084639 0.26855 -0.17578 0.28809 c-0.05208 0.026045 -0.10091 0.01791 -0.14648 -0.024404 s-0.10417 -0.053711 -0.17578 -0.03418 c-0.019531 0 -0.043945 0.0179 -0.073242 0.053711 s-0.079756 0.053711 -0.15137 0.053711 c-0.058594 0 -0.13021 -0.026045 -0.21484 -0.078125 s-0.13998 -0.14648 -0.16603 -0.2832 l-0.039063 -0.36133 c-0.0065136 -0.039063 -0.014648 -0.065107 -0.024414 -0.078125 s-0.019531 -0.032549 -0.029297 -0.058594 s-0.0179 -0.06999 -0.024414 -0.13184 s-0.013027 -0.16764 -0.019541 -0.31737 c0 -0.039063 0.0065136 -0.22298 0.019531 -0.55176 s0.030918 -0.75358 0.053701 -1.2744 s0.048828 -1.1133 0.078125 -1.7773 s0.061846 -1.3509 0.097656 -2.0605 s0.071621 -1.416 0.10743 -2.1191 s0.074873 -1.3542 0.11719 -1.9531 s0.083008 -1.1214 0.12207 -1.5674 s0.074873 -0.76335 0.10742 -0.95215 c-0.032549 -0.078125 -0.056963 -0.153 -0.073242 -0.22461 s-0.024414 -0.13672 -0.024414 -0.19531 c-0.0065136 -0.039063 -0.0016308 -0.065107 0.014648 -0.078125 s0.039063 -0.024414 0.068359 -0.03418 s0.060225 -0.021162 0.092773 -0.03418 s0.065098 -0.039063 0.097646 -0.078125 c0.013018 -0.019531 0.024414 -0.066729 0.03418 -0.1416 s0.030928 -0.1123 0.063477 -0.1123 c0.091143 0 0.16602 -0.021162 0.22461 -0.063477 s0.13997 -0.06998 0.24414 -0.082998 c0 -0.11067 0.029297 -0.18229 0.087891 -0.21483 c0.026045 -0.019531 0.055342 -0.026045 0.087891 -0.019531 c0.11067 0.013018 0.19693 0.056963 0.25878 0.13184 s0.10904 0.14486 0.14159 0.20997 c0.032549 0.078125 0.058594 0.13672 0.078125 0.17578 s0.045576 0.094404 0.078125 0.16602 c0.045576 0.071611 0.1351 0.22461 0.26856 0.45898 s0.29785 0.52734 0.49316 0.87891 s0.41667 0.74707 0.66406 1.1865 s0.50618 0.90495 0.77637 1.3965 s0.54851 0.99287 0.83496 1.5039 s0.56641 1.0107 0.83984 1.499 s0.53386 0.95378 0.78125 1.3965 s0.472 0.84146 0.67383 1.1963 s0.37109 0.65104 0.50781 0.88866 s0.23112 0.39551 0.2832 0.47363 c0.13021 0.1888 0.22135 0.29459 0.27343 0.31737 s0.11393 -0.037441 0.18554 -0.18067 c0.032549 -0.065107 0.063477 -0.21647 0.092773 -0.4541 s0.058594 -0.53873 0.087891 -0.90331 s0.055342 -0.77799 0.078125 -1.2402 s0.043945 -0.94727 0.063477 -1.4551 s0.035811 -1.0286 0.048828 -1.5625 s0.021152 -1.0515 0.024404 -1.5527 s0.0032521 -0.9733 0 -1.416 s-0.014648 -0.83333 -0.03418 -1.1719 c-0.0065136 -0.18229 -0.0097656 -0.34506 -0.0097656 -0.48829 c0 -0.1237 0.0065136 -0.23764 0.019531 -0.34181 s0.035801 -0.15625 0.06835 -0.15625 c0.045576 -0.032549 0.08627 -0.053711 0.12208 -0.063477 s0.065107 -0.013018 0.087891 -0.0097656 s0.043945 0.0081349 0.063477 0.014648 s0.035811 0.0065136 0.048828 0 s0.019531 -0.016279 0.019531 -0.029297 s0.0016308 -0.029297 0.0048828 -0.048828 s0.011387 -0.040693 0.024404 -0.063477 s0.042314 -0.040684 0.087891 -0.053701 c0.05208 -0.019531 0.092773 -0.030928 0.12207 -0.03418 s0.053711 -0.0016213 0.073242 0.0048924 s0.035811 0.013027 0.048828 0.019541 s0.032549 0.0032615 0.058594 -0.0097561 c0.05208 -0.026045 0.094395 -0.050459 0.12694 -0.073242 s0.061846 -0.030918 0.087891 -0.024404 s0.047207 0.03418 0.063486 0.083008 s0.030928 0.13184 0.043945 0.24902 z M48.76950625 19.56055 c0.39063 0 0.77957 0.035906 1.167 0.10752 s0.7373 0.19205 1.0498 0.36132 s0.56478 0.39225 0.75684 0.66894 s0.28809 0.62337 0.28809 1.04 c0 0.30599 -0.071611 0.61523 -0.21484 0.92773 s-0.3418 0.61523 -0.5957 0.9082 s-0.55176 0.56966 -0.89355 0.83008 s-0.71126 0.48666 -1.1084 0.67872 s-0.81055 0.34343 -1.2402 0.4541 s-0.85938 0.16602 -1.2891 0.16602 c-0.35156 0 -0.68196 -0.037432 -0.99121 -0.1123 s-0.57943 -0.18718 -0.81056 -0.33691 s-0.41504 -0.33691 -0.55176 -0.56152 s-0.20508 -0.48991 -0.20508 -0.7959 c0 -0.29948 0.058594 -0.58105 0.17578 -0.84473 s0.27181 -0.50618 0.46387 -0.72754 s0.41179 -0.42155 0.65918 -0.60059 s0.50293 -0.32877 0.7666 -0.44921 s0.52246 -0.21321 0.77637 -0.27832 s0.48503 -0.097656 0.69336 -0.097656 c0.11067 0.013018 0.18555 0.027666 0.22461 0.043945 s0.058594 0.03418 0.058594 0.053711 s-0.0097656 0.043945 -0.029297 0.073242 s-0.029297 0.053711 -0.029297 0.073242 c0.013018 0.039063 0.026035 0.084639 0.039053 0.13672 s0.019531 0.10416 0.019531 0.15624 c0 0.065107 -0.011396 0.12207 -0.03418 0.1709 s-0.06998 0.079756 -0.14159 0.092773 c-0.27344 0.065107 -0.57454 0.17578 -0.90332 0.33203 s-0.63803 0.34017 -0.92774 0.55176 s-0.53223 0.43945 -0.72754 0.68359 s-0.29622 0.48991 -0.30273 0.7373 c0 0.11719 0.055342 0.20183 0.16602 0.25391 s0.26692 0.078125 0.46875 0.078125 c0.24739 0 0.54361 -0.035811 0.88866 -0.10742 s0.70313 -0.17415 1.0742 -0.30762 s0.7373 -0.29623 1.0986 -0.48829 s0.68685 -0.40854 0.97656 -0.64942 s0.52246 -0.50131 0.69824 -0.78126 s0.26367 -0.57943 0.26367 -0.89845 c0 -0.15625 -0.030928 -0.27832 -0.092773 -0.36621 s-0.13346 -0.15462 -0.21483 -0.2002 s-0.16602 -0.073242 -0.25391 -0.083008 s-0.16113 -0.014648 -0.21973 -0.014648 c-0.46224 0 -0.93424 0.027666 -1.416 0.083008 s-0.91959 0.11394 -1.3135 0.17578 s-0.71777 0.12044 -0.97168 0.17578 s-0.38737 0.083008 -0.40039 0.083008 c-0.14323 0 -0.27507 -0.029297 -0.39551 -0.087891 s-0.22298 -0.13347 -0.30762 -0.22461 s-0.15137 -0.19693 -0.2002 -0.31737 s-0.073242 -0.24251 -0.073242 -0.36621 c0 -0.097656 0.058594 -0.23926 0.17578 -0.4248 s0.27019 -0.38574 0.45898 -0.60059 s0.40527 -0.42644 0.64941 -0.63477 s0.48991 -0.38086 0.7373 -0.51758 c-0.22136 -0.11719 -0.41992 -0.26042 -0.5957 -0.42969 s-0.3239 -0.35156 -0.44434 -0.54688 s-0.21321 -0.40202 -0.27832 -0.62012 s-0.097656 -0.44107 -0.097656 -0.66894 c0 -0.44271 0.061846 -0.83496 0.18555 -1.1768 s0.28646 -0.63965 0.48829 -0.89355 s0.42807 -0.4655 0.67872 -0.63477 s0.49968 -0.30599 0.74707 -0.41016 s0.48177 -0.17741 0.70313 -0.21973 s0.4069 -0.063477 0.55664 -0.063477 c0.071611 0 0.13184 0.0032521 0.18066 0.0097656 s0.092773 0.016279 0.13184 0.029297 c0.16276 -0.26042 0.34994 -0.53874 0.56153 -0.83496 s0.42969 -0.58919 0.6543 -0.87891 s0.44922 -0.56641 0.67383 -0.83008 s0.42969 -0.49805 0.61523 -0.70313 s0.34343 -0.36784 0.47363 -0.48828 s0.2181 -0.18066 0.26367 -0.18066 c0.058594 0 0.13021 0.037432 0.21484 0.1123 s0.16602 0.15951 0.24414 0.25392 s0.14485 0.18555 0.2002 0.27344 s0.083008 0.14812 0.083008 0.18066 s-0.013018 0.061846 -0.039063 0.087891 s-0.039063 0.048828 -0.039063 0.068359 c0 0.032549 0.0179 0.060215 0.053711 0.082998 s0.089521 0.050449 0.16113 0.082998 c0.013018 0.013018 0.022783 0.019531 0.029297 0.019531 s0.0097656 0.0065136 0.0097656 0.019531 c0 0.026045 -0.042314 0.06999 -0.12695 0.13184 s-0.22136 0.16927 -0.41016 0.32227 s-0.43294 0.36621 -0.73242 0.63965 s-0.66732 0.63477 -1.1035 1.084 c-0.10417 0.097656 -0.21159 0.2181 -0.32227 0.36133 s-0.23111 0.29623 -0.36132 0.45899 c0.16927 0.091143 0.34505 0.21158 0.52734 0.36132 s0.34668 0.32389 0.49316 0.52245 s0.26692 0.4248 0.36133 0.67871 s0.1416 0.52734 0.1416 0.82031 c0 0.625 -0.10417 1.1491 -0.3125 1.5723 s-0.47852 0.76334 -0.81055 1.0205 s-0.70313 0.44107 -1.1133 0.55175 s-0.8138 0.16602 -1.2109 0.16602 c-0.097656 0 -0.19043 -0.0032521 -0.27832 -0.0097656 s-0.17415 -0.016279 -0.25879 -0.029297 c-0.14974 0.097656 -0.319 0.2181 -0.5078 0.36133 s-0.37435 0.29948 -0.55664 0.46875 s-0.34994 0.3418 -0.50294 0.51758 s-0.26855 0.3418 -0.34668 0.49805 c0.26042 -0.0065136 0.51107 -0.027676 0.75196 -0.063486 s0.4834 -0.076504 0.72754 -0.12208 s0.49642 -0.08627 0.75684 -0.12208 s0.54037 -0.053711 0.83985 -0.053711 z M48.46680625 13.3204 c0 -0.13021 0.074863 -0.35156 0.2246 -0.66406 c-0.30599 0.097656 -0.57942 0.24414 -0.82031 0.43945 s-0.44597 0.41667 -0.61523 0.66406 s-0.29947 0.5127 -0.39062 0.7959 s-0.13672 0.56478 -0.13672 0.84473 c0 0.20183 0.024414 0.39551 0.073242 0.58105 s0.12532 0.35156 0.22949 0.49805 s0.23926 0.26367 0.40527 0.35156 s0.36946 0.13184 0.61035 0.13184 c0.26042 0 0.49316 -0.047197 0.69824 -0.1416 s0.38574 -0.21811 0.54199 -0.3711 s0.28809 -0.3239 0.39551 -0.5127 s0.19531 -0.37598 0.26367 -0.56152 s0.11882 -0.3597 0.15137 -0.52246 s0.048828 -0.29297 0.048828 -0.39063 c0 -0.39063 -0.063477 -0.69499 -0.19043 -0.91309 s-0.27507 -0.38248 -0.44434 -0.49315 c-0.091143 0.11067 -0.18555 0.21646 -0.2832 0.31737 s-0.19856 0.20345 -0.30273 0.30762 c-0.013018 0.013018 -0.032549 0.019531 -0.058594 0.019531 c-0.019531 0 -0.035811 -0.0097656 -0.048828 -0.029297 s-0.035801 -0.029297 -0.06835 -0.029297 c-0.019531 0 -0.039063 0.0097656 -0.058594 0.029297 s-0.045576 0.029297 -0.078125 0.029297 c-0.045576 0 -0.081387 -0.026045 -0.10743 -0.078125 s-0.039063 -0.15299 -0.039063 -0.30272 z M59.892540625 15.8789 c0 0.68359 -0.099316 1.2988 -0.29788 1.8457 s-0.46875 1.0124 -0.81055 1.3965 s-0.7373 0.68033 -1.1865 0.88866 s-0.92448 0.3125 -1.4258 0.3125 c-0.20833 0 -0.43619 -0.024414 -0.68358 -0.073242 s-0.49479 -0.12858 -0.74218 -0.23926 s-0.48828 -0.25716 -0.72266 -0.43945 s-0.44271 -0.4069 -0.625 -0.67383 s-0.32715 -0.57942 -0.43457 -0.9375 s-0.15788 -0.77148 -0.15137 -1.2402 c0 -0.53386 0.065107 -1.0205 0.19531 -1.46 s0.29785 -0.83333 0.50293 -1.1816 s0.43782 -0.64941 0.69824 -0.90332 s0.52084 -0.46712 0.78126 -0.63965 s0.51107 -0.30111 0.75196 -0.38575 s0.44922 -0.13347 0.625 -0.14648 c0.091143 -0.0065136 0.13184 0.0032521 0.12207 0.029297 s-0.03418 0.055342 -0.073242 0.087891 s-0.073242 0.065098 -0.10254 0.097646 s-0.0179 0.05208 0.03418 0.058594 c0.045576 0.013018 0.083008 0.026035 0.1123 0.039053 s0.060225 0.029297 0.092773 0.048828 l0.078125 -0.087891 c0.045576 -0.032549 0.089521 -0.048828 0.13184 -0.048828 s0.079746 0.0048828 0.11229 0.014648 s0.058594 0.014648 0.078125 0.014648 s0.032549 -0.019531 0.039063 -0.058594 c0.013018 -0.071611 0.037432 -0.1123 0.073242 -0.12207 s0.11882 -0.014648 0.24902 -0.014648 c0.078125 0 0.19694 0.022783 0.35645 0.068359 s0.33528 0.1237 0.52734 0.23438 s0.38737 0.25879 0.58594 0.44434 s0.38086 0.41992 0.54688 0.70313 s0.3011 0.62012 0.40527 1.0107 s0.15625 0.8431 0.15625 1.3574 z M56.367140625 13.0176 c-0.22786 0.13672 -0.45248 0.32224 -0.67384 0.55661 s-0.42155 0.50456 -0.60059 0.81055 s-0.32389 0.64778 -0.43456 1.0254 s-0.16602 0.77475 -0.16602 1.1914 c0 0.44922 0.040693 0.85612 0.12207 1.2207 s0.2002 0.67545 0.35645 0.93261 s0.34668 0.45572 0.57129 0.59569 s0.48015 0.20996 0.7666 0.20996 c0.25391 0 0.50618 -0.071611 0.75684 -0.21484 s0.47363 -0.35808 0.66895 -0.64453 s0.35319 -0.64127 0.47363 -1.0645 s0.18066 -0.91471 0.18066 -1.4746 c0 -0.56641 -0.074873 -1.0417 -0.22461 -1.4258 s-0.31738 -0.69498 -0.50293 -0.93261 s-0.36296 -0.40689 -0.53223 -0.5078 s-0.27344 -0.15137 -0.3125 -0.15137 l-0.20996 0 z M67.275434375 19.58008 c0 0.078125 -0.027742 0.16434 -0.083084 0.25874 s-0.1351 0.1416 -0.23927 0.1416 c-0.058594 0 -0.10417 -0.016279 -0.13672 -0.048828 s-0.065098 -0.048828 -0.097646 -0.048828 c-0.045576 0 -0.089521 0.016279 -0.13184 0.048828 s-0.1123 0.048828 -0.20996 0.048828 c-0.13021 0 -0.24251 -0.047197 -0.33691 -0.1416 s-0.1709 -0.21484 -0.22949 -0.36133 s-0.10254 -0.30599 -0.13184 -0.47852 s-0.043945 -0.33366 -0.043945 -0.4834 c0 -0.29297 0.011396 -0.62663 0.03418 -1.001 s0.048828 -0.75846 0.078125 -1.1523 s0.055342 -0.78613 0.078125 -1.1768 s0.03418 -0.75195 0.03418 -1.084 c0 -0.44271 -0.029297 -0.78775 -0.087891 -1.0352 s-0.16276 -0.37109 -0.3125 -0.37109 c-0.14323 0.019531 -0.28972 0.14323 -0.43945 0.37109 s-0.30273 0.5192 -0.45898 0.87401 s-0.30925 0.75521 -0.45898 1.2012 s-0.29459 0.9017 -0.43456 1.3672 s-0.27181 0.91797 -0.39551 1.3574 s-0.23438 0.83171 -0.33203 1.1768 s-0.18229 0.62337 -0.25391 0.83496 s-0.12044 0.31738 -0.14648 0.31738 c-0.05208 0 -0.091143 -0.011396 -0.11719 -0.03418 s-0.050459 -0.047197 -0.073242 -0.073242 s-0.050449 -0.050459 -0.082998 -0.073242 s-0.081377 -0.03418 -0.14648 -0.03418 c-0.058594 0 -0.097656 0.0065136 -0.11719 0.019531 s-0.042314 0.029297 -0.068359 0.048828 s-0.058594 0.035811 -0.097656 0.048828 s-0.10742 0.019531 -0.20508 0.019531 c-0.11719 0 -0.23274 -0.029297 -0.34668 -0.087891 s-0.1709 -0.14974 -0.1709 -0.27344 c0 -0.078125 0.013018 -0.23926 0.039063 -0.4834 s0.056973 -0.54362 0.092783 -0.89844 s0.074873 -0.75195 0.11719 -1.1914 s0.081377 -0.89355 0.11719 -1.3623 s0.066738 -0.9375 0.092783 -1.4063 s0.039063 -0.91472 0.039063 -1.3379 c0 -0.20833 -0.0032521 -0.40201 -0.0097656 -0.58104 s-0.0097656 -0.34993 -0.0097656 -0.5127 c0 -0.039063 0.019531 -0.058594 0.058594 -0.058594 c0.078125 0 0.13835 0.014648 0.18066 0.043945 s0.073242 0.060225 0.092773 0.092773 s0.030928 0.063477 0.03418 0.092773 s0.0081349 0.043945 0.014648 0.043945 c0.019531 0 0.042314 -0.011396 0.068359 -0.03418 s0.053711 -0.047197 0.083008 -0.073242 s0.056963 -0.050459 0.083008 -0.073242 s0.048828 -0.03418 0.068359 -0.03418 l0.097656 0 c0.097656 0 0.16602 -0.014648 0.20508 -0.043945 s0.066729 -0.061846 0.083008 -0.097656 s0.027676 -0.068359 0.034189 -0.097656 s0.026045 -0.043945 0.058594 -0.043945 c0.019531 0 0.047197 0.014648 0.083008 0.043945 s0.071621 0.078125 0.10743 0.14648 s0.066738 0.15788 0.092783 0.26855 s0.039063 0.24414 0.039063 0.40039 c0 0.20833 -0.0081349 0.472 -0.024414 0.79102 s-0.035811 0.65918 -0.058594 1.0205 s-0.043945 0.72591 -0.063477 1.0938 s-0.032549 0.7015 -0.039063 1.001 c0.071611 -0.27995 0.15787 -0.59082 0.25878 -0.93262 s0.2181 -0.68848 0.35156 -1.04 s0.27832 -0.69499 0.43457 -1.0303 s0.32552 -0.63313 0.50781 -0.89355 s0.37436 -0.47038 0.57618 -0.62988 s0.41342 -0.23926 0.63478 -0.23926 c0.35156 0 0.63965 0.065107 0.86426 0.19531 s0.40202 0.30924 0.53223 0.5371 s0.21973 0.49479 0.26855 0.80077 s0.073242 0.63477 0.073242 0.98633 c0 0.29948 -0.013018 0.61361 -0.039063 0.94239 s-0.053711 0.65756 -0.083008 0.98633 s-0.055342 0.65268 -0.078125 0.97169 s-0.03418 0.6185 -0.03418 0.89845 c0 0.34505 0.019531 0.65592 0.058594 0.93261 s0.058594 0.48665 0.058594 0.62988 z M82.880609375 6.855 c-0.013018 0.29948 -0.027628 0.68854 -0.043907 1.1671 s-0.032559 1.0124 -0.048838 1.6016 s-0.032559 1.2158 -0.048838 1.8799 s-0.030928 1.3313 -0.043945 2.002 s-0.022783 1.3249 -0.029297 1.9629 s-0.0097656 1.2272 -0.0097656 1.7676 c0 0.60547 0.0048828 1.123 0.014648 1.5527 s0.024414 0.72591 0.043945 0.88867 c0.013018 0.05208 0.014648 0.087891 0.0048828 0.10742 s-0.024414 0.032549 -0.043945 0.039063 s-0.042314 0.011396 -0.068359 0.014648 s-0.048828 0.011387 -0.068359 0.024404 s-0.029297 0.032549 -0.029297 0.058594 l0 0.078125 l-0.0097656 0.068359 l-0.058594 0.029297 c-0.20833 0 -0.36295 -0.019531 -0.46386 -0.058594 s-0.19368 -0.10417 -0.27832 -0.19531 c-0.097656 -0.10417 -0.18392 -0.22136 -0.25879 -0.35156 s-0.12207 -0.27994 -0.1416 -0.44921 c-0.0065136 -0.058594 -0.016279 -0.13672 -0.029297 -0.23438 s-0.027666 -0.20671 -0.043945 -0.32715 s-0.029297 -0.25228 -0.039063 -0.39551 s-0.011396 -0.29297 -0.0048828 -0.44922 c0 -0.18229 -0.0032521 -0.36133 -0.0097656 -0.53711 s-0.016279 -0.34831 -0.029297 -0.51758 c-0.078125 0.20183 -0.16927 0.43132 -0.27344 0.68848 s-0.23112 0.5192 -0.38086 0.78612 s-0.32063 0.52734 -0.5127 0.78125 s-0.41342 0.48015 -0.66407 0.67871 s-0.53223 0.35807 -0.84473 0.47851 s-0.66081 0.18066 -1.0449 0.18066 c-0.30599 0 -0.62825 -0.039063 -0.9668 -0.11719 c-0.44922 -0.11719 -0.83659 -0.28972 -1.1621 -0.51758 s-0.60221 -0.50618 -0.83007 -0.83496 s-0.41504 -0.70313 -0.56152 -1.123 s-0.26855 -0.88054 -0.36621 -1.3818 c-0.032549 -0.18229 -0.056963 -0.38249 -0.073242 -0.60059 s-0.024414 -0.46387 -0.024414 -0.7373 c0 -0.55339 0.026045 -1.1687 0.078125 -1.8457 s0.11067 -1.364 0.17578 -2.0605 s0.12695 -1.3786 0.18555 -2.0459 s0.094404 -1.2646 0.10742 -1.792 c0 -0.16927 0.014648 -0.3011 0.043945 -0.39551 s0.1123 -0.16765 0.24902 -0.21973 c0.026045 -0.0065136 0.05209 -0.0048828 0.078135 0.0048828 s0.05209 0.016279 0.078135 0.019531 s0.055342 -0.0016308 0.087891 -0.014648 s0.065098 -0.039063 0.097646 -0.078125 c0.039063 -0.058594 0.074873 -0.089521 0.10742 -0.092773 s0.060215 0.0081443 0.082998 0.034189 s0.045566 0.055342 0.06835 0.087891 s0.043945 0.05208 0.063477 0.058594 c0.026045 0.013018 0.066738 0.045566 0.12208 0.097646 s0.10905 0.1123 0.16113 0.18066 s0.097656 0.13672 0.13672 0.20508 s0.058594 0.12532 0.058594 0.1709 c0 0.05208 0.019531 0.14648 0.058594 0.2832 s0.065107 0.32878 0.078125 0.57617 c0.019531 0.31901 0.021162 0.70476 0.0048828 1.1572 s-0.040693 0.9375 -0.073242 1.4551 s-0.068359 1.0466 -0.10742 1.5869 s-0.074873 1.0612 -0.10742 1.5625 s-0.058594 0.96191 -0.078125 1.3818 s-0.019531 0.7666 0 1.04 c0.045576 0.625 0.099287 1.1149 0.16113 1.4697 s0.12857 0.55176 0.20019 0.59082 s0.15787 0.065107 0.25878 0.078125 s0.236 0.019531 0.40526 0.019531 c0.95052 -0.045576 1.7415 -0.22299 2.373 -0.53224 s1.1409 -0.7666 1.5283 -1.3721 s0.67383 -1.3721 0.85938 -2.2998 s0.30437 -2.0329 0.35645 -3.3154 c0.019531 -0.53386 0.042314 -1.0091 0.068359 -1.4258 s0.053711 -0.79428 0.083008 -1.1328 s0.061846 -0.64779 0.097656 -0.92774 s0.073242 -0.55014 0.1123 -0.81056 c0.013018 -0.039063 0.045566 -0.071611 0.097646 -0.097656 s0.10091 -0.048828 0.14648 -0.068359 c0.032549 -0.032549 0.050449 -0.063477 0.053701 -0.092773 s0.030918 -0.050459 0.082998 -0.063477 c0.026045 -0.0065136 0.061855 -0.014648 0.10743 -0.024414 s0.092773 -0.0097656 0.1416 0 s0.094404 0.027666 0.13672 0.053711 s0.073242 0.068359 0.092773 0.12695 c0.019531 0.045576 0.058594 0.078125 0.11719 0.097656 s0.10742 0.048828 0.14648 0.087891 c0.019531 0.032549 0.037432 0.068359 0.053711 0.10742 s0.01791 0.094404 0.0048924 0.16602 z M92.82225 12.041 c-0.019531 0.032549 -0.086288 0.14159 -0.20022 0.32714 s-0.25879 0.41992 -0.43457 0.70313 s-0.37598 0.60547 -0.60059 0.9668 s-0.45573 0.73567 -0.69336 1.123 s-0.47363 0.77312 -0.70801 1.1572 s-0.4541 0.74381 -0.65918 1.0791 s-0.38249 0.63313 -0.53223 0.89355 s-0.26041 0.45573 -0.33202 0.58594 s-0.17252 0.33203 -0.30272 0.60547 s-0.27994 0.58757 -0.44921 0.94238 s-0.34993 0.7373 -0.54199 1.1475 s-0.38412 0.82194 -0.57618 1.2354 s-0.37761 0.8138 -0.55664 1.2012 s-0.33854 0.73405 -0.47851 1.04 s-0.25553 0.55826 -0.34667 0.75683 s-0.14322 0.31738 -0.15624 0.35645 c-0.058594 0.14974 -0.1123 0.24251 -0.16113 0.27832 s-0.11882 0.063477 -0.20996 0.083008 c-0.045576 0.0065136 -0.081387 -0.0065041 -0.10743 -0.039053 s-0.048828 -0.071611 -0.068359 -0.11719 s-0.039063 -0.08627 -0.058594 -0.12208 s-0.042314 -0.056973 -0.068359 -0.063486 c-0.084639 -0.013018 -0.13184 -0.030918 -0.1416 -0.053701 s-0.030928 -0.066729 -0.063477 -0.13184 c-0.019531 -0.026045 -0.039063 -0.040693 -0.058594 -0.043945 s-0.039063 -0.0048828 -0.058594 -0.0048828 s-0.03418 -0.0032521 -0.043945 -0.0097656 s-0.014648 -0.026045 -0.014648 -0.058594 c0.013018 -0.11067 0.024414 -0.22135 0.03418 -0.33202 s0.024414 -0.21158 0.043945 -0.30272 c0.019531 -0.071611 0.08626 -0.22135 0.2002 -0.44921 s0.25554 -0.50618 0.4248 -0.83496 s0.3597 -0.69336 0.57129 -1.0938 s0.42644 -0.80729 0.64453 -1.2207 s0.43294 -0.82193 0.64453 -1.2256 s0.40202 -0.77148 0.57129 -1.1035 c-0.084639 -0.18229 -0.19857 -0.4183 -0.34181 -0.70802 s-0.29948 -0.61198 -0.46875 -0.9668 s-0.34993 -0.73079 -0.54199 -1.1279 s-0.37924 -0.79102 -0.56153 -1.1816 s-0.35808 -0.76823 -0.52734 -1.1328 s-0.31738 -0.69173 -0.44434 -0.98145 s-0.22624 -0.53061 -0.29785 -0.72267 s-0.10742 -0.31088 -0.10742 -0.35646 c0.0065136 -0.078125 0.022793 -0.13184 0.048838 -0.16113 s0.060225 -0.043945 0.10254 -0.043945 s0.087891 0.0097656 0.13672 0.029297 s0.099287 0.039063 0.15137 0.058594 c0.078125 0.032549 0.153 0.063477 0.22461 0.092773 s0.12369 0.0179 0.15624 -0.03418 c0.019531 -0.05208 0.074873 -0.079746 0.16602 -0.082998 s0.16602 0.011396 0.22461 0.043945 c0.019531 0.019531 0.037432 0.026045 0.053711 0.019531 s0.032559 -0.019531 0.048838 -0.039063 s0.035811 -0.040693 0.058594 -0.063477 s0.050449 -0.040684 0.082998 -0.053701 c0.071611 -0.013018 0.13672 0 0.19531 0.039063 s0.11394 0.1237 0.16602 0.25391 c0.032549 0.097656 0.099277 0.26692 0.20019 0.50781 s0.22135 0.52084 0.36132 0.83985 s0.29459 0.66244 0.46386 1.0303 s0.33854 0.72917 0.5078 1.084 s0.3304 0.68848 0.4834 1.001 s0.28809 0.57292 0.40527 0.78125 c0.17578 -0.32552 0.36621 -0.6722 0.57129 -1.04 s0.41341 -0.73568 0.625 -1.1035 s0.42155 -0.72754 0.62988 -1.0791 s0.40527 -0.67708 0.59082 -0.97656 s0.34993 -0.56152 0.49316 -0.78613 s0.26042 -0.39551 0.35156 -0.5127 c0.05208 -0.065107 0.078125 -0.10742 0.078125 -0.12695 s0.026045 -0.039063 0.078125 -0.058594 c0.039063 -0.013018 0.073242 -0.026035 0.10254 -0.039053 s0.076494 -0.013018 0.1416 0 c0.058594 0.013018 0.10417 0.019531 0.13672 0.019531 s0.058594 0.019531 0.078125 0.058594 c0.013018 0.019531 0.032549 0.026045 0.058594 0.019531 s0.056973 -0.01791 0.092783 -0.034189 s0.073242 -0.032559 0.1123 -0.048838 s0.078125 -0.021162 0.11719 -0.014648 c0.045576 0.0065136 0.091152 0.014648 0.13673 0.024414 s0.08627 0.027666 0.12208 0.053711 s0.056973 0.058594 0.063486 0.097656 s-0.0065041 0.087891 -0.039053 0.14648 z M108.5935625 6.9239999999999995 c-0.032549 0.065107 -0.063505 0.11721 -0.092802 0.15627 s-0.053711 0.068359 -0.073242 0.087891 c-0.026045 0.026045 -0.048828 0.042324 -0.068359 0.048838 c-0.05208 0.013018 -0.15625 0.030918 -0.3125 0.053701 s-0.36784 0.040684 -0.63477 0.053701 c-0.19531 0.013018 -0.46224 0.040684 -0.80078 0.082998 s-0.72429 0.094395 -1.1572 0.15624 s-0.90332 0.12532 -1.4111 0.19043 s-1.0352 0.12045 -1.582 0.16603 c-0.05208 0.91146 -0.089512 1.8425 -0.11229 2.793 s-0.040684 1.906 -0.053701 2.8662 s-0.024414 1.9173 -0.03418 2.8711 s-0.024414 1.8896 -0.043945 2.8076 c0 0.032549 -0.013018 0.063477 -0.039063 0.092773 s-0.045576 0.053711 -0.058594 0.073242 c-0.032549 0.13021 -0.091143 0.24251 -0.17578 0.33691 s-0.17253 0.1416 -0.26367 0.1416 c-0.27344 0 -0.4834 -0.042314 -0.62988 -0.12695 s-0.27181 -0.17578 -0.37598 -0.27344 c-0.045576 -0.058594 -0.089521 -0.14485 -0.13184 -0.25879 s-0.079746 -0.24089 -0.11229 -0.38086 s-0.061846 -0.28971 -0.087891 -0.44921 s-0.042324 -0.31087 -0.048838 -0.4541 c-0.013018 -0.14323 -0.022783 -0.2832 -0.029297 -0.41992 s-0.0097656 -0.27669 -0.0097656 -0.41992 c0 -0.3125 0.0097656 -0.61849 0.029297 -0.91797 s0.035811 -0.57943 0.048828 -0.83985 c0.0065136 -0.16276 0.01791 -0.39389 0.034189 -0.69337 s0.037441 -0.64128 0.063486 -1.0254 s0.055342 -0.7959 0.087891 -1.2354 s0.073242 -0.88054 0.12207 -1.3232 s0.10254 -0.87402 0.16113 -1.2939 s0.1237 -0.80241 0.19531 -1.1475 c0.032549 -0.10417 0.061846 -0.20671 0.087891 -0.30762 s0.048828 -0.2067 0.068359 -0.31737 c-0.59896 0.039063 -1.1849 0.058594 -1.7578 0.058594 c-0.73567 0 -1.4355 -0.043945 -2.0996 -0.13184 s-1.2305 -0.24251 -1.6992 -0.46387 c-0.058594 -0.032549 -0.092773 -0.091143 -0.10254 -0.17578 s-0.03418 -0.17253 -0.073242 -0.26367 c-0.05208 -0.071611 -0.071611 -0.15137 -0.058594 -0.23926 s0.019531 -0.16113 0.019531 -0.21973 c-0.0065136 -0.058594 0.011387 -0.097656 0.053701 -0.11719 s0.12695 -0.027666 0.25391 -0.024414 s0.30273 0.011387 0.52734 0.024404 s0.51921 0.019531 0.88379 0.019531 c0.27344 0 0.58594 -0.0065136 0.9375 -0.019531 s0.75195 -0.035801 1.2012 -0.06835 c0.22136 -0.019531 0.54199 -0.050459 0.96191 -0.092773 s0.89519 -0.084629 1.4258 -0.12694 s1.0954 -0.079746 1.6943 -0.11229 s1.1914 -0.048828 1.7773 -0.048828 c0.22136 0 0.46875 0.011396 0.74219 0.03418 s0.54524 0.053711 0.81543 0.092773 s0.52084 0.084639 0.75196 0.13672 s0.42155 0.10416 0.57129 0.15624 c0.097656 0.039063 0.15625 0.073242 0.17578 0.10254 s0.027666 0.053711 0.024414 0.073242 s-0.0081349 0.035811 -0.014648 0.048828 s0.0097656 0.026035 0.048828 0.039053 s0.081377 0.022783 0.12695 0.029297 s0.087891 0.01791 0.12695 0.034189 s0.071611 0.037441 0.097656 0.063486 s0.035811 0.058594 0.029297 0.097656 z M108.662115625 7.256 c0.0065136 0.13021 0.0016308 0.27505 -0.014648 0.43455 s-0.042324 0.31412 -0.078135 0.46386 s-0.084639 0.2832 -0.14648 0.40039 s-0.13509 0.19856 -0.21973 0.24414 c-0.21484 0.11067 -0.40364 0.16602 -0.56641 0.16602 c-0.13021 0 -0.24251 -0.030928 -0.33691 -0.092773 s-0.18718 -0.13184 -0.27832 -0.20996 c-0.13021 -0.10417 -0.23926 -0.24089 -0.32715 -0.41016 s-0.13184 -0.33203 -0.13184 -0.48828 c0 -0.1237 0.021162 -0.27507 0.063477 -0.4541 s0.096025 -0.35318 0.16113 -0.52245 s0.1351 -0.32389 0.20997 -0.46386 s0.14812 -0.236 0.21973 -0.28808 c0.11067 -0.091143 0.21321 -0.1416 0.30762 -0.15137 s0.1709 -0.0048828 0.22949 0.014648 c0.14323 0.032549 0.27019 0.073242 0.38086 0.12207 s0.20345 0.1237 0.27832 0.22461 s0.13184 0.23274 0.1709 0.39551 s0.065107 0.36784 0.078125 0.61523 z M107.861315625 11.6211 c0.032549 0.032549 0.056963 0.14 0.073242 0.32229 s0.024414 0.41992 0.024414 0.71289 c0 0.19531 -0.0032521 0.4069 -0.0097656 0.63477 s-0.014648 0.46224 -0.024414 0.70313 s-0.021162 0.4834 -0.03418 0.72754 s-0.022783 0.47688 -0.029297 0.69824 c-0.019531 0.36458 -0.030928 0.70149 -0.03418 1.0107 s-0.0048828 0.6071 -0.0048828 0.89355 c0 0.37761 0.0032521 0.72266 0.0097656 1.0352 s0.0097656 0.57292 0.0097656 0.78125 c0 0.22786 -0.0081349 0.40201 -0.024414 0.52245 s-0.050459 0.18717 -0.10254 0.20019 c-0.058594 0.013018 -0.10742 0.040684 -0.14648 0.082998 s-0.074873 0.083008 -0.10742 0.12207 s-0.06998 0.073242 -0.11229 0.10254 s-0.092773 0.037432 -0.15137 0.024414 c-0.032549 -0.0065136 -0.087891 -0.035811 -0.16602 -0.087891 s-0.16113 -0.11556 -0.24902 -0.19043 s-0.1709 -0.16113 -0.24902 -0.25879 s-0.13021 -0.19856 -0.15625 -0.30273 c-0.013018 -0.05208 -0.024414 -0.15625 -0.03418 -0.3125 s-0.0179 -0.34505 -0.024414 -0.56641 s-0.013027 -0.46713 -0.019541 -0.73731 s-0.011396 -0.54362 -0.014648 -0.82031 s-0.0048828 -0.5485 -0.0048828 -0.81542 l0 -0.72266 c0 -0.33203 0.011396 -0.67058 0.03418 -1.0156 s0.048828 -0.66731 0.078125 -0.9668 s0.058594 -0.56152 0.087891 -0.78613 s0.050459 -0.38249 0.063477 -0.47363 c0.026045 -0.15625 0.053711 -0.27832 0.083008 -0.36621 s0.061846 -0.15137 0.097656 -0.19043 s0.071621 -0.063477 0.10743 -0.073242 s0.073242 -0.0179 0.1123 -0.024414 c0.078125 -0.013018 0.16765 -0.01627 0.26855 -0.0097561 s0.19693 0.016279 0.28808 0.029297 s0.1709 0.030918 0.23926 0.053701 s0.10905 0.043945 0.12207 0.063477 z M115.537153125 19.58008 c0 0.078125 -0.027742 0.16434 -0.083084 0.25874 s-0.1351 0.1416 -0.23927 0.1416 c-0.058594 0 -0.10417 -0.016279 -0.13672 -0.048828 s-0.065098 -0.048828 -0.097646 -0.048828 c-0.045576 0 -0.089521 0.016279 -0.13184 0.048828 s-0.1123 0.048828 -0.20996 0.048828 c-0.13021 0 -0.24251 -0.047197 -0.33691 -0.1416 s-0.1709 -0.21484 -0.22949 -0.36133 s-0.10254 -0.30599 -0.13184 -0.47852 s-0.043945 -0.33366 -0.043945 -0.4834 c0 -0.29297 0.011396 -0.62663 0.03418 -1.001 s0.048828 -0.75846 0.078125 -1.1523 s0.055342 -0.78613 0.078125 -1.1768 s0.03418 -0.75195 0.03418 -1.084 c0 -0.44271 -0.029297 -0.78775 -0.087891 -1.0352 s-0.16276 -0.37109 -0.3125 -0.37109 c-0.14323 0.019531 -0.28972 0.14323 -0.43945 0.37109 s-0.30273 0.5192 -0.45898 0.87401 s-0.30925 0.75521 -0.45898 1.2012 s-0.29459 0.9017 -0.43456 1.3672 s-0.27181 0.91797 -0.39551 1.3574 s-0.23438 0.83171 -0.33203 1.1768 s-0.18229 0.62337 -0.25391 0.83496 s-0.12044 0.31738 -0.14648 0.31738 c-0.05208 0 -0.091143 -0.011396 -0.11719 -0.03418 s-0.050459 -0.047197 -0.073242 -0.073242 s-0.050449 -0.050459 -0.082998 -0.073242 s-0.081377 -0.03418 -0.14648 -0.03418 c-0.058594 0 -0.097656 0.0065136 -0.11719 0.019531 s-0.042314 0.029297 -0.068359 0.048828 s-0.058594 0.035811 -0.097656 0.048828 s-0.10742 0.019531 -0.20508 0.019531 c-0.11719 0 -0.23274 -0.029297 -0.34668 -0.087891 s-0.1709 -0.14974 -0.1709 -0.27344 c0 -0.078125 0.013018 -0.23926 0.039063 -0.4834 s0.056973 -0.54362 0.092783 -0.89844 s0.074873 -0.75195 0.11719 -1.1914 s0.081377 -0.89355 0.11719 -1.3623 s0.066738 -0.9375 0.092783 -1.4063 s0.039063 -0.91472 0.039063 -1.3379 c0 -0.20833 -0.0032521 -0.40201 -0.0097656 -0.58104 s-0.0097656 -0.34993 -0.0097656 -0.5127 c0 -0.039063 0.019531 -0.058594 0.058594 -0.058594 c0.078125 0 0.13835 0.014648 0.18066 0.043945 s0.073242 0.060225 0.092773 0.092773 s0.030928 0.063477 0.03418 0.092773 s0.0081349 0.043945 0.014648 0.043945 c0.019531 0 0.042314 -0.011396 0.068359 -0.03418 s0.053711 -0.047197 0.083008 -0.073242 s0.056963 -0.050459 0.083008 -0.073242 s0.048828 -0.03418 0.068359 -0.03418 l0.097656 0 c0.097656 0 0.16602 -0.014648 0.20508 -0.043945 s0.066729 -0.061846 0.083008 -0.097656 s0.027676 -0.068359 0.034189 -0.097656 s0.026045 -0.043945 0.058594 -0.043945 c0.019531 0 0.047197 0.014648 0.083008 0.043945 s0.071621 0.078125 0.10743 0.14648 s0.066738 0.15788 0.092783 0.26855 s0.039063 0.24414 0.039063 0.40039 c0 0.20833 -0.0081349 0.472 -0.024414 0.79102 s-0.035811 0.65918 -0.058594 1.0205 s-0.043945 0.72591 -0.063477 1.0938 s-0.032549 0.7015 -0.039063 1.001 c0.071611 -0.27995 0.15787 -0.59082 0.25878 -0.93262 s0.2181 -0.68848 0.35156 -1.04 s0.27832 -0.69499 0.43457 -1.0303 s0.32552 -0.63313 0.50781 -0.89355 s0.37436 -0.47038 0.57618 -0.62988 s0.41342 -0.23926 0.63478 -0.23926 c0.35156 0 0.63965 0.065107 0.86426 0.19531 s0.40202 0.30924 0.53223 0.5371 s0.21973 0.49479 0.26855 0.80077 s0.073242 0.63477 0.073242 0.98633 c0 0.29948 -0.013018 0.61361 -0.039063 0.94239 s-0.053711 0.65756 -0.083008 0.98633 s-0.055342 0.65268 -0.078125 0.97169 s-0.03418 0.6185 -0.03418 0.89845 c0 0.34505 0.019531 0.65592 0.058594 0.93261 s0.058594 0.48665 0.058594 0.62988 z"></path></g></svg>