<svg data-v-0dd9719b="" version="1.0" xmlns="http://www.w3.org/2000/svg" xmlns:xlink="http://www.w3.org/1999/xlink" width="100%" height="100%" viewBox="0 0 340.000000 250.000000" preserveAspectRatio="xMidYMid meet" color-interpolation-filters="sRGB" style="margin: auto;"> <rect data-v-0dd9719b="" x="0" y="0" width="100%" height="100%" fill="#fcfcfc" fill-opacity="1" class="background"></rect>  <g data-v-0dd9719b="" fill="#b722ff" class="icon-text-wrapper icon-svg-group iconsvg" transform="translate(105.80500030517578,54.922332763671875)"><g class="iconsvg-imagesvg" transform="translate(32,0)" mask="url(#14fc8a22-4e5f-4cf4-884a-4eb908e704e4)"><g><rect fill="#b722ff" fill-opacity="0" stroke-width="2" x="0" y="0" width="60" height="59.9922010138682" class="image-rect"></rect> <svg x="0" y="0" width="60" height="59.9922010138682" filtersec="colorsb7984911721" class="image-svg-svg primary" style="overflow: visible;"><svg xmlns="http://www.w3.org/2000/svg" viewBox="0 0 75.43000030517578 75.42000579833984"><g><g><path fill="#008ad4" d="M75.42 75.41H51.24l.01-24.17h24.16l.01 24.17z"></path><path fill="#54c3f1" d="M51.24 75.41l-24.17.01.01-24.17 24.17-.01-.01 24.17z"></path><path fill="#a2daf7" d="M27.07 75.42H2.91L2.9 51.25h24.18l-.01 24.17z"></path><path fill="#54c3f1" d="M51.25 27.08h24.16v24.16H51.25z"></path><path fill="#a2daf7" d="M75.42 27.07l-24.16.01-.01-24.18h24.18l-.01 24.17z"></path><path fill="#54c3f1" d="M42.87 42.86H18.68l.02-24.17 24.16-.01.01 24.18zM29.19 11.11H18.1L18.11.03 29.2.02l-.01 11.09z"></path><path fill="#a2daf7" d="M6.61 6.6L0 6.61.01 0h6.6v6.6z"></path><path fill="#54c3f1" d="M3.98 21.39h3.85v3.84H3.98z"></path></g></g></svg></svg> <!----></g><rect v-gra="id" width="72" height="71.99220275878906" transform="translate(-6, -6)" style="pointer-events:none;" fill="url(#KmYBLQMZ5TUeOsHkS03VY)"></rect></g> <g transform="translate(0,77.83687400817871)"><g data-gra="path-name" fill-rule="" class="tp-name iconsvg-namesvg" fill="url(#4b422bd8-52b3-4a35-b680-4c7ce4555107)"><g transform="scale(1)"><g><path d="M0.77-2.93L0.77 0 7.54 0 7.54-2.93 5.92-2.93 5.92-6.92 7.51-6.92 12.84 0 17.15 0 17.15-2.93 14.7-2.93 10.54-8.11 15.25-13.68 17.15-13.68 17.15-16.61 9.82-16.61 9.82-13.68 11.3-13.68 7.59-9.32 5.92-9.32 5.92-13.68 7.54-13.68 7.54-16.61 0.77-16.61 0.77-13.68 2.38-13.68 2.38-2.93ZM18.42-16.61L18.42-13.68 20.03-13.68 20.03-2.93 18.42-2.93 18.42 0 25.19 0 25.19-2.93 23.58-2.93 23.58-7.07 30.59-7.07 30.59-2.93 28.98-2.93 28.98 0 35.77 0 35.77-2.93 34.14-2.93 34.14-13.68 35.77-13.68 35.77-16.61 28.98-16.61 28.98-13.68 30.59-13.68 30.59-9.57 23.58-9.57 23.58-13.68 25.19-13.68 25.19-16.61ZM49.46-8.35C49.46-4.91 47.67-2.88 44.97-2.88 42.22-2.88 40.46-4.91 40.46-8.35 40.46-11.73 42.22-13.73 44.97-13.73 47.67-13.73 49.46-11.7 49.46-8.35ZM53.03-8.35C53.03-13.93 49.61-16.81 44.94-16.81 40.28-16.81 36.86-13.93 36.86-8.35 36.86-2.68 40.28 0.2 44.94 0.2 49.61 0.2 53.03-2.7 53.03-8.35ZM59.82 0L59.82-2.85 58.31-2.85 59.03-4.96 64.95-4.96 65.67-2.85 64.18-2.85 64.18 0 70.8 0 70.8-2.85 69.16-2.85 64.28-16.61 59.72-16.61 54.81-2.85 53.2-2.85 53.2 0ZM62-13.63L64.13-7.36 59.84-7.36ZM78.09-16.61L78.09-13.68 79.7-13.68 79.7-2.93 78.09-2.93 78.09 0 84.86 0 84.86-2.93 83.25-2.93 83.25-7.07 90.26-7.07 90.26-2.93 88.65-2.93 88.65 0 95.44 0 95.44-2.93 93.81-2.93 93.81-13.68 95.44-13.68 95.44-16.61 88.65-16.61 88.65-13.68 90.26-13.68 90.26-9.57 83.25-9.57 83.25-13.68 84.86-13.68 84.86-16.61ZM109.13-8.35C109.13-4.91 107.34-2.88 104.64-2.88 101.89-2.88 100.13-4.91 100.13-8.35 100.13-11.73 101.89-13.73 104.64-13.73 107.34-13.73 109.13-11.7 109.13-8.35ZM112.7-8.35C112.7-13.93 109.28-16.81 104.61-16.81 99.95-16.81 96.53-13.93 96.53-8.35 96.53-2.68 99.95 0.2 104.61 0.2 109.28 0.2 112.7-2.7 112.7-8.35ZM114.38-8.35C114.38-2.7 117.98 0.2 123.01 0.2 125.41 0.2 127.64-0.5 129.16-1.56L128.36-4.51C127.17-3.62 125.31-2.9 123.33-2.9 120.08-2.9 117.98-4.93 117.98-8.35 117.98-11.7 120.08-13.73 122.79-13.73 123.68-13.73 124.52-13.68 125.29-13.56L125.59-9.45 128.93-9.45 128.93-15.79C127.12-16.41 125.41-16.81 122.86-16.81 118-16.81 114.38-13.93 114.38-8.35Z" transform="translate(-0.7699999809265137, 16.809999465942383)"></path></g> <!----> <!----> <!----> <!----> <!----> <!----> <g data-gra="path-name-1" fill="url(#088e597f-7869-46db-8336-e5d475395c04)" transform="translate(0,20.01000213623047)"><g transform="scale(1.01703)"><path d="M1.88-40.63L1.88-26.98 8.49-26.98 8.97-33.47 17.58-33.47 17.58-7.15 13.58-7.15 13.58 0 30.2 0 30.2-7.15 26.25-7.15 26.25-33.47 34.8-33.47 35.35-26.98 41.9-26.98 41.9-40.63ZM76.04-20.43C76.04-12.01 71.67-7.03 65.06-7.03 58.33-7.03 54.03-12.01 54.03-20.43 54.03-28.68 58.33-33.59 65.06-33.59 71.67-33.59 76.04-28.62 76.04-20.43ZM84.77-20.43C84.77-34.08 76.4-41.11 65-41.11 53.6-41.11 45.23-34.08 45.23-20.43 45.23-6.55 53.6 0.49 65 0.49 76.4 0.49 84.77-6.61 84.77-20.43ZM88.1-40.63L88.1-26.98 94.71-26.98 95.2-33.47 103.81-33.47 103.81-7.15 99.8-7.15 99.8 0 116.42 0 116.42-7.15 112.48-7.15 112.48-33.47 121.03-33.47 121.57-26.98 128.12-26.98 128.12-40.63Z" transform="translate(-1.8799999952316284, 41.11000061035156)"></path></g></g></g></g> <!----></g></g><defs v-gra="od"><linearGradient x1="0" y1="1" x2="0" y2="0" id="4b422bd8-52b3-4a35-b680-4c7ce4555107"><stop offset="0%" stop-color="#b722ff"></stop><stop offset="100%" stop-color="#22d4fe"></stop></linearGradient><filter id="42443b3f1de60f6b6fd3b6a9844b4764" filterUnits="objectBoundingBox"><feColorMatrix type="matrix" values="0 0 0 0 0.99609375  0 0 0 0 0.99609375  0 0 0 0 0.99609375  0 0 0 1 0"></feColorMatrix></filter><linearGradient x1="0" y1="1" x2="0" y2="0" id="088e597f-7869-46db-8336-e5d475395c04"><stop offset="0%" stop-color="#b722ff"></stop><stop offset="100%" stop-color="#22d4fe"></stop></linearGradient><filter id="42443b3f1de60f6b6fd3b6a9844b4764" filterUnits="objectBoundingBox"><feColorMatrix type="matrix" values="0 0 0 0 0.99609375  0 0 0 0 0.99609375  0 0 0 0 0.99609375  0 0 0 1 0"></feColorMatrix></filter></defs><defs v-gra="id"><filter id="9e412cea-ec01-42f4-947f-8a94ccdf1fa1" filterUnits="userSpaceOnUse"><feColorMatrix type="matrix" values="0 0 0 0 0.99609375  0 0 0 0 0.99609375  0 0 0 0 0.99609375  0 0 0 1 0"></feColorMatrix></filter><linearGradient x1="0" y1="1" x2="0" y2="0" id="KmYBLQMZ5TUeOsHkS03VY"><stop offset="0%" stop-color="#b722ff"></stop><stop offset="100%" stop-color="#22d4fe"></stop></linearGradient><filter id="42443b3f1de60f6b6fd3b6a9844b4764" filterUnits="objectBoundingBox"><feColorMatrix type="matrix" values="0 0 0 0 0.99609375  0 0 0 0 0.99609375  0 0 0 0 0.99609375  0 0 0 1 0"></feColorMatrix></filter></defs><mask v-gra="im" id="14fc8a22-4e5f-4cf4-884a-4eb908e704e4"><g class="iconsvg-imagesvg" filter="url(#9e412cea-ec01-42f4-947f-8a94ccdf1fa1)"><g><rect fill="#b722ff" fill-opacity="0" stroke-width="2" x="0" y="0" width="60" height="59.9922010138682" class="image-rect"></rect> <svg x="0" y="0" width="60" height="59.9922010138682" filtersec="colorsb7984911721" class="image-svg-svg primary" style="overflow: visible;"><svg xmlns="http://www.w3.org/2000/svg" viewBox="0 0 75.43000030517578 75.42000579833984"><g><g><path fill="#008ad4" d="M75.42 75.41H51.24l.01-24.17h24.16l.01 24.17z"></path><path fill="#54c3f1" d="M51.24 75.41l-24.17.01.01-24.17 24.17-.01-.01 24.17z"></path><path fill="#a2daf7" d="M27.07 75.42H2.91L2.9 51.25h24.18l-.01 24.17z"></path><path fill="#54c3f1" d="M51.25 27.08h24.16v24.16H51.25z"></path><path fill="#a2daf7" d="M75.42 27.07l-24.16.01-.01-24.18h24.18l-.01 24.17z"></path><path fill="#54c3f1" d="M42.87 42.86H18.68l.02-24.17 24.16-.01.01 24.18zM29.19 11.11H18.1L18.11.03 29.2.02l-.01 11.09z"></path><path fill="#a2daf7" d="M6.61 6.6L0 6.61.01 0h6.6v6.6z"></path><path fill="#54c3f1" d="M3.98 21.39h3.85v3.84H3.98z"></path></g></g></svg></svg> <!----></g></g></mask></svg>