<?xml version="1.0" standalone="no"?> <!DOCTYPE svg PUBLIC "-//W3C//DTD SVG 1.0//EN" "http://www.w3.org/TR/2001/REC-SVG-20010904/DTD/svg10.dtd" > <svg xmlns="http://www.w3.org/2000/svg" width="100%" height="100%">
<defs >
<font id="signpainterhousescript" horiz-adv-x="312" ><font-face
    font-family="SignPainter-HouseScript"
    units-per-em="1000"
    panose-1="2 0 0 6 7 0 0 2 0 4"
    ascent="701"
    descent="-201"
    alphabetic="0" />
<missing-glyph horiz-adv-x="1000" />
<glyph unicode=" " glyph-name="space" horiz-adv-x="220" />
<glyph unicode="!" glyph-name="exclam" horiz-adv-x="317" d="M356 615Q362 624 369 624T381 613Q405 560 351 462Q227 240 161 95Q154 81 144 91Q113 124 141 200Q172 283 237 409T356 615ZM131 52Q147 18 124 -12Q115 -24 97 -20T69 2Q58 22 59 42T74 75Q85
87 103 80T131 52Z" />
<glyph unicode="&quot;" glyph-name="quotedbl" horiz-adv-x="318" d="M191 433Q178 415 167 417Q155 418 160 433Q175 475 206 538T261 630Q275 648 284 631Q297 606 276 568Q224 477 191 433ZM239 398Q220 379 213 385Q203 392 211 405Q234 445 277 507T347
594Q355 602 363 601T373 591Q378 563 353 528Q307 464 239 398Z" />
<glyph unicode="#" glyph-name="numbersign" horiz-adv-x="510" d="M217 347Q166 346 113 341Q106 340 103 344T105 354Q122 376 187 386Q207 389 240 392Q291 486 327 544Q339 565 346 546Q357 517 319 433Q316 426 310 413T301 395Q346 398 394 398Q452 502
486 549Q500 568 505 548Q515 515 476 438L455 398Q514 398 546 394Q567 391 555 379Q526 349 442 349H428L349 207Q410 208 458 205Q480 203 467 190Q436 159 355 159H323Q280 80 250 16Q244 4 236 16Q222 40 246 103Q257 132 270 158Q237 158 177 156L115 28Q109
15 101 28Q87 52 109 115Q116 135 124 153Q57 149 26 146Q17 145 16 148T18 157Q34 182 99 192Q117 195 144 198Q171 260 217 347ZM367 349H277L200 202Q229 204 293 206Q325 272 367 349Z" />
<glyph unicode="$" glyph-name="dollar" horiz-adv-x="351" d="M290 499L350 601Q360 619 369 603Q384 578 354 514Q338 482 334 475Q355 457 364 433Q372 422 367 399T356 363T338 326T320 287Q316 278 313 277T298 281Q259 305 282 364Q285 372 291 383T301
404T309 423T313 440T307 451Q297 459 263 442T196 390T161 318Q160 301 177 285T227 251T268 226Q289 208 286 185T260 136Q242 116 210 109T140 111L93 16Q86 3 79 13Q63 35 83 87Q86 94 91 107T99 128Q61 150 29 195Q20 208 35 211Q67 218 99 194Q115 179 139
162T191 143Q216 141 230 155Q245 170 226 186Q218 193 180 214T117 260T92 313Q93 372 137 421T238 494Q263 504 290 499Z" />
<glyph unicode="%" glyph-name="percent" horiz-adv-x="596" d="M478 469Q426 466 382 495Q382 483 381 476Q374 420 334 357T245 280Q186 264 148 318Q101 384 165 494Q189 536 224 563T294 591Q313 592 323 587T346 563Q379 514 447 510T548 544Q572 569 575
548Q583 503 525 435Q476 381 351 233T167 1Q156 -15 150 3Q138 37 173 93Q206 145 295 255T478 469ZM453 -15Q393 -33 354 20Q305 87 367 195Q392 239 425 267T492 297Q525 300 546 271Q548 268 562 253T580 225T582 185Q578 129 539 64T453 -15ZM327 542Q312
557 277 531T215 460Q191 420 183 377T188 321Q202 307 232 327T290 394Q318 442 328 487T327 542ZM526 248Q512 262 478 236T417 164Q393 122 386 79T393 24Q410 11 439 31T494 100T529 194T526 248Z" />
<glyph unicode="&amp;" glyph-name="ampersand" horiz-adv-x="523" d="M337 142Q292 134 291 134Q220 127 198 174Q191 190 208 190Q242 189 314 205T413 223Q479 227 503 175Q506 167 504 163T493 159Q452 164 392 153Q404 105 358 45Q328 6 282 -19T180 -44T78
-3Q39 31 32 79T46 174T112 259T215 314Q159 333 156 392Q153 459 211 519T330 598Q365 613 402 612T471 583Q503 556 507 529T493 465Q466 408 452 368Q447 355 431 363Q412 373 405 396T409 459Q414 473 421 488T434 514T443 533T447 549T441 561Q426 576 373
551T272 476T227 379Q229 351 247 342T300 334Q359 335 374 292Q379 280 363 278Q252 269 172 210T89 79Q88 48 106 27T156 4Q198 1 252 37T337 142Z" />
<glyph unicode="&apos;" glyph-name="quotesingle" horiz-adv-x="241" d="M190 436Q178 420 164 422Q155 423 160 439Q178 482 212 545T268 636Q285 656 293 636Q303 610 282 575Q233 491 190 436Z" />
<glyph unicode="(" glyph-name="parenleft" horiz-adv-x="228" d="M346 643Q362 653 365 636Q374 582 296 513Q191 419 135 271T93 -57Q94 -63 90 -64T82 -63Q61 -50 54 -9Q24 169 100 353T346 643Z" />
<glyph unicode=")" glyph-name="parenright" horiz-adv-x="245" d="M279 633Q307 505 276 368T181 131T37 -28Q-7 -60 -42 -60Q-48 -60 -49 -57T-45 -49Q90 65 158 217T221 507Q217 607 261 641Q275 652 279 633Z" />
<glyph unicode="*" glyph-name="asterisk" horiz-adv-x="366" d="M429 531Q422 498 379 487Q360 482 309 471Q346 412 358 397Q362 392 360 388T349 382Q322 380 299 409Q279 434 277 438Q245 383 229 348Q224 335 214 347Q196 367 212 409Q213 411 218 426T229
452Q186 442 153 433Q146 431 143 433T140 442Q146 471 188 486Q229 500 234 501Q201 554 184 584Q176 599 192 601Q226 604 250 564Q252 560 259 550T272 532Q300 587 337 647Q342 655 352 649Q362 642 364 626T355 582Q352 577 341 557T323 523Q369 534 415 543Q424
544 427 542T429 531Z" />
<glyph unicode="+" glyph-name="plus" horiz-adv-x="314" d="M250 314Q312 313 321 260Q323 253 321 250T310 247Q273 251 213 245Q174 179 161 146Q157 128 143 139Q108 166 131 222Q137 237 138 239H136Q74 240 62 292Q60 299 63 303T74 306Q111 303 172 309L226
406Q235 422 249 407Q279 373 250 314Z" />
<glyph unicode="," glyph-name="comma" horiz-adv-x="239" d="M86 -16Q62 -3 70 31Q75 53 90 66T122 78Q140 77 149 57T149 10Q139 -20 112 -37T59 -44Q54 -42 54 -38T59 -32Q75 -26 86 -16Z" />
<glyph unicode="-" glyph-name="hyphen" horiz-adv-x="325" d="M118 199Q55 202 45 252Q43 259 45 263T55 266Q85 264 148 269T229 274Q293 274 304 222Q306 215 304 211T293 208Q252 211 194 205T118 199Z" />
<glyph unicode="." glyph-name="period" horiz-adv-x="223" d="M60 43Q69 63 85 73T117 78T136 56T132 18T107 -12T75 -17T56 6T60 43Z" />
<glyph unicode="/" glyph-name="slash" horiz-adv-x="396" d="M549 645Q568 663 573 639Q584 586 512 502Q491 478 387 367T188 147T49 -30Q45 -36 40 -36T30 -28Q16 8 47 65Q88 141 266 342T549 645Z" />
<glyph unicode="0" glyph-name="zero" horiz-adv-x="489" d="M400 239Q439 319 453 393T459 512T423 566Q385 579 310 522T175 362Q134 291 118 217T112 91T155 28Q202 9 274 69T400 239ZM441 588Q496 567 514 503T518 365T469 218Q410 97 328 31T155 -7Q100 11
72 57T42 164Q41 237 68 312T138 444T227 542T314 601Q355 617 388 613T441 588Z" />
<glyph unicode="1" glyph-name="one" horiz-adv-x="218" d="M199 479Q165 477 159 485T163 500Q227 562 259 596Q272 608 285 596Q329 557 278 460Q265 436 211 338T111 149T30 -25Q23 -42 12 -29Q-17 4 7 82Q22 128 81 251T199 479Z" />
<glyph unicode="2" glyph-name="two" horiz-adv-x="423" d="M84 52Q158 74 220 76Q291 77 309 28Q314 13 299 13Q258 14 179 1T52 -26Q18 -36 2 -19Q-14 -1 -23 23Q-29 38 -26 45T-7 63Q125 142 238 241T406 427T428 551Q416 568 397 564T361 550T324 518T291
479T266 444Q241 407 220 392T166 377Q156 378 155 381T156 393Q173 440 216 500T313 588Q347 607 388 603T458 571Q523 506 469 396Q435 328 327 226T84 52Z" />
<glyph unicode="3" glyph-name="three" horiz-adv-x="429" d="M472 415Q424 352 336 315Q367 308 382 295Q420 263 410 203T345 75Q305 26 253 4T155 -15T76 11Q44 32 30 63T15 119T25 166Q37 196 60 213T107 231Q124 231 115 217Q79 159 76 109T100 43Q137 20
191 43T287 120Q326 168 340 210T333 273Q319 281 299 281T259 275T217 276T176 303Q165 316 185 322Q285 351 355 402T448 499T448 568Q403 616 303 491Q250 424 195 435Q177 438 185 453Q207 498 250 543T331 607Q367 625 410 621T478 590Q549 517 472 415Z"
/>
<glyph unicode="4" glyph-name="four" horiz-adv-x="426" d="M440 512Q203 349 94 232Q199 259 295 264Q372 413 440 512ZM371 252Q399 237 408 209Q410 202 407 199T397 197Q374 202 343 200Q271 69 237 -18Q231 -33 220 -22Q191 21 214 87Q230 129 260 193Q170
181 114 167Q90 162 80 175Q65 195 45 232Q36 249 49 264Q109 335 230 434T453 599Q479 616 492 596L520 549Q529 533 528 524T512 491Q457 406 371 252Z" />
<glyph unicode="5" glyph-name="five" horiz-adv-x="415" d="M552 556Q513 556 475 551T395 539T334 528Q328 527 318 527L219 374Q256 387 292 383T352 361Q380 340 393 310T398 228T350 111Q315 52 264 20T167 -12T79 6Q46 23 30 53T15 111T25 166Q48 227 107
231Q113 232 115 228T113 217Q78 162 75 108T102 37Q138 15 195 52T290 153Q326 215 332 270T312 337Q285 351 244 332T170 269Q160 257 150 268Q114 308 147 378Q182 450 247 553Q236 564 230 583Q226 596 242 596Q295 594 380 608T482 623Q542 624 562 569Q566
556 552 556Z" />
<glyph unicode="6" glyph-name="six" horiz-adv-x="401" d="M484 528Q481 447 442 371Q435 356 421 366Q401 380 397 410T407 480Q440 571 423 573Q388 578 315 519T178 351Q253 397 321 354Q354 334 370 301T381 216T342 105Q309 46 267 16T184 -13T104 8Q36
47 35 149T104 380Q147 456 201 510T289 584T352 614Q406 632 448 604Q485 579 484 528ZM107 166Q96 112 103 81T129 38Q159 20 205 52T284 149T318 262T292 326Q270 336 235 324T162 270T107 166Z" />
<glyph unicode="7" glyph-name="seven" horiz-adv-x="337" d="M383 536Q365 533 316 522T244 508Q158 496 138 561Q134 573 149 573Q196 573 281 587T372 602Q387 605 397 603T418 586Q433 563 447 524Q451 508 448 501T428 478Q337 392 217 243T29 -18Q20 -32
11 -18Q-13 19 28 96Q72 181 185 320T383 536Z" />
<glyph unicode="8" glyph-name="eight" horiz-adv-x="388" d="M277 327L315 251Q378 115 287 23Q249 -16 183 -28T73 -18Q32 2 16 37T5 107T31 178Q74 256 185 345Q156 410 161 446Q167 495 201 533T283 591Q329 607 369 605T435 576T458 501Q499 511 520 498Q527
494 527 489T519 480Q389 409 277 327ZM396 477Q399 519 384 546T336 568Q299 561 269 524T238 446Q238 422 249 392Q324 444 396 477ZM216 279Q115 193 82 122Q45 41 94 16Q119 3 154 12T216 50Q231 66 240 79T256 110T262 152T250 204T216 279Z" />
<glyph unicode="9" glyph-name="nine" horiz-adv-x="414" d="M361 369Q391 451 390 498T366 559Q338 574 288 534T204 428Q169 361 168 308T196 241Q232 224 281 259T361 369ZM308 220Q239 180 170 214Q138 230 120 261T104 345T141 462Q190 553 256 586T387 588Q456
552 453 449T376 196Q319 82 258 26T122 -31Q72 -32 33 -6T-9 78Q-10 108 2 130T31 162Q51 175 50 160Q50 158 50 156Q22 33 84 11Q129 -5 189 49T308 220Z" />
<glyph unicode=":" glyph-name="colon" horiz-adv-x="255" d="M200 343Q209 362 225 372T256 377Q270 371 274 355T271 318T247 288T215 283T196 305T200 343ZM43 43Q53 63 69 73T100 78Q115 73 119 56T115 18Q107 -1 90 -11T58 -17Q44 -12 39 6T43 43Z" />
<glyph unicode=";" glyph-name="semicolon" horiz-adv-x="264" d="M210 343Q219 361 235 372T266 377Q279 372 284 355T281 318T257 288T225 283T206 305T210 343ZM63 -16Q39 -3 48 31Q54 53 69 66T101 78Q119 77 127 57T126 10Q116 -20 90 -37T37 -44Q32 -42
32 -38T37 -32Q52 -27 63 -16Z" />
<glyph unicode="&lt;" glyph-name="less" horiz-adv-x="288" d="M158 267Q194 247 215 229Q245 202 240 166Q237 148 222 159Q185 186 101 227Q80 237 73 280Q71 292 74 297T90 307Q130 320 188 347T277 394Q293 405 293 385Q293 347 256 319Q231 299 158 267Z" />
<glyph unicode="=" glyph-name="equal" horiz-adv-x="361" d="M173 290Q112 291 101 344Q99 352 101 355T112 357Q140 355 202 360T286 364Q352 360 360 309Q362 302 359 298T347 295Q306 299 246 295T173 290ZM126 182Q62 185 52 236Q50 244 52 247T63 250Q92
248 153 254T236 259Q301 256 311 205Q313 198 311 194T300 191Q259 194 201 188T126 182Z" />
<glyph unicode="&gt;" glyph-name="greater" horiz-adv-x="290" d="M192 276Q152 297 131 316Q101 344 105 381Q108 401 123 389Q192 340 270 307Q290 299 279 277Q260 236 235 226Q113 179 76 159Q68 155 65 157T61 169Q60 182 71 200T99 231Q131 254 192 276Z" />
<glyph unicode="?" glyph-name="question" horiz-adv-x="385" d="M194 528Q236 595 298 619T417 610Q459 582 468 530T448 415Q422 361 377 323T263 248Q174 199 148 103Q144 86 130 100Q118 112 115 133T123 193Q137 225 165 251T249 310Q349 367 393 461Q404
484 409 507T412 552T394 582Q356 602 299 548T197 405Q188 388 178 402Q165 416 167 453T194 528ZM130 52Q146 11 124 -12Q115 -23 98 -20T69 2Q58 22 60 42T74 75T104 81T130 52Z" />
<glyph unicode="@" glyph-name="at" horiz-adv-x="586" d="M326 165Q279 110 230 110Q194 110 176 139T166 215T206 309Q251 374 295 406T374 438Q396 438 409 424T425 389Q441 416 451 428Q462 440 469 433Q480 422 481 400T469 345Q462 329 433 280T393 208Q380
178 379 157T388 132Q406 128 434 158T491 253Q527 336 518 410T459 505Q405 528 325 491T181 363Q137 302 122 235T120 117T175 48Q218 31 267 43T350 87Q355 93 360 92T365 83Q365 44 327 21Q302 7 270 4T215 4T173 15Q62 58 60 190Q59 257 88 322T161 435T254
515T346 557Q434 576 483 526Q535 502 556 451T574 348T550 247Q522 177 478 138T390 102Q361 104 345 121T326 165ZM385 396Q365 397 328 363T259 277T221 184T239 140Q261 139 290 170T352 257Q376 299 388 331T399 379T385 396Z" />
<glyph unicode="A" glyph-name="A" horiz-adv-x="442" d="M313 157Q293 156 217 148T114 141Q68 62 38 -3Q35 -10 30 -10T20 -5Q-2 25 25 97Q36 125 52 154Q28 167 19 188Q15 198 17 201T31 203Q58 199 76 198Q142 313 233 435T399 619Q421 637 435 618Q450 597
458 577Q472 545 458 504Q410 359 385 213Q423 200 430 162Q433 148 419 153Q401 158 376 159Q364 66 361 -1Q361 -17 346 -10Q310 6 309 81Q309 117 313 157ZM152 201Q175 203 235 210T321 218Q349 409 395 526Q271 387 152 201Z" />
<glyph unicode="B" glyph-name="B" horiz-adv-x="454" d="M213 511Q161 514 145 551Q138 567 155 568Q190 571 269 598T382 627Q477 633 500 546Q524 456 465 379Q404 301 309 260Q338 246 357 218Q375 197 370 156T334 81Q302 47 253 22T159 -12Q105 -22 75 -7T24
39Q10 59 9 74T22 141Q87 323 213 511ZM167 288Q307 321 395 401T463 537Q454 561 421 561T350 547T275 521Q278 484 245 423Q234 402 207 356T167 288ZM244 238Q230 235 202 231Q162 227 140 238Q91 144 73 83Q65 57 73 47T105 40Q155 46 211 75T298 142Q318 166
321 186T306 221T244 238Z" />
<glyph unicode="C" glyph-name="C" horiz-adv-x="462" d="M388 206Q392 214 398 214T409 204Q426 159 397 110T328 32Q277 -4 217 -8T119 11Q83 30 59 75T33 179Q32 254 60 329T132 461T226 557T319 615Q410 650 454 612Q495 577 507 539Q520 497 498 451Q487
428 458 352Q452 335 436 346Q392 375 412 442Q416 455 423 473T436 505T445 533T449 558T441 576Q427 592 381 573T274 500T171 376Q129 307 114 235T108 113T142 42Q190 3 260 49T388 206Z" />
<glyph unicode="D" glyph-name="D" horiz-adv-x="483" d="M210 501Q161 504 145 543Q139 560 155 562Q191 567 249 591T339 621Q432 635 490 533Q515 483 515 424T483 299T403 175T285 67T136 -8Q97 -21 72 -1Q43 23 30 42Q15 63 14 80T27 148Q50 217 103 319T210
501ZM263 511Q272 467 237 406Q203 350 149 251T77 92Q67 60 73 50T101 47Q167 72 225 112T323 198T395 293T439 387T455 469T441 531Q429 551 407 554T367 551T314 531T263 511Z" />
<glyph unicode="E" glyph-name="E" horiz-adv-x="368" d="M218 525Q187 537 176 576Q174 583 177 586T187 588Q234 585 325 599T436 613Q494 614 512 564Q515 558 512 554T501 551Q476 551 447 548T397 542T345 532T298 524Q252 455 160 288Q191 294 231 296Q298
299 313 251Q318 236 303 236Q230 236 118 208Q71 118 41 50Q130 78 196 81Q264 84 281 37Q286 22 271 22Q204 23 50 -18Q22 -25 8 -8Q5 -5 -13 29Q-25 51 -12 86Q21 175 87 299T218 525Z" />
<glyph unicode="F" glyph-name="F" horiz-adv-x="363" d="M214 526Q184 540 175 577Q172 589 186 589Q233 587 321 600T431 614Q492 614 513 563Q519 548 501 548Q467 548 432 544T355 531T295 520Q234 421 164 292Q195 298 231 300Q299 304 315 252Q320 237 304
237Q239 238 120 209Q53 79 16 -7Q10 -21 -1 -11Q-36 19 -9 99Q13 163 79 288T214 526Z" />
<glyph unicode="G" glyph-name="G" horiz-adv-x="500" d="M412 192Q429 129 373 69T266 -6Q164 -35 99 14Q33 63 32 168Q31 244 63 321T145 456T248 555T345 610Q433 638 480 604Q519 576 532 533Q545 492 525 446Q507 406 486 350Q479 332 465 345Q422 375 439
440Q443 455 452 478T466 514T473 546T467 568Q441 595 343 534T177 370Q133 303 115 231T101 108T127 39Q168 1 241 47T360 184Q296 172 272 170Q202 163 176 218Q168 234 186 234Q227 235 300 248T401 261Q469 262 492 210Q496 202 494 198T482 194Q454 197 412
192Z" />
<glyph unicode="H" glyph-name="H" horiz-adv-x="488" d="M558 465L446 266Q476 253 485 222Q486 215 484 213T474 211Q450 216 418 214Q363 109 316 2Q309 -15 299 0Q272 38 296 110Q308 145 338 206Q160 184 141 184Q92 86 50 -11Q42 -30 32 -15Q6 21 27 95Q31
110 70 197Q47 208 36 229Q31 238 34 241T49 244Q52 244 67 243T91 241Q140 344 199 453T289 605Q303 623 313 604Q339 555 288 456L174 246Q198 249 265 261T371 276Q500 533 564 617Q579 637 589 616Q614 565 558 465Z" />
<glyph unicode="I" glyph-name="I" horiz-adv-x="182" d="M269 616Q283 636 293 615Q319 561 263 462Q90 158 18 -4Q12 -18 2 -6Q-30 28 -2 105Q33 203 119 363T269 616Z" />
<glyph unicode="J" glyph-name="J" horiz-adv-x="437" d="M66 229Q77 231 81 226T81 209Q58 143 58 98T71 36T102 15Q128 9 155 23T202 59T249 125T290 200T332 285Q461 550 504 616Q516 635 528 615Q555 570 521 490Q493 425 434 306T336 122Q238 -41 95 -16Q38
-6 11 41T0 152Q8 183 26 203T66 229Z" />
<glyph unicode="K" glyph-name="K" horiz-adv-x="397" d="M125 210Q74 113 22 -9Q15 -24 6 -12Q-21 25 1 98Q20 162 116 352T259 607Q272 624 283 605Q312 554 260 459L165 286Q376 444 531 612Q543 626 550 610Q562 564 519 505Q484 458 393 378T203 227Q258
139 274 102Q304 30 274 -9Q264 -21 256 -7Q201 99 125 210Z" />
<glyph unicode="L" glyph-name="L" horiz-adv-x="353" d="M55 56Q142 79 207 84Q276 90 295 39Q301 24 285 24Q223 25 67 -15Q49 -20 40 -18T22 -5Q2 24 -4 38Q-14 62 -1 96Q34 186 129 364T273 608Q287 627 297 606Q322 555 272 465Q242 414 172 285T55 56Z" />
<glyph unicode="M" glyph-name="M" horiz-adv-x="573" d="M269 435Q82 153 9 -12Q3 -27 -8 -14Q-39 19 -10 95Q17 166 116 329T297 604Q311 625 329 610Q360 583 365 553T353 462Q298 297 247 109Q304 203 432 365T612 607Q625 626 641 610Q694 556 644 464Q490
178 424 -12Q419 -25 408 -15Q376 11 397 94Q420 186 541 418Q330 163 239 -7Q232 -22 221 -14Q170 23 183 107Q204 237 269 435Z" />
<glyph unicode="N" glyph-name="N" horiz-adv-x="459" d="M239 429Q70 139 22 -6Q17 -23 5 -10Q-28 27 0 102Q64 279 259 607Q270 626 285 616Q313 596 320 570T319 492Q298 365 286 132Q335 243 410 381T544 611Q556 629 567 609Q592 558 536 464Q489 386 411
237T291 -7Q285 -21 271 -13Q248 -1 237 21T222 91Q212 215 239 429Z" />
<glyph unicode="O" glyph-name="O" horiz-adv-x="537" d="M476 597Q535 571 552 503T553 358T497 208Q430 85 340 21T154 -8Q40 34 40 179Q40 255 70 331T147 463T245 560T340 617Q428 647 476 597ZM424 236Q467 315 484 391T493 515T456 573Q415 588 334 534T186
377Q140 305 121 229T112 98T156 30Q207 8 285 66T424 236Z" />
<glyph unicode="P" glyph-name="P" horiz-adv-x="425" d="M206 509Q160 514 143 551Q135 568 153 569Q194 573 269 597T379 623Q468 626 498 540Q526 460 468 369Q429 308 352 259T179 191Q144 185 117 201Q76 121 24 -3Q19 -17 8 -6Q-20 24 -1 93Q18 161 79 283T206
509ZM146 257Q300 286 389 378T455 531Q448 550 425 553T381 552T321 533T268 515Q268 470 230 405Q227 400 196 345T146 257Z" />
<glyph unicode="Q" glyph-name="Q" horiz-adv-x="543" d="M226 -16Q235 -20 279 -43T339 -73T386 -87T441 -89Q453 -87 455 -91T451 -101Q428 -131 383 -137T302 -129Q274 -120 242 -102T188 -70T133 -42T72 -25T1 -30Q-6 -31 -9 -28T-8 -19Q23 22 100 19H107Q37
72 37 181Q37 257 68 332T144 464T240 559T333 614Q422 645 471 594Q528 568 545 501T545 357T490 207Q439 111 370 50T226 -16ZM417 235Q460 314 477 390T487 513T450 572Q410 588 329 534T182 377Q136 306 118 230T109 101T152 32Q203 9 280 66T417 235Z" />
<glyph unicode="R" glyph-name="R" horiz-adv-x="458" d="M129 195Q85 108 40 -3Q34 -17 24 -7Q-4 23 15 92Q34 160 95 283T222 511Q178 515 158 551Q151 565 169 568Q210 573 285 596T395 622Q438 624 467 607T514 541Q545 452 483 369Q443 315 369 272T210 208Q279
122 305 71Q316 50 317 28T310 -10Q302 -23 294 -12Q199 118 129 195ZM283 517Q283 474 245 404L166 265Q320 299 407 385T471 531Q463 551 440 554T395 553T335 534T283 517Z" />
<glyph unicode="S" glyph-name="S" horiz-adv-x="444" d="M-33 134Q-8 141 20 136T68 113Q173 29 241 29Q282 29 303 47Q328 75 301 99Q287 111 247 136T175 182T117 238T90 309Q90 373 134 436T231 539T334 601Q421 637 463 599Q501 564 513 515Q524 471 484
415Q456 378 415 304Q406 288 393 301Q356 338 383 398Q390 414 415 451T453 516T455 554Q438 572 370 537T237 435T170 311Q169 282 197 255T284 194T351 153Q379 133 376 100T340 29Q317 2 276 -11T184 -20T74 17T-35 111Q-50 128 -33 134Z" />
<glyph unicode="T" glyph-name="T" horiz-adv-x="403" d="M276 525Q245 520 215 518Q170 517 140 532T101 575Q99 582 102 585T112 588Q162 584 282 600T424 616Q500 614 519 565Q522 558 519 554T507 550Q455 555 337 535Q339 492 304 429Q268 369 199 241T81
-3Q76 -17 65 -6Q35 22 52 85Q70 148 139 285T276 525Z" />
<glyph unicode="U" glyph-name="U" horiz-adv-x="452" d="M76 -12Q-26 30 8 168Q43 308 240 607Q252 625 264 606Q293 560 245 467Q232 441 188 365T112 227T70 117Q50 32 90 17Q134 0 190 55T301 216Q426 460 520 608Q531 627 544 607Q568 565 531 483Q501 416
426 282T305 83Q254 12 192 -11T76 -12Z" />
<glyph unicode="V" glyph-name="V" horiz-adv-x="403" d="M100 78Q169 194 297 365T496 609Q501 614 505 615T514 614T519 604Q530 549 464 462Q461 458 379 352T233 159T117 -10Q106 -27 89 -15Q33 27 44 119Q57 235 88 383T147 603Q156 625 169 609Q202 571
179 468Q119 192 100 78Z" />
<glyph unicode="W" glyph-name="W" horiz-adv-x="630" d="M395 406Q228 188 104 -10Q91 -30 74 -15Q48 8 42 39T47 123Q74 236 125 382T213 599Q226 623 238 603Q264 558 228 461Q140 220 103 99Q170 208 270 347T453 586Q467 602 478 585Q494 562 495 538T478
455Q402 233 366 94Q439 214 559 375T749 610Q758 619 764 618T773 606Q783 550 715 461Q675 411 562 262T373 -5Q360 -25 343 -10Q316 14 309 44T312 128Q335 236 395 406Z" />
<glyph unicode="X" glyph-name="X" horiz-adv-x="399" d="M280 387Q433 544 508 613Q526 629 531 606Q544 544 465 468L292 300Q324 74 365 3Q370 -5 367 -10T356 -15Q283 -9 253 113Q240 170 229 235Q89 92 16 -10Q6 -24 0 -8Q-18 35 22 97Q58 154 215 320Q186
519 165 602Q163 610 167 613T178 616Q232 607 255 527Q264 495 280 387Z" />
<glyph unicode="Y" glyph-name="Y" horiz-adv-x="379" d="M174 197Q114 90 79 -10Q73 -25 60 -13Q29 14 50 87Q66 141 112 232Q116 477 141 602Q145 624 162 613Q202 588 197 497Q196 471 190 406T182 301Q334 469 495 612Q511 625 516 607Q531 551 455 476Q443
464 385 409T278 306T174 197Z" />
<glyph unicode="Z" glyph-name="Z" horiz-adv-x="441" d="M54 50Q164 79 231 84Q299 90 319 41Q326 26 309 26Q224 26 73 -15Q54 -21 43 -20T23 -6Q2 27 -1 35Q-8 49 -8 60T4 89Q66 181 218 327T481 550Q462 547 405 536T324 521Q238 512 218 572Q213 587 229
587Q272 586 359 599T461 614Q493 617 508 597Q527 573 541 532Q546 517 542 508T518 486Q410 409 279 285T54 50Z" />
<glyph unicode="[" glyph-name="bracketleft" horiz-adv-x="316" d="M364 616Q281 495 187 316T33 -9Q53 -4 68 -1Q116 9 139 -33Q148 -50 130 -51Q88 -55 39 -74Q19 -81 4 -65Q-10 -50 -20 -33Q-32 -13 -21 19Q22 142 118 335T306 649Q322 670 344 678Q372 687
414 689Q442 690 455 679Q467 668 479 652Q483 647 480 642T468 635Q413 631 364 616Z" />
<glyph unicode="\" glyph-name="backslash" horiz-adv-x="355" d="M157 633Q156 644 162 647T177 646Q226 621 242 508Q294 136 334 -26Q336 -34 333 -37T322 -39Q281 -32 257 39Q233 112 200 310T157 633Z" />
<glyph unicode="]" glyph-name="bracketright" horiz-adv-x="319" d="M390 619Q387 619 368 615T340 610Q313 607 285 646Q272 664 295 668Q308 670 333 675T378 682T413 685Q432 685 442 671L460 635Q469 616 459 601Q269 312 110 -44Q100 -68 78 -71Q67 -73
48 -76T20 -81Q-10 -86 -27 -75Q-44 -63 -56 -51Q-62 -46 -61 -40T-50 -30Q-9 -17 58 -8Q128 151 221 329T390 619Z" />
<glyph unicode="^" glyph-name="asciicircum" horiz-adv-x="267" d="M191 500Q184 491 162 464T126 419T102 384Q94 370 84 380Q74 389 72 407T84 457Q131 532 197 607Q206 618 219 609Q240 594 244 560Q255 467 273 399Q275 390 274 388T264 384Q248 383 232
392T208 428Q196 470 191 500Z" />
<glyph unicode="_" glyph-name="underscore" horiz-adv-x="366" d="M433 -72Q450 -72 445 -86Q438 -102 417 -113T365 -125H-67Q-82 -125 -78 -111Q-73 -95 -52 -84T1 -72H433Z" />
<glyph unicode="`" glyph-name="grave" horiz-adv-x="77" d="M12 756Q49 746 61 707Q66 691 70 654T76 613Q77 606 74 603T65 602Q41 607 27 642Q24 649 0 745Q-1 752 2 755T12 756Z" />
<glyph unicode="a" glyph-name="a" horiz-adv-x="407" d="M324 325Q346 366 360 386Q374 406 384 392Q397 377 398 349T383 281Q374 262 337 200T287 108Q274 80 270 58T272 23T295 11Q324 12 361 53T426 150Q435 166 442 151Q452 129 433 89Q412 45 371 13T289
-18T228 6T207 64Q146 -14 82 -14Q36 -14 15 22T3 117T53 234Q110 317 165 357T263 397Q294 397 310 377T324 325ZM237 170Q267 223 282 263T296 323T280 345Q255 347 208 303T120 194Q80 130 72 75T93 19T159 58T237 170Z" />
<glyph unicode="b" glyph-name="b" horiz-adv-x="352" d="M312 151Q277 73 233 31T145 -11Q69 -11 40 60L11 -6Q5 -22 -5 -9Q-34 29 -10 101Q10 164 120 371T282 650Q295 669 307 649Q334 598 281 501Q274 487 241 432T192 349Q239 391 278 391Q340 391 347 317T312
151ZM263 350Q232 353 190 310Q129 246 60 103Q62 79 72 60T102 36Q165 22 241 174Q268 227 277 268T281 329T263 350Z" />
<glyph unicode="c" glyph-name="c" horiz-adv-x="311" d="M247 386Q285 363 302 331Q307 315 308 305T303 276T292 246T277 214T263 182Q258 166 242 174Q198 196 218 261Q221 272 228 288T240 315T248 337T245 351Q231 362 186 318T108 210Q69 125 78 70T133
13Q190 12 241 54T330 155Q334 161 339 161T348 154Q355 134 330 94Q301 49 247 18T137 -15Q43 -16 13 61T32 236Q78 326 142 368T247 386Z" />
<glyph unicode="d" glyph-name="d" horiz-adv-x="401" d="M277 108Q263 79 259 57T260 23T283 11Q312 12 348 52T413 149Q422 165 429 150Q439 126 421 88Q400 45 359 13T277 -17Q196 -12 196 63Q134 -14 72 -14Q26 -14 5 22T-7 117T43 233Q98 314 154 354T252
394Q281 394 297 375T312 326Q424 539 478 616Q494 638 502 616Q525 562 471 465Q441 413 375 294T277 108ZM268 343Q244 344 197 301T109 193T61 74T83 19Q113 18 150 58T224 168Q267 251 278 297T268 343Z" />
<glyph unicode="e" glyph-name="e" horiz-adv-x="320" d="M92 171Q69 102 82 59T137 13Q193 10 245 52T336 155Q346 170 353 154Q357 147 353 129T336 92Q304 45 251 15T140 -16Q46 -17 15 61T34 236Q80 328 145 369T251 388Q289 365 310 336Q325 320 317 278T278
200Q252 169 224 153T161 140T92 171ZM101 193Q156 159 220 243Q245 275 257 307T260 348Q243 362 193 320T109 210Q103 198 101 193Z" />
<glyph unicode="f" glyph-name="f" horiz-adv-x="245" d="M106 184Q160 167 158 68Q158 58 156 34Q216 74 260 161Q263 167 267 169T275 169T281 160Q287 141 271 100Q262 77 227 44T151 -4Q139 -80 109 -155T43 -276Q18 -307 -3 -311T-46 -296Q-103 -248 -90
-151Q-77 -49 -5 112T138 395T279 621Q285 630 293 630T304 620Q324 562 270 470Q155 279 106 184ZM101 18Q108 54 110 90Q110 108 108 124T102 148T94 155Q87 152 81 124T74 75Q72 24 101 18ZM34 29Q-11 -77 -31 -156T-35 -257Q-24 -271 0 -238T52 -141T95 -11Q52
-7 34 29Z" />
<glyph unicode="g" glyph-name="g" horiz-adv-x="401" d="M415 90Q364 11 221 -41Q196 -102 176 -145T129 -239T72 -322T14 -366Q-20 -380 -44 -345Q-85 -286 -64 -221Q-25 -99 150 -32Q156 -20 165 3T179 37Q129 -13 78 -13Q33 -13 12 23T0 116T49 232Q104 313
160 353T259 393Q288 393 303 374T318 327L351 382Q364 404 376 388Q389 373 390 345T374 278Q265 60 239 0Q345 53 418 150Q427 162 433 152Q434 151 435 148Q439 129 415 90ZM231 168Q261 221 276 261T290 321T274 342Q250 344 203 300T115 193Q75 129 68 74T90
18Q118 17 154 57T231 168ZM133 -73Q46 -124 3 -205T-24 -310Q-13 -326 37 -253T133 -73Z" />
<glyph unicode="h" glyph-name="h" horiz-adv-x="377" d="M399 91Q377 47 336 16T251 -16Q190 -16 171 25T176 132Q193 183 240 260T280 342Q267 350 203 301T99 187Q36 84 2 -3Q-5 -19 -15 -7Q-44 26 -19 99Q7 173 125 374T305 652Q320 672 329 651Q354 596 301
509Q292 493 181 321Q213 352 247 372T301 391Q329 388 343 357T340 286Q332 270 296 208T247 117Q235 88 232 64T237 27T264 14Q293 15 329 57T391 152Q394 159 400 159T409 153Q419 131 399 91Z" />
<glyph unicode="i" glyph-name="i" horiz-adv-x="201" d="M232 459Q251 420 225 392Q216 381 198 384T169 407Q158 428 159 448T174 481Q186 494 204 487T232 459ZM69 -15Q14 -15 -3 27T2 131Q20 182 60 256T130 374Q143 392 154 380Q167 366 168 338T153 271Q145
255 113 196T69 109Q51 65 53 39T79 14Q111 15 148 56T209 151Q217 166 225 151Q237 128 218 89Q196 43 154 14T69 -15Z" />
<glyph unicode="j" glyph-name="j" horiz-adv-x="178" d="M230 461Q247 423 224 396Q215 384 197 388T168 411Q145 452 173 483Q185 496 203 489T230 461ZM9 -19Q121 39 198 153Q205 165 212 156Q213 155 214 152Q221 130 199 93Q150 6 -9 -61Q-35 -123 -55 -166T-104
-260T-162 -343T-219 -386Q-254 -400 -276 -367Q-286 -352 -291 -343T-302 -317T-307 -282T-299 -243Q-257 -120 -82 -53Q42 244 129 377Q141 396 153 383Q165 369 165 341T150 273Q140 251 87 144T9 -19ZM-99 -95Q-159 -129 -200 -183T-253 -278T-256 -332Q-245
-346 -195 -273T-99 -95Z" />
<glyph unicode="k" glyph-name="k" horiz-adv-x="367" d="M182 347Q224 388 271 404Q323 422 353 360Q385 294 332 243Q274 186 193 162Q196 101 215 62T263 19Q291 16 327 58T389 154Q394 163 399 163T409 155Q419 131 397 94Q336 -12 248 -11Q191 -10 156 38T121
182Q121 196 124 200T142 209Q227 237 278 288T317 363Q310 377 279 368T209 329Q155 288 115 218T12 0Q10 -6 5 -7T-6 -2Q-32 28 -7 108Q15 181 113 372T276 649Q291 669 301 650Q326 600 272 507L182 347Z" />
<glyph unicode="l" glyph-name="l" horiz-adv-x="230" d="M98 200Q77 150 68 110T64 43T92 15Q127 12 173 56T249 160Q252 166 256 168T265 169T271 160Q278 136 261 98Q246 66 197 26T94 -13Q40 -11 17 28T11 145Q37 268 109 394T264 606Q287 630 307 611Q349
574 330 501Q308 415 240 332T98 200ZM116 243Q178 293 224 360T287 472T296 522Q286 528 239 458T140 291Q126 267 116 243Z" />
<glyph unicode="m" glyph-name="m" horiz-adv-x="565" d="M158 284Q193 325 240 359T313 393Q338 392 350 361T352 295Q391 333 433 361T500 388Q526 387 533 351T524 278Q514 253 478 196T432 117Q412 74 419 44T454 15Q503 16 579 152Q588 167 597 154Q601 150
599 129T588 91Q566 47 523 16T438 -16Q374 -16 351 29T356 135Q374 175 424 253T467 335T431 322T360 262Q266 168 186 -11Q176 -31 163 -16Q124 18 161 110Q176 149 234 241T282 338Q272 342 237 318T157 246Q82 165 10 -5Q3 -21 -9 -10Q-43 20 -19 93Q-3 141
44 231T138 391Q149 408 159 391Q183 351 158 284Z" />
<glyph unicode="n" glyph-name="n" horiz-adv-x="384" d="M160 294Q198 335 240 365T306 392Q333 388 347 357T345 286Q336 267 301 206T252 116Q239 87 237 63T242 26T268 13Q323 16 396 151Q404 166 413 152Q425 133 404 89Q383 46 341 14T256 -18Q194 -18 175
24T180 131Q197 181 244 260T283 343Q273 347 234 322T151 249Q123 219 95 173T51 92T5 -5Q-2 -21 -14 -9Q-47 24 -24 94Q-9 140 39 228T136 389Q147 406 157 389Q178 354 160 294Z" />
<glyph unicode="o" glyph-name="o" horiz-adv-x="332" d="M342 215Q332 204 315 202Q298 134 254 72T157 -9Q84 -33 31 35Q0 82 5 139T47 260Q77 314 120 350T206 390Q247 393 274 356Q279 349 291 337T309 316T319 290T321 246Q320 242 320 235T319 223Q322 223
328 224T339 225Q350 225 342 215ZM256 242Q268 290 264 316Q262 331 256 335T243 334T234 313Q226 270 256 242ZM249 215Q240 219 230 227Q212 240 199 264T184 315Q137 275 107 221Q76 164 66 106T76 31Q98 13 138 41T214 135Q236 176 249 215Z" />
<glyph unicode="p" glyph-name="p" horiz-adv-x="389" d="M209 4Q334 12 399 150Q404 160 410 159T418 150Q425 120 405 84Q351 -14 227 -23Q133 -29 86 14Q57 40 52 81Q-28 -65 -94 -218Q-101 -234 -111 -220Q-136 -186 -112 -110Q-90 -39 5 142T149 388Q164
408 173 387Q180 368 179 342Q270 421 325 363Q385 299 314 141Q268 40 209 4ZM108 181Q88 132 87 93T106 35Q129 16 171 59T250 178Q279 238 286 291T275 353Q257 362 217 328T142 238L108 181Z" />
<glyph unicode="q" glyph-name="q" horiz-adv-x="373" d="M154 10Q117 -15 82 -15Q48 -15 27 7T2 63T10 143T53 233Q108 314 164 354T263 394Q294 394 310 373T324 322Q351 370 367 386Q380 399 392 383Q415 335 370 255Q179 -86 111 -249Q104 -265 93 -253Q80
-238 77 -223T84 -161Q104 -92 154 10ZM237 168Q267 221 282 261T296 321T280 343Q255 345 208 301T120 193Q94 151 81 110T70 42T93 16Q150 16 237 168Z" />
<glyph unicode="r" glyph-name="r" horiz-adv-x="330" d="M165 316Q211 322 268 362Q286 374 295 364Q306 352 314 337T322 302T309 266Q219 163 199 100Q187 61 194 35T224 8Q252 7 285 45T343 140Q350 154 357 141Q368 117 352 79Q335 36 297 8T218 -19Q165
-17 144 25T142 125Q166 198 262 308Q204 270 145 270Q139 259 97 189T28 63T-8 -33Q-12 -51 -25 -38Q-70 8 -27 89Q-8 125 100 280Q78 294 81 320T98 371T133 416T167 436Q178 436 183 427T187 400T181 362T165 316Z" />
<glyph unicode="s" glyph-name="s" horiz-adv-x="302" d="M39 164Q116 269 154 336Q160 386 190 413Q206 427 222 431T244 428Q255 417 236 384Q235 382 225 365Q221 314 228 235T234 126Q230 48 189 21Q273 52 323 160Q327 168 333 168T342 160Q352 138 328 94Q300
43 253 15T151 -16Q46 -20 3 59Q-16 92 -13 134T16 198Q35 214 37 188Q38 184 38 176T39 164ZM152 272Q117 208 48 110Q60 65 80 40T125 21Q146 27 153 74T157 174T152 272Z" />
<glyph unicode="t" glyph-name="t" horiz-adv-x="214" d="M125 389Q79 389 60 415Q53 425 56 430T71 435Q107 434 154 439Q207 534 230 563Q237 573 243 573T254 563Q272 517 241 450Q284 451 303 420Q314 401 291 401Q262 405 213 397Q115 229 79 149Q55 94 61
54T99 12Q131 11 169 53T238 156Q241 162 245 164T253 165T259 156Q265 136 249 99Q234 65 188 24T90 -15Q36 -13 12 38T19 176Q53 256 125 389Z" />
<glyph unicode="u" glyph-name="u" horiz-adv-x="404" d="M196 81Q122 -18 52 -13Q18 -11 3 12T-12 65T1 132Q40 248 139 387Q151 404 165 388Q199 337 146 253Q101 181 68 106Q52 69 54 45T73 19Q123 15 221 173Q252 223 290 294T345 387Q359 407 370 393Q383
378 384 349T369 281Q360 262 324 200T274 110T258 60T262 25T288 13Q345 16 420 151Q424 158 429 158T438 152Q449 130 429 89Q406 45 364 14T279 -18Q232 -18 211 9T196 81Z" />
<glyph unicode="v" glyph-name="v" horiz-adv-x="300" d="M68 29Q120 115 204 227T340 392Q356 408 359 388Q363 358 318 301Q311 293 262 234T168 117T81 -10Q71 -25 61 -20Q31 -5 20 14T11 72Q14 127 33 220T76 389Q83 408 96 397Q120 376 125 346T120 271Q116
252 103 204T82 117T68 29Z" />
<glyph unicode="w" glyph-name="w" horiz-adv-x="490" d="M403 174Q414 274 450 333T510 397Q520 398 524 389T525 363Q512 298 438 173Q324 -19 232 -16Q201 -15 184 9T168 67Q104 -15 46 -11Q1 -8 -10 34T-1 132Q43 258 138 387Q151 405 162 388Q198 339 144
253Q89 166 62 101Q47 64 48 41T66 18Q80 18 95 30T126 63T159 112T197 173Q228 222 267 293T323 387Q336 405 348 393Q360 377 361 349T346 281Q336 261 299 198T249 107Q229 64 230 40T254 15Q280 14 321 58T403 174Z" />
<glyph unicode="x" glyph-name="x" horiz-adv-x="391" d="M174 180Q149 349 137 350Q126 351 101 322T55 247Q52 240 47 240T39 245Q32 265 45 299Q60 337 98 366T172 389Q195 385 206 369T225 319Q233 280 239 233Q336 312 389 380Q396 390 402 390T409 378Q409
339 355 277Q334 253 246 182Q249 163 254 125T263 73Q274 20 295 18Q320 17 348 55T404 150Q407 157 412 157T419 152Q430 127 410 89Q387 43 351 14T278 -16Q238 -16 216 10T185 98Q185 100 184 110T181 127Q95 55 43 -10Q39 -15 33 -17T23 -18T20 -7Q24 36 80
97Q105 124 174 180Z" />
<glyph unicode="y" glyph-name="y" horiz-adv-x="375" d="M386 97Q339 22 194 -37Q168 -100 149 -142T101 -236T43 -320T-16 -364Q-50 -377 -73 -343Q-82 -329 -87 -319T-98 -293T-102 -259T-93 -219Q-53 -98 121 -30Q123 -24 134 2T152 42Q95 -17 43 -13Q-7 -9
-18 37T-8 132Q34 255 128 385Q141 403 153 385Q188 338 134 252Q82 169 57 106Q42 69 43 45T62 20Q113 16 202 168Q216 192 259 273T323 383Q336 401 348 390Q360 374 361 347T344 278Q258 113 211 3Q318 61 388 157Q392 163 397 163T404 155Q409 132 386 97ZM104
-72Q44 -106 3 -160T-50 -254T-53 -309Q-42 -324 9 -250T104 -72Z" />
<glyph unicode="z" glyph-name="z" horiz-adv-x="353" d="M205 3Q212 37 199 54Q190 69 150 63T74 31Q61 22 57 32Q37 90 100 126Q206 187 257 251T287 344Q266 370 185 326T47 211Q42 205 38 206T32 214Q26 235 36 265T73 322Q138 385 218 395Q254 400 276 393T317
359Q357 302 313 226Q275 161 165 92Q205 94 228 72Q247 54 254 23Q326 61 374 152Q377 158 383 158T392 152Q401 133 378 90Q348 35 256 -5Q256 -80 199 -174T89 -298Q51 -319 23 -284Q13 -271 7 -262T-5 -238T-10 -205T0 -167Q45 -63 205 3ZM196 -30Q107 -80
65 -154T40 -250Q54 -266 112 -185T196 -30Z" />
<glyph unicode="{" glyph-name="braceleft" horiz-adv-x="193" d="M139 310Q176 270 139 198Q133 185 105 140T62 60T51 5Q53 -5 49 -8T36 -7Q12 8 4 35T9 102Q23 136 56 187T96 256Q109 291 92 307Q86 314 87 322T99 331Q130 333 151 363Q165 382 202 463T257
572Q295 629 365 616Q380 613 372 603Q370 600 366 598Q343 582 319 544T266 447T234 382Q196 313 139 310Z" />
<glyph unicode="|" glyph-name="bar" horiz-adv-x="224" d="M309 644Q324 665 333 643Q356 592 300 493Q94 130 30 -30Q24 -45 13 -32Q-15 -1 11 75Q37 150 140 347T309 644Z" />
<glyph unicode="}" glyph-name="braceright" horiz-adv-x="306" d="M224 295Q188 332 224 401Q229 411 260 461T306 547T316 603Q313 613 317 616T331 615Q358 604 367 581T367 525Q353 484 313 422T268 346Q255 311 273 293Q279 286 275 280T259 271Q234 265
213 237Q198 218 164 141T111 37Q72 -21 2 -8Q-7 -6 -7 -1T2 10Q23 23 46 60T99 156T131 222Q168 289 224 295Z" />
<glyph unicode="~" glyph-name="a_r_r" horiz-adv-x="1051" d="M595 108Q581 67 588 41T619 13Q661 10 718 94T817 294Q790 304 788 331T799 387T835 437T872 460T891 443T891 398T874 335Q923 341 984 383Q1005 397 1014 385Q1025 372 1032 357T1040 320T1027
283Q939 182 914 109Q900 68 907 42T939 13Q968 11 1002 51T1062 150Q1065 157 1070 157T1077 151Q1090 121 1074 86Q1054 41 1014 12T934 -16Q877 -15 855 29T851 135Q873 209 976 326Q916 288 856 288Q738 -13 612 -17Q557 -18 535 27T532 134Q553 204 657 325Q599
286 537 286Q422 -3 292 -15Q251 -19 229 4T209 68Q144 -11 82 -11Q37 -11 16 25T3 118T53 235Q108 316 164 355T262 395Q291 395 306 377T322 331Q343 366 357 384Q370 402 381 390Q394 376 395 348T381 280Q372 262 336 199T287 106Q268 64 271 39T299 16Q345
21 401 101T499 293Q471 303 469 330T480 385T516 435T554 459Q569 460 573 442T572 397T555 334Q603 339 665 381Q686 395 695 384Q706 370 714 354T722 317T709 281Q621 184 595 108ZM236 170Q266 223 281 263T295 323T279 344Q254 346 207 303T120 195Q94 153
81 112T71 46T94 20Q150 20 236 170Z" />
</font>
</defs>
</svg>
