<svg width="24" height="24" viewBox="0 0 24 24" fill="none" xmlns="http://www.w3.org/2000/svg">
<path d="M22.3029 12.2393C22.3029 11.4718 22.2338 10.7374 22.1054 10.0312H12.1719V14.077L17.8928 14.0782C17.6608 15.4244 16.914 16.5719 15.7698 17.3369V19.9618H19.1752C21.1637 18.1338 22.3029 15.4317 22.3029 12.2393Z" fill="#4285F4"/>
<path d="M15.773 17.3364C14.8251 17.9714 13.6044 18.3429 12.1763 18.3429C9.41765 18.3429 7.07744 16.4966 6.23935 14.0078H2.72656V16.7148C4.46691 20.1451 8.04389 22.499 12.1763 22.499C15.0324 22.499 17.4319 21.5661 19.1784 19.96L15.773 17.3364Z" fill="#34A853"/>
<path d="M5.908 12.0015C5.908 11.3027 6.02526 10.6272 6.23879 9.99215V7.28516H2.726C2.00641 8.70363 1.60156 10.3048 1.60156 12.0015C1.60156 13.6983 2.00764 15.2995 2.726 16.7179L6.23879 14.0109C6.02526 13.3759 5.908 12.7004 5.908 12.0015Z" fill="#FABB05"/>
<path d="M12.1763 5.65611C13.7352 5.65611 15.1312 6.18942 16.2334 7.23151L19.2513 4.23641C17.4183 2.54087 15.0287 1.5 12.1763 1.5C8.04512 1.5 4.46691 3.8539 2.72656 7.28423L6.23935 9.99122C7.07744 7.50246 9.41765 5.65611 12.1763 5.65611Z" fill="#E94235"/>
</svg>
